<?xml version="1.0" standalone="no"?>
<!DOCTYPE svg PUBLIC "-//W3C//DTD SVG 1.0//EN" "http://www.w3.org/TR/2001/REC-SVG-20010904/DTD/svg10.dtd">
<svg xmlns="http://www.w3.org/2000/svg" xmlns:xlink="http://www.w3.org/1999/xlink" id="body_1" width="698" height="573">

<g transform="matrix(0.9417128 0 0 0.9417128 0.17065096 -0)">
    <path transform="matrix(1 0 0 1 -229.5799 -145.76714)"  d="M970.41986 735.63C 970.64624 759.3355 821.2658 761.50775 818.42035 735.63153C 818.194 711.92755 967.57446 709.7553 970.41986 735.63z" stroke="none" fill="#E6E6E6" fill-rule="nonzero" />
    <path d="M623.966 507.569L612.864 513.624L619.929 536.837L631.03 537.846L637.086 524.726L623.966 507.569L623.966 507.569" stroke="none" fill="#9F616A" fill-rule="nonzero" />
    <path d="M658.28 553.994L658.28 565.095L675.437 564.086L675.198 554.943L658.28 553.994L658.28 553.994" stroke="none" fill="#9F616A" fill-rule="nonzero" />
    <path d="M619.929 374.348L625.984 450.042L645.16 561.058L675.437 557.021L665.345 469.217L669.382 388.478L619.929 374.348L619.929 374.348" stroke="none" fill="#2F2E41" fill-rule="nonzero" />
    <path transform="matrix(1 0 0 1 -229.5799 -145.76714)"  d="M930.2482 463.59818L857.58264 464.6074L849.50867 520.1158L898.9617 543.3284L911.0726 587.73517L849.50867 653.336L873.7305 683.61334C 873.7305 683.61334 908.04486 637.1881 933.27594 610.94775C 958.507 584.7074 946.3961 504.9771 946.3961 504.9771L946.3961 504.9771L930.2482 463.59818z" stroke="none" fill="#2F2E41" fill-rule="nonzero" />
    <path d="M679.4742 152.31487C 679.4742 158.44615 677.30646 163.67953 672.97095 168.01501C 668.6355 172.3505 663.4021 174.51823 657.2708 174.51823C 651.1395 174.51823 645.9061 172.3505 641.5707 168.01501C 637.2352 163.67953 635.06744 158.44615 635.06744 152.31487C 635.06744 146.18358 637.2352 140.9502 641.5707 136.61472C 645.9061 132.27924 651.1395 130.1115 657.2708 130.1115C 663.4021 130.1115 668.6355 132.27924 672.97095 136.61472C 677.30646 140.9502 679.4742 146.18358 679.4742 152.31487C 679.4742 152.57324 679.46967 152.83154 679.46063 153.08975" stroke="none" fill="#9F616A" fill-rule="nonzero" />
    <path transform="matrix(1 0 0 1 -229.5799 -145.76714)"  d="M878.7768 313.22067L878.7768 335.424L893.91547 359.64587C 893.91547 359.64587 917.12805 342.48874 912.08185 338.45175C 907.03564 334.41476 906.02637 303.1282 906.02637 303.1282L906.02637 303.1282L878.7768 313.22067z" stroke="none" fill="#9F616A" fill-rule="nonzero" />
    <path d="M649.197 185.62L634.058 203.786L640.114 329.941L687.548 328.932L695.622 218.925L685.53 190.666L678.607 181.247L666.354 199.749L649.197 185.62L649.197 185.62" stroke="none" fill="#D0CDE1" fill-rule="nonzero" />
    <path transform="matrix(1 0 0 1 -229.5799 -145.76714)"  d="M854.5549 396.988L843.4532 439.37628L854.5549 481.76453L836.3885 505.9864L820.2406 429.2838C 820.2406 429.2838 832.3516 366.71072 833.3608 359.64597C 834.36993 352.5812 836.3885 351.57196 836.3885 351.57196L836.3885 351.57196L844.46246 352.5812L854.5549 396.988z" stroke="none" fill="#2F2E41" fill-rule="nonzero" />
    <path d="M705.714 267.368L712.779 280.489L714.798 302.692L710.761 327.923L724.89 351.136L739.019 287.553L723.881 205.804L717.825 205.804L705.714 267.368L705.714 267.368" stroke="none" fill="#2F2E41" fill-rule="nonzero" />
    <path transform="matrix(1 0 0 1 -229.5799 -145.76714)"  d="M849.50867 652.3268C 849.50867 652.3268 835.3793 656.3638 830.333 657.373C 825.28674 658.3822 833.3607 677.55786 833.3607 677.55786C 833.3607 677.55786 838.4069 703.7982 839.4162 708.8444C 840.4255 713.8906 847.4902 731.04785 856.57336 733.0663C 865.65656 735.0847 859.6011 697.74274 859.6011 697.74274C 859.6011 697.74274 863.63806 685.63184 863.63806 681.59485C 863.63806 677.55786 857.5826 679.57635 857.5826 679.57635C 841.43475 677.55786 849.50867 652.3268 849.50867 652.3268z" stroke="none" fill="#2F2E41" fill-rule="nonzero" />
    <path transform="matrix(1 0 0 1 -229.5799 -145.76714)"  d="M882.8138 730.0385C 883.82306 736.094 881.8045 736.094 897.95245 738.1125C 914.1004 740.131 910.0634 727.0108 910.0634 727.0108C 909.38824 720.82556 908.0344 714.73346 906.0264 708.8444C 902.9987 700.77045 886.85077 710.8629 886.85077 710.8629C 886.85077 710.8629 881.80457 723.98303 882.8138 730.0385z" stroke="none" fill="#2F2E41" fill-rule="nonzero" />
    <path transform="matrix(1 0 0 1 -229.5799 -145.76714)"  d="M906.0527 303.83307L906.5787 312.8087C 906.5787 312.8087 913.09106 298.08197 914.10034 282.94333C 915.1096 267.8047 897.9524 264.77695 887.86 263.7677C 877.7676 262.75845 860.6104 269.82315 860.6104 277.89713C 860.6104 285.9711 878.7768 283.9526 885.84155 281.9341C 892.9063 279.91562 895.93396 297.07278 895.93396 297.07278L895.93396 297.07278L899.97095 298.08203L906.0527 303.83307z" stroke="none" fill="#2F2E41" fill-rule="nonzero" />
    <path d="M643.24 192.767L649.197 185.62L666.354 199.749L649.197 211.86L643.24 192.767L643.24 192.767" stroke="none" fill="#D0CDE1" fill-rule="nonzero" />
    <path d="M685.53 190.666L678.465 181.583L666.354 199.749L681.493 210.851L685.53 190.666L685.53 190.666" stroke="none" fill="#D0CDE1" fill-rule="nonzero" />
    <path transform="matrix(1 0 0 1 -229.5799 -145.76714)"  d="M851.52716 411.11737L855.56415 449.46866L847.49023 472.6813L842.444 494.88467C 842.444 494.88467 842.44403 516.0788 862.62885 517.088C 882.81366 518.0972 899.9708 453.5056 899.9708 453.5056C 899.9708 453.5056 902.99854 467.635 905.017 475.70898C 907.0355 483.78296 941.3498 516.0788 941.3498 516.0788C 941.3498 516.0788 949.4237 515.0695 956.48846 498.92163C 963.5532 482.77374 942.3591 467.63507 942.3591 467.63507L942.3591 467.63507L936.3036 446.44092L938.3221 420.20056L952.45166 351.572L910.568 329.8732L915.1096 387.90475L899.97095 433.32074L877.26294 332.90094L869.6936 338.45178L837.39777 351.572L851.52716 411.11737z" stroke="none" fill="#2F2E41" fill-rule="nonzero" />
    <path transform="matrix(1 0 0 1 -229.5799 -145.76714)"  d="M452.66437 563.76715C 450.66876 563.7515 448.6502 563.73785 446.6678 563.67633L446.6678 563.67633L446.7293 561.6773C 448.69122 561.73785 450.69757 561.7652 452.66486 561.76715C 454.64093 561.76715 456.6546 561.7349 458.65216 561.6705L458.65216 561.6705L458.7166 563.6685C 456.69708 563.73395 454.66144 563.76715 452.66437 563.76715zM434.64536 562.9224C 430.6639 562.5454 426.6429 562.0347 422.69467 561.40485L422.69467 561.40485L423.0101 559.43024C 426.91635 560.0533 430.89438 560.55914 434.83383 560.93225zM470.73764 562.90094L470.5472 560.9107C 474.4852 560.5337 478.46274 560.023 482.369 559.3941L482.369 559.3941L482.68735 561.3687C 478.7386 562.00446 474.71808 562.5201 470.7376 562.90094zM410.86508 559.1226C 406.96664 558.23883 403.04428 557.2154 399.20737 556.0816L399.20737 556.0816L399.77426 554.1636C 403.57016 555.28564 407.45053 556.29736 411.30746 557.1714zM494.51352 559.0728L494.06918 557.1236C 497.9349 556.24176 501.8143 555.22516 505.59897 554.10114L505.59897 554.10114L506.1683 556.01917C 502.3426 557.15485 498.4212 558.1822 494.5135 559.0728zM387.7684 552.29645C 384.00668 550.9146 380.243 549.3931 376.58188 547.773L376.58188 547.773L377.39145 545.9449C 381.01303 547.54645 384.73618 549.0523 388.45786 550.4195zM517.6014 552.2183L516.91 550.3413C 520.6087 548.979 524.31915 547.4741 527.9378 545.86865L527.9378 545.86865L528.7493 547.6968C 525.09064 549.3199 521.34015 550.8414 517.6014 552.2183zM365.71417 542.53864C 362.17416 540.691 358.63898 538.6988 355.20782 536.6187L355.20782 536.6187L356.24493 534.9078C 359.63992 536.96735 363.13702 538.9371 366.63947 540.7652zM539.58673 542.4654L538.66095 540.69293C 542.1551 538.8658 545.64435 536.89606 549.0301 534.83844L549.0301 534.83844L550.06915 536.5474C 546.6463 538.6275 543.11993 540.61774 539.58673 542.4654zM345.1053 530.03864C 341.82648 527.75055 338.57697 525.3238 335.4461 522.8277L335.4461 522.8277L336.69318 521.26324C 339.79083 523.73395 343.00616 526.13434 346.24982 528.398zM560.1551 529.96735L559.0086 528.3287C 562.2518 526.0621 565.4627 523.6617 568.55255 521.1939L568.55255 521.1939L569.8006 522.7564C 566.67755 525.25055 563.43243 527.67633 560.1551 529.96735zM326.26788 515.0142C 323.30402 512.3238 320.38995 509.50446 317.60822 506.6363L317.60822 506.6363L319.04376 505.2437C 321.7962 508.0816 324.6795 510.87073 327.6126 513.5337zM578.96954 514.9449L577.62384 513.4644C 580.5496 510.8072 583.4305 508.01617 586.1873 505.17142L586.1873 505.17142L587.62286 506.56204C 584.8377 509.438 581.9256 512.25836 578.96954 514.9449zM309.5008 497.72614C 306.90558 494.68314 304.3753 491.51813 301.9793 488.3189L301.9793 488.3189L303.58038 487.1197C 305.951 490.28568 308.45438 493.41754 311.02228 496.4273zM595.72833 497.64313L594.20685 496.34625C 596.77423 493.33356 599.27814 490.1978 601.64825 487.0279L601.64825 487.0279L603.2498 488.22516C 600.8543 491.42923 598.324 494.59818 595.72833 497.6431zM295.07452 478.4517C 292.88654 475.1011 290.78107 471.64114 288.81622 468.1675L288.81622 468.1675L290.55743 467.18314C 292.5008 470.61966 294.5843 474.0435 296.74933 477.35794zM610.15704 478.3433L608.48126 477.2515C 610.6473 473.9302 612.7303 470.5005 614.6746 467.05618L614.6746 467.05618L616.4168 468.0386C 614.452 471.521 612.3455 474.98785 610.15704 478.34332zM283.23126 457.5054C 281.49103 453.9058 279.847 450.20657 278.34503 446.5093L278.34503 446.5093L280.19757 445.7573C 281.6839 449.41354 283.31036 453.0737 285.03204 456.6343zM622.0037 457.34915L620.203 456.48C 621.9237 452.9136 623.55066 449.24368 625.03894 445.56985L625.03894 445.56985L626.89246 446.31985C 625.3885 450.03372 623.744 453.74466 622.0037 457.34915zM274.17023 435.20755C 272.9051 431.40872 271.74933 427.52298 270.73468 423.65775L270.73468 423.65775L272.66925 423.14993C 273.67267 426.97318 274.81625 430.81793 276.0677 434.57474zM631.0594 434.99564L629.16095 434.36673C 630.4051 430.6138 631.54474 426.7681 632.5457 422.93704L632.5457 422.93704L634.48126 423.4429C 633.46857 427.316 632.3172 431.20267 631.0594 434.99564zM268.05157 411.91364C 267.2874 407.9898 266.64093 403.98883 266.1297 400.02106L266.1297 400.02106L268.1131 399.7652C 268.61896 403.69098 269.2586 407.649 270.01447 411.53082zM637.1502 411.6939L635.1873 411.315C 635.9373 407.43414 636.57306 403.47418 637.07404 399.54547L637.07404 399.54547L639.0584 399.79938C 638.5516 403.77005 637.909 407.772 637.1502 411.69388zM264.97345 388.03082C 264.7171 384.0445 264.58478 379.99274 264.58038 375.98782L264.58038 375.98782L266.58038 375.9858C 266.58478 379.9487 266.71564 383.9575 266.96954 387.9018zM640.201 387.8072L638.2049 387.68024C 638.4539 383.7398 638.5799 379.73102 638.5799 375.76715L638.5799 375.76715L638.5789 375.32867L640.5789 375.32867L640.5799 375.7603C 640.5799 379.773 640.452 383.82376 640.201 387.80716zM266.9417 364.0718L264.94562 363.94882C 265.1936 359.95468 265.57306 355.91953 266.07355 351.95468L266.07355 351.95468L268.05792 352.20468C 267.56232 356.12845 267.18683 360.12064 266.9417 364.0718zM638.17755 363.41556C 637.9178 359.46243 637.52814 355.47122 637.01935 351.55325L637.01935 351.55325L639.0018 351.29544C 639.5164 355.25543 639.91095 359.2886 640.17365 363.2847zM269.931 340.4351L267.96713 340.05716C 268.72153 336.13187 269.61514 332.17825 270.62192 328.30615L270.62192 328.30615L272.55746 328.80908C 271.56134 332.64017 270.67755 336.5513 269.931 340.4351zM635.1024 339.7901C 634.3407 335.90436 633.44226 331.99615 632.4344 328.1734L632.4344 328.1734L634.368 327.66364C 635.3875 331.5274 636.29474 335.47763 637.06525 339.40533zM275.9295 317.3765L274.0301 316.74948C 275.28546 312.9492 276.68292 309.13718 278.1844 305.4189L278.1844 305.4189L280.03888 306.1679C 278.55353 309.84622 277.1712 313.61722 275.9295 317.3765zM629.02423 316.75296C 627.7684 312.99905 626.3748 309.2388 624.88165 305.5762L624.88165 305.5762L626.7332 304.82132C 628.243 308.52347 629.65216 312.32425 630.9207 316.1182zM284.8631 295.25L283.06036 294.3828C 284.79523 290.77637 286.6712 287.17773 288.63556 283.6875L288.63556 283.6875L290.37872 284.66895C 288.43488 288.12164 286.5794 291.68167 284.8631 295.25zM620.035 294.7046C 618.3123 291.15332 616.44995 287.60645 614.4969 284.1626L614.4969 284.1626L616.2371 283.17627C 618.21075 286.65674 620.09357 290.2422 621.8338 293.83252zM296.56036 274.4654L294.8836 273.37457C 297.06476 270.02203 299.3846 266.6944 301.77814 263.48492L301.77814 263.48492L303.38165 264.68024C 301.0135 267.856 298.71808 271.148 296.56036 274.4654zM608.2928 273.9947C 606.1287 270.6895 603.82697 267.40778 601.45 264.24078L601.45 264.24078L603.0496 263.0406C 605.45197 266.24176 607.7791 269.55865 609.9666 272.899zM310.81232 255.35356L309.28888 254.05864C 311.8792 251.01128 314.60236 248.00737 317.38263 245.1309L317.38263 245.1309L318.8211 246.52055C 316.07013 249.36674 313.3758 252.33891 310.81232 255.35356zM593.9969 254.94145C 591.4256 251.9351 588.7225 248.97173 585.96466 246.13383L585.96466 246.13383L587.39825 244.74028C 590.18634 247.60796 592.9178 250.60307 595.5164 253.64165zM327.37433 238.21635L326.02765 236.73784C 328.98712 234.04204 332.06915 231.40971 335.18732 228.91458L335.18732 228.91458L336.43732 230.4761C 333.35187 232.94487 330.30255 235.54936 327.37433 238.21635zM577.38556 237.85356C 574.45294 235.19878 571.3953 232.6021 568.2957 230.13628L568.2957 230.13628L569.5418 228.57085C 572.67365 231.06352 575.76447 233.68755 578.72736 236.37114zM345.973 223.33012L344.82553 221.69243C 348.098 219.39897 351.48862 217.18167 354.90317 215.10161L354.90317 215.10161L355.9437 216.8096C 352.56573 218.86772 349.21075 221.06157 345.973 223.33012zM558.7313 223.01176C 555.47546 220.74565 552.1102 218.55913 548.7284 216.51277L548.7284 216.51277L549.76355 214.80183C 553.1816 216.8697 556.58386 219.07967 559.8739 221.3702zM366.30695 210.94243L365.37823 209.17094C 368.91388 207.31645 372.5584 205.5518 376.2093 203.92632L376.2093 203.92632L377.02277 205.75346C 373.41046 207.36137 369.80548 209.10747 366.30695 210.94243zM538.32697 210.66801C 534.81476 208.83989 531.1956 207.1021 527.56915 205.50249L527.56915 205.50249L528.3768 203.67242C 532.04175 205.28912 535.7005 207.04596 539.2508 208.89362zM388.04572 201.26714L387.35138 199.39113C 391.10138 198.00392 394.9466 196.72072 398.78058 195.57765L398.78058 195.57765L399.35187 197.49466C 395.5589 198.625 391.7552 199.89458 388.04572 201.26714zM516.4974 201.04008C 512.7801 199.68022 508.9715 198.42436 505.17755 197.30815L505.17755 197.30815L505.742 195.38914C 509.577 196.51756 513.42706 197.78714 517.1849 199.16214zM410.87775 194.46L410.43146 192.5108C 414.32257 191.61919 418.3006 190.84235 422.2552 190.20026L422.2552 190.20026L422.5755 192.17487C 418.6629 192.80962 414.72736 193.57817 410.87775 194.46zM493.64044 194.31451C 489.784 193.44537 485.84552 192.69052 481.9344 192.07037L481.9344 192.07037L482.24786 190.09479C 486.201 190.72174 490.18195 191.48492 494.07986 192.36334zM434.3958 190.6441L434.20245 188.65387C 438.17316 188.26862 442.2176 188.00543 446.22296 187.87213L446.22296 187.87213L446.28937 189.87112C 442.326 190.003 438.32452 190.26323 434.3958 190.64409zM470.1087 190.5821C 466.17413 190.21443 462.1712 189.96835 458.2127 189.85066L458.2127 189.85066L458.27228 187.85167C 462.27277 187.97081 466.31818 188.21935 470.29474 188.59091z" stroke="none" fill="#D0CDE1" fill-rule="nonzero" />
    <path d="M263 47C 263 59.978695 258.41135 71.0567 249.23401 80.23402C 240.0567 89.41134 228.9787 94 216 94C 203.02132 94 191.94331 89.41134 182.76599 80.23402C 173.58867 71.0567 169 59.978695 169 47C 169 34.02131 173.58867 22.943302 182.76599 13.765984C 191.94331 4.588661 203.02132 0 216 0C 228.9787 0 240.0567 4.588661 249.23401 13.765984C 258.41135 22.943302 263 34.02131 263 47C 263 47.54693 262.99048 48.09369 262.97137 48.640278" stroke="none" fill="#5CE1E6" fill-rule="nonzero" />
    <path d="M445 175C 445.00003 187.9787 440.41138 199.0567 431.234 208.23401C 422.0567 217.41135 410.9787 222 398 222C 385.0213 222 373.9433 217.41135 364.766 208.23401C 355.58868 199.0567 351 187.9787 351 175C 351 162.02132 355.58868 150.94331 364.766 141.76599C 373.9433 132.58867 385.0213 128 398 128C 410.9787 128 422.0567 132.58867 431.234 141.76599C 440.41138 150.94331 445.00003 162.02132 445 175C 445.00003 175.54694 444.99048 176.09369 444.97137 176.64027" stroke="none" fill="#5CE1E6" fill-rule="nonzero" />
    <path d="M388 371C 388.00003 383.9787 383.41138 395.0567 374.234 404.234C 365.0567 413.41138 353.9787 418.00003 341 418C 328.0213 418.00003 316.9433 413.41138 307.766 404.234C 298.58868 395.0567 294 383.9787 294 371C 294 358.0213 298.58868 346.9433 307.766 337.766C 316.9433 328.58868 328.0213 324 341 324C 353.9787 324 365.0567 328.58868 374.234 337.766C 383.41138 346.9433 388.00003 358.0213 388 371C 388.00003 371.54694 387.99048 372.0937 387.97137 372.6403" stroke="none" fill="#5CE1E6" fill-rule="nonzero" />
    <path d="M162 379C 162 391.97873 157.41135 403.05673 148.23401 412.234C 139.0567 421.41135 127.97869 426 115 426C 102.02131 426 90.9433 421.41135 81.76598 412.234C 72.58867 403.05673 68 391.97873 68 379C 68 366.0213 72.58867 354.9433 81.76598 345.766C 90.9433 336.58868 102.02131 332 115 332C 127.97869 332 139.0567 336.58868 148.23401 345.766C 157.41135 354.9433 162 366.0213 162 379C 162 379.54694 161.99046 380.0937 161.97137 380.6403" stroke="none" fill="#5CE1E6" fill-rule="nonzero" />
    <path d="M94 175C 94 187.9787 89.41134 199.0567 80.23402 208.23401C 71.0567 217.41135 59.978695 222 47 222C 34.02131 222 22.943302 217.41135 13.765984 208.23401C 4.588661 199.0567 0 187.9787 0 175C 0 162.02132 4.588661 150.94331 13.765984 141.76599C 22.943302 132.58867 34.02131 128 47 128C 59.978695 128 71.0567 132.58867 80.23402 141.76599C 89.41134 150.94331 94 162.02132 94 175C 94 175.54694 93.99046 176.09369 93.971375 176.64027" stroke="none" fill="#5CE1E6" fill-rule="nonzero" />
    <path transform="matrix(1 0 0 1 -229.5799 -145.76714)"  d="M465.7209 189.02L449.32706 189.02C 446.2228 189.01999 443.70633 186.50351 443.70633 183.39926L443.70633 183.39926L443.70633 167.00542C 443.70633 166.8812 443.65698 166.76205 443.56915 166.67422C 443.4813 166.58638 443.36215 166.53703 443.23795 166.53703L443.23795 166.53703L432.46484 166.53703C 428.32587 166.53702 424.97052 169.89233 424.97052 174.03134L424.97052 174.03134L424.97052 211.50293C 424.97052 213.49054 425.7601 215.39676 427.16556 216.80222C 428.571 218.20767 430.47723 218.99725 432.46484 218.99725L432.46484 218.99725L458.695 218.99725C 460.68262 218.99725 462.58884 218.20767 463.9943 216.80222C 465.39975 215.39676 466.18933 213.49054 466.18933 211.50293L466.18933 211.50293L466.18933 189.48837C 466.18933 189.36414 466.13998 189.245 466.05212 189.15717C 465.96426 189.06932 465.84512 189.01999 465.7209 189.02zM454.9478 207.75577L436.212 207.75577C 435.54263 207.75577 434.92413 207.39867 434.58945 206.81897C 434.25476 206.23929 434.25476 205.52509 434.58945 204.94539C 434.92413 204.3657 435.54263 204.0086 436.212 204.0086L436.212 204.0086L454.9478 204.0086C 455.98257 204.0086 456.82138 204.84744 456.82138 205.88219C 456.82138 206.91693 455.98257 207.75577 454.9478 207.75577zM454.9478 198.38786L436.212 198.38786C 435.54263 198.38786 434.92413 198.03076 434.58945 197.45107C 434.25476 196.87138 434.25476 196.15718 434.58945 195.57748C 434.92413 194.9978 435.54263 194.6407 436.212 194.6407L436.212 194.6407L454.9478 194.6407C 455.6172 194.6407 456.2357 194.9978 456.57037 195.5775C 456.90506 196.15718 456.90506 196.87138 456.57037 197.45108C 456.2357 198.03076 455.6172 198.38786 454.9478 198.38786z" stroke="none" fill="#FFFFFF" fill-rule="nonzero" />
    <path transform="matrix(1 0 0 1 -229.5799 -145.76714)"  d="M464.69275 184.8735L447.85275 168.03351C 447.7858 167.96692 447.6854 167.94708 447.59814 167.98315C 447.51086 168.01924 447.45383 168.10419 447.45343 168.19862L447.45343 168.19862L447.45343 183.3992C 447.45343 184.43396 448.29224 185.27278 449.327 185.27278L449.327 185.27278L464.5276 185.27278C 464.622 185.27237 464.70694 185.21532 464.743 185.12807C 464.77908 185.0408 464.75925 184.94043 464.6927 184.87347L464.6927 184.87347L464.69275 184.8735z" stroke="none" fill="#FFFFFF" fill-rule="nonzero" />
    <path transform="matrix(1 0 0 1 -229.5799 -145.76714)"  d="M577.37787 507.50842C 576.18964 507.5091 575.1673 508.349 574.9361 509.51456C 574.70483 510.6801 575.32916 511.84668 576.4272 512.3009C 577.5252 512.7551 578.7912 512.3704 579.4509 511.38217C 580.11066 510.39386 579.9804 509.07718 579.13983 508.23727C 578.6724 507.77026 578.03864 507.5081 577.37787 507.50842z" stroke="none" fill="#FFFFFF" fill-rule="nonzero" />
    <path transform="matrix(1 0 0 1 -229.5799 -145.76714)"  d="M591.24475 497.548L591.24475 497.5396C 591.08374 496.83392 590.53656 496.28058 589.83276 496.11176C 587.05176 495.4333 582.67676 496.15656 577.8286 498.0977C 573.1665 499.91003 568.90094 502.61108 565.26917 506.0507C 564.2773 507.03735 563.3558 508.09232 562.5115 509.20782C 560.64624 509.07898 558.77637 509.3794 557.0455 510.086C 551.657 512.45734 550.1181 518.5262 549.7084 521.0179C 549.58826 521.7356 549.80975 522.4682 550.30743 522.99896C 550.8051 523.5298 551.522 523.79803 552.24585 523.72424L552.24585 523.72424L552.258 523.72424L558.26056 523.0691C 558.268 523.1456 558.2764 523.21564 558.28296 523.28C 558.36 524.0114 558.68616 524.69415 559.20685 525.2137L559.20685 525.2137L562.1363 528.14496C 562.655 528.6663 563.3376 528.9929 564.06903 529.0698L564.06903 529.0698L564.26965 529.0913L563.6164 535.0864L563.6164 535.0986C 563.55273 535.7141 563.7362 536.32965 564.1264 536.8099C 564.5166 537.2901 565.0816 537.59564 565.69714 537.65924C 565.7689 537.6666 565.84094 537.6708 565.91315 537.6715C 566.0429 537.67163 566.1724 537.661 566.3004 537.6398C 568.80615 537.23663 574.8722 535.7164 577.237 530.29895C 577.938 528.5739 578.23944 526.7126 578.1189 524.8545C 579.2395 524.012 580.2983 523.09045 581.28723 522.0968C 584.7246 518.4994 587.4288 514.26715 589.24866 509.63626C 591.17944 504.8431 591.90643 500.43542 591.24475 497.548zM581.25354 513.8684C 579.6857 515.4378 577.32697 515.90826 575.27704 515.0604C 573.2272 514.2126 571.88983 512.2134 571.8887 509.99506C 571.8875 507.77676 573.2228 505.77615 575.2718 504.92618C 577.3208 504.0762 579.68005 504.54422 581.2495 506.112L581.2495 506.112L581.25354 506.116C 582.28156 507.12857 582.86523 508.5081 582.87616 509.95102C 582.8871 511.39395 582.32434 512.7821 581.31177 513.8102z" stroke="none" fill="#FFFFFF" fill-rule="nonzero" />
    <path transform="matrix(1 0 0 1 -229.5799 -145.76714)"  d="M561.80035 528.9401C 561.4393 528.8953 561.0742 528.9839 560.7738 529.1893C 560.1775 529.5971 559.5783 530.00024 558.9736 530.3931C 558.43317 530.7407 557.72516 530.67346 557.2599 530.23035C 556.7946 529.78723 556.69293 529.0833 557.0138 528.5267L557.0138 528.5267L558.14764 526.5669C 558.47876 526.0825 558.49554 525.4491 558.1905 524.94794C 557.8855 524.4467 557.3152 524.1706 556.73285 524.2422C 555.4744 524.4013 554.3046 524.97455 553.4077 525.8716C 553.06616 526.2141 552.02747 527.2537 551.46844 531.2153C 551.3094 532.3532 551.20905 533.49854 551.16797 534.6468C 551.1578 535.04266 551.3053 535.4264 551.57806 535.7135C 551.8508 536.0006 552.22644 536.1676 552.6224 536.17773C 552.63525 536.1781 552.6482 536.1782 552.66113 536.1782L552.66113 536.1782L552.6985 536.1782C 553.84766 536.1376 554.9939 536.0379 556.1328 535.8796C 560.09625 535.31964 561.13586 534.28 561.4774 533.9385C 562.3786 533.04114 562.95044 531.8659 563.1003 530.6031C 563.20013 529.785 562.61835 529.0407 561.80035 528.9401z" stroke="none" fill="#FFFFFF" fill-rule="nonzero" />
    <path transform="matrix(1 0 0 1 -229.5799 -145.76714)"  d="M328.40466 550.307L324.99936 550.307C 324.322 550.30707 323.67236 550.03796 323.1934 549.559C 322.71445 549.08 322.44534 548.4304 322.44537 547.753L322.44537 547.753L322.44537 532.4291C 322.44534 531.7517 322.71445 531.1021 323.1934 530.6231C 323.67236 530.14417 324.322 529.87506 324.99936 529.87506L324.99936 529.87506L328.40466 529.87506C 329.082 529.87506 329.73163 530.14417 330.2106 530.6231C 330.68954 531.1021 330.95865 531.7517 330.95865 532.4291L330.95865 532.4291L330.95865 547.753C 330.95865 548.4304 330.68954 549.08 330.2106 549.559C 329.73163 550.03796 329.082 550.30707 328.40466 550.307z" stroke="none" fill="#FFFFFF" fill-rule="nonzero" />
    <path transform="matrix(1 0 0 1 -229.5799 -145.76714)"  d="M352.24185 550.307L348.83655 550.307C 348.1592 550.30707 347.50958 550.03796 347.0306 549.559C 346.55167 549.08 346.28256 548.4304 346.28256 547.753L346.28256 547.753L346.28256 522.21313C 346.28256 521.53577 346.55167 520.88617 347.0306 520.40717C 347.50958 519.9282 348.1592 519.6591 348.83655 519.6591L348.83655 519.6591L352.24185 519.6591C 352.91922 519.6591 353.56885 519.9282 354.04782 520.40717C 354.52676 520.88617 354.79587 521.53577 354.79584 522.21313L354.79584 522.21313L354.79584 547.753C 354.79587 548.4304 354.52676 549.08 354.04782 549.559C 353.56885 550.03796 352.91922 550.30707 352.24185 550.307z" stroke="none" fill="#FFFFFF" fill-rule="nonzero" />
    <path transform="matrix(1 0 0 1 -229.5799 -145.76714)"  d="M364.16043 550.307L360.75513 550.307C 360.0778 550.30707 359.42816 550.03796 358.9492 549.559C 358.47025 549.08 358.20114 548.4304 358.20114 547.753L358.20114 547.753L358.20114 510.29456C 358.20117 508.88403 359.3446 507.7406 360.75513 507.74057L360.75513 507.74057L364.16043 507.74057C 365.57098 507.7406 366.71442 508.88403 366.71442 510.29456L366.71442 510.29456L366.71442 547.753C 366.71445 548.4304 366.44534 549.08 365.9664 549.559C 365.48743 550.03796 364.8378 550.30707 364.16043 550.307z" stroke="none" fill="#FFFFFF" fill-rule="nonzero" />
    <path transform="matrix(1 0 0 1 -229.5799 -145.76714)"  d="M340.32327 550.307L336.918 550.307C 336.24063 550.30707 335.591 550.03796 335.11203 549.559C 334.6331 549.08 334.36398 548.4304 334.364 547.753L334.364 547.753L334.364 501.78128C 334.364 500.37073 335.50745 499.2273 336.918 499.2273L336.918 499.2273L340.3233 499.2273C 341.73383 499.2273 342.87726 500.37073 342.8773 501.78128L342.8773 501.78128L342.8773 547.753C 342.87732 548.4304 342.60822 549.08 342.12924 549.559C 341.65027 550.03796 341.00064 550.30707 340.32327 550.307z" stroke="none" fill="#FFFFFF" fill-rule="nonzero" />
    <path transform="matrix(1 0 0 1 -229.5799 -145.76714)"  d="M629.8315 319.53625L627.39856 317.10242C 626.23846 315.942 624.35876 315.937 623.19244 317.09125L623.19244 317.09125L606.27765 332.70154C 605.6568 333.2512 605.2769 334.02295 605.22003 334.85025C 605.1838 335.68076 605.4946 336.4889 606.0782 337.08096L606.0782 337.08096L609.71216 340.755L609.7187 340.76154C 610.2803 341.32126 611.04004 341.6367 611.83295 341.63928L611.83295 341.63928L611.94293 341.63928C 612.7723 341.59268 613.549 341.21823 614.1019 340.59848L614.1019 340.59848L629.8212 323.761C 630.99066 322.60156 630.99884 320.71365 629.8394 319.54422L629.8394 319.54422L629.8315 319.53625z" stroke="none" fill="#FFFFFF" fill-rule="nonzero" />
    <path transform="matrix(1 0 0 1 -229.5799 -145.76714)"  d="M649.38416 314.6173L649.3553 314.58844L646.16205 311.4278C 645.7843 311.05127 645.2717 310.84125 644.7383 310.84448C 644.31036 310.84488 643.89343 310.97983 643.5465 311.23026C 643.5465 311.1902 643.5521 311.15106 643.5549 311.11658C 643.6838 310.3004 643.5116 309.4652 643.0703 308.76657C 642.3669 307.81833 641.5945 306.92325 640.75946 306.08856L640.75946 306.08856L640.752 306.08112C 638.4177 303.84155 635.6744 302.0719 632.6715 300.86868C 631.1021 300.2246 629.4219 299.8938 627.7255 299.89496C 625.5296 299.8751 623.3957 300.62253 621.6922 302.00827C 621.20734 302.4714 620.76514 302.97726 620.3709 303.51965C 619.98413 304.05347 619.99384 304.7779 620.3948 305.30115C 620.7957 305.82437 621.4926 306.02222 622.1087 305.78766C 622.37006 305.68997 622.637 305.60812 622.9082 305.5426C 623.473 305.42313 624.0522 305.38702 624.6274 305.43546C 625.8199 305.5599 626.9627 305.97903 627.95294 306.65515C 629.0779 307.60248 629.7052 309.0141 629.6544 310.4839C 629.24066 311.6624 628.6084 312.75238 627.79083 313.69672C 627.3401 314.29095 627.3978 315.12686 627.92596 315.65347L627.92596 315.65347L631.13226 318.85977C 631.6918 319.42056 632.59204 319.44592 633.1822 318.91754C 634.0888 318.10782 635.4697 316.88718 635.9524 316.58807C 636.36505 316.31204 636.83215 316.12775 637.32214 316.04764C 637.68726 316.0118 638.05457 316.08923 638.37415 316.2694C 638.37744 316.30167 638.36694 316.33377 638.3453 316.35794L638.3453 316.35794L638.1757 316.51913L638.1477 316.54523C 637.36316 317.32687 637.36084 318.5965 638.14246 319.381L638.14246 319.381L638.1524 319.3909L641.3447 322.5506C 641.7226 322.9269 642.2352 323.13657 642.7685 323.13297C 643.2987 323.1338 643.80804 322.9263 644.1867 322.55527L644.1867 322.55527L649.35815 317.44717C 649.37585 317.42947 649.39355 317.41083 649.41034 317.39218C 650.13 316.60324 650.1186 315.39255 649.38416 314.6173z" stroke="none" fill="#FFFFFF" fill-rule="nonzero" />
    <path transform="matrix(1 0 0 1 -229.5799 -145.76714)"  d="M284.04227 317.96872C 283.28772 317.9687 282.60748 317.51416 282.31876 316.81705C 282.03 316.11993 282.1896 315.31754 282.7231 314.784L282.7231 314.784L287.0006 310.50638L282.7231 306.22876C 281.9981 305.49957 281.99982 304.32132 282.72687 303.59424C 283.45395 302.8672 284.6322 302.86548 285.3614 303.59048L285.3614 303.59048L290.95816 309.18726C 291.30804 309.5371 291.5046 310.01163 291.5046 310.5064C 291.5046 311.0012 291.30804 311.4757 290.95816 311.82553L290.95816 311.82553L285.3614 317.4223C 285.01193 317.77267 284.5372 317.96933 284.04227 317.96872z" stroke="none" fill="#FFFFFF" fill-rule="nonzero" />
    <path transform="matrix(1 0 0 1 -229.5799 -145.76714)"  d="M254.19283 323.5655C 253.69804 323.5655 253.22351 323.36896 252.87364 323.01907C 252.52377 322.6692 252.32722 322.19467 252.32724 321.6999L252.32724 321.6999L252.32724 319.8343C 252.3577 313.66708 257.34805 308.67426 263.51523 308.64075L263.51523 308.64075L287.77347 308.64075C 288.44098 308.63928 289.0584 308.9945 289.3926 309.57236C 289.72678 310.15018 289.72678 310.86252 289.3926 311.44034C 289.0584 312.0182 288.44098 312.3734 287.77347 312.37192L287.77347 312.37192L263.52078 312.37192C 259.40744 312.39633 256.07977 315.7265 256.0584 319.83984L256.0584 319.83984L256.0584 321.69983C 256.05844 322.1946 255.8619 322.66916 255.51202 323.01904C 255.16216 323.36893 254.68762 323.5655 254.19283 323.5655z" stroke="none" fill="#FFFFFF" fill-rule="nonzero" />
    <path transform="matrix(1 0 0 1 -229.5799 -145.76714)"  d="M269.11755 338.4902C 268.62265 338.4908 268.1479 338.29416 267.7984 337.94376L267.7984 337.94376L262.20163 332.347C 261.85175 331.99713 261.65518 331.5226 261.65518 331.02783C 261.65518 330.53305 261.85175 330.05853 262.20163 329.7087L262.20163 329.7087L267.7984 324.11194C 268.5276 323.38696 269.70584 323.38867 270.43292 324.11572C 271.15997 324.8428 271.16168 326.02106 270.43668 326.7502L270.43668 326.7502L266.15915 331.02783L270.43668 335.30545C 270.97018 335.83902 271.1298 336.64142 270.84103 337.33853C 270.5523 338.03564 269.87207 338.49017 269.11752 338.49017L269.11752 338.49017L269.11755 338.4902z" stroke="none" fill="#FFFFFF" fill-rule="nonzero" />
    <path transform="matrix(1 0 0 1 -229.5799 -145.76714)"  d="M265.38635 332.89343C 264.35767 332.8911 263.52493 332.05655 263.52493 331.02783C 263.52493 329.9991 264.35767 329.16455 265.38635 329.16226L265.38635 329.16226L289.639 329.16226C 293.75235 329.13785 297.08002 325.80768 297.10138 321.69434L297.10138 321.69434L297.10138 319.83435C 297.1037 318.80566 297.93826 317.97293 298.96698 317.97293C 299.9957 317.97293 300.83026 318.80566 300.83255 319.83435L300.83255 319.83435L300.83255 321.69995C 300.8021 327.86716 295.81174 332.86 289.64456 332.8935L289.64456 332.8935L265.38635 332.89343z" stroke="none" fill="#FFFFFF" fill-rule="nonzero" />
</g>
</svg>