<?xml version="1.0" standalone="no"?>
<!DOCTYPE svg PUBLIC "-//W3C//DTD SVG 1.0//EN" "http://www.w3.org/TR/2001/REC-SVG-20010904/DTD/svg10.dtd">
<svg xmlns="http://www.w3.org/2000/svg" xmlns:xlink="http://www.w3.org/1999/xlink" id="body_1" width="1219" height="573">

<g transform="matrix(1.3262336 0 0 1.3262336 0.37276036 -0)">
    <path transform="matrix(1 0 0 1 -140.70892 -233.9747)"  d="M325.10062 540.37506C 319.46463 540.3815 314.89737 544.9488 314.89108 550.5848L314.89108 550.5848L314.89108 574.47046C 314.89737 580.10645 319.46463 584.67377 325.10062 584.6802L325.10062 584.6802L338.05035 584.6802C 343.68634 584.67377 348.2536 580.10645 348.2599 574.47046L348.2599 574.47046L348.2599 550.5848C 348.2536 544.9488 343.68634 540.3815 338.05035 540.37506L338.05035 540.37506L325.10062 540.37506z" stroke="none" fill="#3F3D56" fill-rule="nonzero" />
    <path transform="matrix(1 0 0 1 -140.70892 -233.9747)"  d="M564.48157 585.4747L551.5318 585.4747C 545.4572 585.4677 540.53455 580.545 540.5278 574.47046L540.5278 574.47046L540.5278 550.5848C 540.53455 544.5102 545.4572 539.58746 551.5318 539.58057L551.5318 539.58057L564.4815 539.58057C 570.5561 539.58746 575.47876 544.5102 575.48553 550.5848L575.48553 550.5848L575.48553 574.47046C 575.4787 580.5449 570.556 585.46765 564.48157 585.4747z" stroke="none" fill="#3F3D56" fill-rule="nonzero" />
    <path transform="matrix(1 0 0 1 -140.70892 -233.9747)"  d="M555.8891 566.35016L332.89853 566.35016C 322.7501 566.35016 314.4938 560.3674 314.4938 553.0137L314.4938 553.0137L314.4938 510.1338L325.56204 498.47745L565.37866 498.47745L574.2938 510.15823L574.2938 553.0137C 574.2938 560.3674 566.03754 566.35016 555.8891 566.35016z" stroke="none" fill="#CCCCCC" fill-rule="nonzero" />
    <path transform="matrix(1 0 0 1 -140.70892 -233.9747)"  d="M564.338 519.92883L326.83353 519.92883L324.42 482.92L325.95584 479.13303L334.88345 457.16376L554.6805 457.16376L566.7519 482.11124L564.338 519.92883z" stroke="none" fill="#CCCCCC" fill-rule="nonzero" />
    <path d="M425.64 248.216L423.868 276.023L371.614 276.023L371.614 255.366L424.154 245.149L425.64 248.216L425.64 248.216" stroke="none" fill="#FFFFFF" fill-rule="nonzero" />
    <path d="M237.345 255.366L237.345 276.023L185.877 276.023L184.113 249.01L185.615 245.308L237.345 255.366L237.345 255.366" stroke="none" fill="#FFFFFF" fill-rule="nonzero" />
    <path transform="matrix(1 0 0 1 -140.70892 -233.9747)"  d="M553.3557 463.51965L336.20572 463.51965L359.36633 386.3178C 361.3058 379.7713 367.30167 375.26578 374.12927 375.22437L374.12927 375.22437L517.9403 373.85455C 525.09045 373.7852 531.368 378.5966 533.1593 385.51904L533.1593 385.51904L553.3557 463.51965z" stroke="none" fill="#CCCCCC" fill-rule="nonzero" />
    <path transform="matrix(1 0 0 1 -140.70892 -233.9747)"  d="M536.63916 456.21967L352.887 454.04077C 352.4159 454.03516 351.9754 453.80634 351.69998 453.42407C 351.42456 453.04184 351.3469 452.55157 351.4907 452.10294L351.4907 452.10294L369.1062 397.14252C 369.30322 396.52786 369.87473 396.1109 370.5201 396.11093L370.5201 396.11093L518.31573 396.11093C 518.96094 396.11096 519.5323 396.52762 519.72943 397.14194L519.72943 397.14194L538.07043 454.28125C 538.2163 454.73584 538.1347 455.23285 537.85114 455.61694C 537.5675 456.001 537.1165 456.22528 536.63916 456.21967z" stroke="none" fill="#FFFFFF" fill-rule="nonzero" />
    <path transform="matrix(1 0 0 1 -140.70892 -233.9747)"  d="M469.5447 383.27563L420.01672 383.27563C 419.59937 383.27563 419.2208 382.8648 419.02878 382.20297C 418.83737 381.52545 418.86496 380.80475 419.10767 380.1438L419.10767 380.1438L423.1919 369.81537C 423.4001 369.28894 423.74 368.9747 424.10095 368.9747L424.10095 368.9747L465.4605 368.9747C 465.8215 368.9747 466.16138 369.28894 466.36957 369.81537L466.36957 369.81537L470.4538 380.1438C 470.6965 380.80475 470.7241 381.52545 470.53268 382.20297C 470.34064 382.86478 469.96207 383.27563 469.5447 383.27563z" stroke="none" fill="#5CE1E6" fill-rule="nonzero" />
    <path transform="matrix(1 0 0 1 -140.70892 -233.9747)"  d="M336.34244 461.93066L303.76813 461.93066L303.76813 454.7709C 303.7735 449.9516 307.67896 446.04614 312.49826 446.04077L312.49826 446.04077L336.34244 446.04077L336.34244 461.93066z" stroke="none" fill="#CCCCCC" fill-rule="nonzero" />
    <path transform="matrix(1 0 0 1 -140.70892 -233.9747)"  d="M585.814 461.93066L553.2397 461.93066L553.2397 446.04074L577.08386 446.04074C 581.9032 446.0461 585.80865 449.95157 585.814 454.77087L585.814 454.77087L585.814 461.93066z" stroke="none" fill="#CCCCCC" fill-rule="nonzero" />
    <path transform="matrix(0.94112 -0.33808 0.33808 0.94112 -331.60745 -123.85679)"  d="M136.06773 602.0833L305.27823 602.0833L305.27823 604.0829L136.06773 604.0829z" stroke="none" fill="#3F3D56" fill-rule="nonzero" />
    <path transform="matrix(0.33799562 -0.9411477 0.9411477 0.33799562 -266.14038 793.8701)"  d="M666.9095 518.4779L668.909 518.4779L668.909 687.6883L666.9095 687.6883z" stroke="none" fill="#3F3D56" fill-rule="nonzero" />
    <path transform="matrix(1 0 0 1 -140.70892 -233.9747)"  d="M453.63974 615.0253L444.10773 615.0253L444.10773 602.7137L453.63974 602.7137L453.63974 615.0253zM453.63974 590.4011L444.10773 590.4011L444.10773 578.0895L453.63974 578.0895z" stroke="none" fill="#E6E6E6" fill-rule="nonzero" />
    <path transform="matrix(1 0 0 1 -140.70892 -233.9747)"  d="M453.63974 666.0253L444.10773 666.0253L444.10773 653.7137L453.63974 653.7137L453.63974 666.0253zM453.63974 641.4011L444.10773 641.4011L444.10773 629.0895L453.63974 629.0895z" stroke="none" fill="#E6E6E6" fill-rule="nonzero" />
    <path d="M731.758 389.521L721.26 389.521L716.264 349.028L731.758 349.028L731.758 389.521L731.758 389.521" stroke="none" fill="#FFB8B8" fill-rule="nonzero" />
    <path transform="matrix(1 0 0 1 -140.70892 -233.9747)"  d="M875.1447 633.6723L841.294 633.6723L841.294 633.24414C 841.3022 625.9707 847.1965 620.0765 854.47 620.06824L854.47 620.06824L875.14465 620.06824L875.1447 633.6723z" stroke="none" fill="#2F2E41" fill-rule="nonzero" />
    <path d="M867.137 369.628L858.138 375.035L833.001 342.898L846.282 334.918L867.137 369.628L867.137 369.628" stroke="none" fill="#FFB8B8" fill-rule="nonzero" />
    <path transform="matrix(1 0 0 1 -140.70892 -233.9747)"  d="M986.36646 628.3805L986.1459 628.01337C 982.40717 621.7745 984.4239 613.6866 990.65405 609.93335L990.65405 609.93335L1008.37616 599.2859L1015.38245 610.9469L986.36646 628.3805z" stroke="none" fill="#2F2E41" fill-rule="nonzero" />
    <path transform="matrix(1 0 0 1 -140.70892 -233.9747)"  d="M875.19653 615.1394L875.0155 615.13855C 869.90845 615.12244 864.806 614.82874 859.73083 614.25885C 857.7964 614.06775 855.69806 613.86035 853.16986 613.653L853.16986 613.653L853.0831 613.6367C 851.35815 613.1241 851.3103 596.94653 852.04156 541.5713C 852.4162 513.2084 852.8406 481.06192 852.33527 460.5894L852.33527 460.5894L852.33026 460.38828L852.48224 460.25574C 871.20953 443.96738 895.25946 437.8615 920.20197 443.0634L920.20197 443.0634L920.38696 443.10187L920.48315 443.26453C 930.80096 460.72238 946.3795 485.86908 961.4451 510.18832C 996.0293 566.01434 1005.9206 582.43274 1004.83636 583.6712L1004.83636 583.6712L1004.7057 583.7724C 1002.3441 584.9532 1000.5711 585.8622 999.06354 586.6353C 994.01575 589.2235 991.9264 590.29474 980.70044 594.9175L980.70044 594.9175L980.4232 595.0316L980.22107 594.81C 945.12994 556.3578 915.92786 513.40454 897.86523 473.69714C 895.7545 487.25308 893.1927 504.95428 890.4858 523.6573C 882.7018 577.4395 877.441 612.854 875.3232 615.01025L875.3232 615.01025L875.19653 615.1394z" stroke="none" fill="#2F2E41" fill-rule="nonzero" />
    <path transform="matrix(1 0 0 1 -140.70892 -233.9747)"  d="M929.6997 288.87762C 933.23376 274.28568 936.2279 257.8275 929.5629 244.38815C 924.9385 235.06326 907.8309 231.92305 898.02405 235.28244C 888.2172 238.64183 881.12683 247.75612 878.0085 257.69354C 874.89014 267.63098 875.2525 278.3393 876.61163 288.66995C 894.64764 288.3235 912.6838 287.977 929.6997 288.87762z" stroke="none" fill="#2F2E41" fill-rule="nonzero" />
    <path d="M779.58636 33.86702C 779.58636 39.674835 777.53296 44.63212 773.4262 48.73886C 769.31946 52.845608 764.3622 54.89898 758.5544 54.89898C 752.7466 54.89898 747.7893 52.845608 743.68256 48.73886C 739.5758 44.63212 737.5224 39.674835 737.5224 33.86702C 737.5224 28.059206 739.5758 23.101925 743.68256 18.995178C 747.7893 14.888433 752.7466 12.835061 758.5544 12.83506C 764.3622 12.835061 769.31946 14.888433 773.4262 18.995178C 777.53296 23.101925 779.58636 28.059206 779.58636 33.86702C 779.58636 34.111763 779.5821 34.356434 779.57355 34.601025" stroke="none" fill="#FFB8B8" fill-rule="nonzero" />
    <path transform="matrix(1 0 0 1 -140.70892 -233.9747)"  d="M924.9747 263.50925C 925.1566 253.87112 920.07416 244.8991 911.7138 240.10002C 903.35345 235.30095 893.0428 235.43687 884.8118 240.45467C 876.5809 245.47246 871.7367 254.57535 872.17267 264.20532C 890.17444 264.24353 908.1762 264.28177 924.9747 263.50925z" stroke="none" fill="#2F2E41" fill-rule="nonzero" />
    <path transform="matrix(1 0 0 1 -140.70892 -233.9747)"  d="M884.65137 464.72626C 905.5757 464.633 926.3622 468.11316 946.1149 475.01666C 946.80255 441.86377 935.3886 408.64938 914.7514 383.80167L914.7514 383.80167L914.5971 383.61603L914.6761 383.38815C 920.1884 367.46063 925.8859 350.9975 930.977 334.61588L930.977 334.61588L930.89984 334.34076C 927.3293 321.647 919.66534 308.81982 907.4706 295.1255C 904.72516 292.28146 900.2444 292.05453 897.22577 294.6066C 875.5497 314.47745 863.7637 344.25024 866.46747 372.30707L866.46747 372.30707L866.4754 372.38943L866.4518 372.4693C 856.9029 404.81982 853.43646 421.436 850.3781 436.09622C 848.1472 446.79053 846.2155 456.0507 842.3372 469.28174C 856.23883 466.25702 870.4245 464.7298 884.65137 464.72626z" stroke="none" fill="#3F3D56" fill-rule="nonzero" />
    <path d="M774.749 128.486L743.685 196.115L725.939 178.152L774.749 128.486L774.749 128.486" stroke="none" fill="#000000" fill-rule="nonzero" fill-opacity="0.09803922" />
    <path transform="matrix(1 0 0 1 -140.70892 -233.9747)"  d="M845.7319 400.02472L847.89777 404.2331C 847.93915 404.31415 847.90735 404.41345 847.8266 404.45535L847.8266 404.45535L847.72217 404.5091L859.00494 426.432C 859.655 427.69534 859.15796 429.2465 857.8947 429.8967L857.8947 429.8967L844.1963 436.9467C 843.5897 437.2588 842.884 437.31714 842.2343 437.10892C 841.5847 436.9007 841.04443 436.44293 840.7323 435.83633L840.7323 435.83633L840.73224 435.83615L829.84515 414.68216L829.76953 414.72107C 829.71246 414.75055 829.64233 414.7283 829.6127 414.67133L829.6127 414.67133L828.38 412.2762C 828.3658 412.24872 828.36316 412.2167 828.37256 412.18723C 828.382 412.1577 828.4028 412.1332 828.43036 412.11902L828.43036 412.11902L828.506 412.0801L828.0417 411.17795L827.96545 411.2172C 827.9054 411.24786 827.83185 411.22406 827.8011 411.164L827.8011 411.164L826.58527 408.8016C 826.5547 408.7418 826.5782 408.6685 826.6378 408.6376L826.6378 408.6376L826.71405 408.59836L826.0802 407.36685L826.0027 407.40674C 825.9497 407.43408 825.8846 407.41333 825.85724 407.36038L825.85724 407.36038L825.8571 407.3601L825.19366 406.07092C 825.16614 406.01776 825.1868 405.95233 825.24 405.9247L825.24 405.9247L825.3175 405.8848L823.97406 403.2744C 823.3241 402.0114 823.821 400.4607 825.0839 399.81067L825.0839 399.81067L838.78235 392.76068C 840.0454 392.11066 841.5963 392.60736 842.2467 393.87024L842.2467 393.87024L845.40515 400.00723L845.5096 399.9535C 845.5907 399.912 845.69 399.94385 845.7319 400.02472z" stroke="none" fill="#3F3D56" fill-rule="nonzero" />
    <path transform="matrix(1 0 0 1 -140.70892 -233.9747)"  d="M841.3842 394.88632L858.0072 427.1854C 858.4192 427.98685 858.10376 428.97055 857.3025 429.38293L857.3025 429.38293L844.1897 436.1315C 843.3903 436.54468 842.40735 436.2316 841.9941 435.4322L841.9941 435.4322L841.9918 435.42776L825.3689 403.1287C 824.95636 402.32724 825.27167 401.3431 826.0731 400.93057L826.0731 400.93057L826.07324 400.9305L828.0358 399.92044L828.1654 400.17227C 828.32855 400.48923 828.61084 400.7284 828.9503 400.83716C 829.28973 400.94592 829.6585 400.91537 829.9754 400.75226L829.9754 400.75226L836.6442 397.3201C 837.3042 396.98044 837.56384 396.1701 837.22424 395.5101L837.22424 395.5101L837.09467 395.2583L839.18604 394.18195C 839.9872 393.7693 840.9711 394.0842 841.3838 394.8853L841.3838 394.8853L841.3842 394.88632z" stroke="none" fill="#5CE1E6" fill-rule="nonzero" />
    <path transform="matrix(1 0 0 1 -140.70892 -233.9747)"  d="M846.2021 434.34586C 848.74426 434.16898 851.0776 432.87512 852.5741 430.81247C 854.0706 428.7498 854.5766 426.13022 853.956 423.6586L853.956 423.6586L879.5518 406.88867L864.9543 400.58234L842.886 417.47418C 838.7113 418.82162 836.20416 423.07852 837.0502 427.38293C 837.89624 431.68735 841.828 434.6787 846.2021 434.34586z" stroke="none" fill="#FFB8B8" fill-rule="nonzero" />
    <path transform="matrix(1 0 0 1 -140.70892 -233.9747)"  d="M870.831 422.26468L870.5082 422.03638C 864.41656 417.55286 857.6539 412.9163 851.1138 408.43237L851.1138 408.43237L850.72095 408.16312L851.03033 407.80103C 864.9893 391.46918 878.9634 374.41022 892.47986 357.90775C 892.4694 357.8814 892.4609 357.86218 892.4539 357.8484L892.4539 357.8484L892.58124 357.78357L892.6352 357.71793L892.66406 357.74176L892.7456 357.70035L892.37726 357.7288L888.21124 325.0584C 884.44836 319.9251 883.7277 309.7334 888.65924 302.61905C 893.767 295.24924 904.5732 292.7827 911.7854 297.3386C 915.6125 299.9079 918.0643 304.07748 918.44904 308.67096C 918.99146 312.7625 917.65845 316.88037 914.82117 319.8779C 916.5919 337.16766 916.65967 352.6219 916.7255 367.5706L916.7255 367.5706L916.72614 367.71985L916.6337 367.84277C 902.2244 386.149 886.3966 404.35776 871.09 421.967L871.09 421.967L870.831 422.26468z" stroke="none" fill="#3F3D56" fill-rule="nonzero" />
    <path d="M351.08472 51.81103C 351.08472 64.8698 346.46777 76.01615 337.2338 85.25009C 327.99988 94.48404 316.85352 99.101006 303.79474 99.101C 290.736 99.101006 279.58963 94.48404 270.35568 85.25009C 261.12173 76.01615 256.50476 64.8698 256.50476 51.81103C 256.50476 38.752266 261.12173 27.605915 270.35568 18.371975C 279.58963 9.138033 290.736 4.521061 303.79474 4.521061C 316.85352 4.521061 327.99988 9.138033 337.2338 18.371975C 346.46777 27.605915 351.08472 38.752266 351.08472 51.81103C 351.08472 52.361332 351.07513 52.911465 351.0559 53.461426" stroke="none" fill="#5CE1E6" fill-rule="nonzero" />
    <path d="M299.288 71.773L285.134 53.574L293.365 47.172L300.067 55.789L322.707 31.889L330.278 39.062L299.288 71.773L299.288 71.773" stroke="none" fill="#FFFFFF" fill-rule="nonzero" />
    <path transform="matrix(1 0 0 1 -140.70892 -233.9747)"  d="M1058.2911 634.9747L819.29114 634.9747C 818.73883 634.9747 818.29114 634.527 818.29114 633.9747C 818.29114 633.42236 818.73883 632.9747 819.29114 632.9747L819.29114 632.9747L1058.2911 632.9747C 1058.8434 632.9747 1059.2911 633.42236 1059.2911 633.9747C 1059.2911 634.527 1058.8434 634.9747 1058.2911 634.9747z" stroke="none" fill="#3F3D56" fill-rule="nonzero" />
</g>
</svg>