<?xml version="1.0" standalone="no"?>
<!DOCTYPE svg PUBLIC "-//W3C//DTD SVG 1.0//EN" "http://www.w3.org/TR/2001/REC-SVG-20010904/DTD/svg10.dtd">
<svg xmlns="http://www.w3.org/2000/svg" xmlns:xlink="http://www.w3.org/1999/xlink" id="body_1" width="834" height="573">

<g transform="matrix(1.1365185 0 0 1.1365185 -0 0.22919051)">
	<g transform="matrix(1 0 0 1 -196.555 -165.086)">
        <path transform="matrix(1 0 0 1 -20.165 -123.12)"  d="M261.846 378.459C 245.71762 378.46863 230.81024 369.86978 222.74327 355.90378C 214.67628 341.9378 214.6763 324.7282 222.74327 310.7622C 230.81026 296.7962 245.71762 288.1974 261.846 288.20703L261.846 288.20703L672.56 288.20703C 688.68195 288.20703 703.5793 296.808 711.64026 310.77005C 719.70123 324.7321 719.70123 341.93402 711.64026 355.89606C 703.5793 369.8581 688.68195 378.45905 672.56 378.45905L672.56 378.45905L261.846 378.459z" stroke="none" fill="#E6E6E6" fill-rule="nonzero" />
        <path transform="matrix(1 0 0 1 -23.279 -126.234)"  d="M264.96 297.207C 243.28833 297.20703 225.71999 314.77536 225.71999 336.44702C 225.71999 358.11868 243.28833 375.687 264.96 375.687L264.96 375.687L675.674 375.687C 689.6931 375.687 702.6473 368.20792 709.65686 356.06702C 716.6664 343.92612 716.6664 328.96793 709.65686 316.82703C 702.6473 304.68613 689.6931 297.20703 675.674 297.207L675.674 297.207L264.96 297.207z" stroke="none" fill="#FFFFFF" fill-rule="nonzero" />
        <path transform="matrix(1 0 0 1 364.961 170.972)"  d="M0 0L1.308 0L1.308 78.48L0 78.48z" stroke="none" fill="#E6E6E6" fill-rule="nonzero" />
        <path transform="matrix(1 0 0 1 527.808 170.972)"  d="M0 0L1.308 0L1.308 78.48L0 78.48z" stroke="none" fill="#E6E6E6" fill-rule="nonzero" />
        <path transform="matrix(1 0 0 1 366.269 170.972)"  d="M0 0L161.539 0L161.539 78.48L0 78.48z" stroke="none" fill="#5CE1E6" fill-rule="nonzero" />
        <path transform="matrix(1 0 0 1 170.844 -20.53)"  d="M276.268 206.815C 266.5609 206.815 257.80963 212.66241 254.0949 221.6306C 250.38016 230.59879 252.43349 240.92162 259.29745 247.78557C 266.1614 254.64952 276.48422 256.70285 285.4524 252.98811C 294.4206 249.27336 300.268 240.5221 300.268 230.815C 300.268 217.56017 289.52283 206.815 276.268 206.815zM276.268 214.015C 280.24448 214.015 283.46802 217.23856 283.46802 221.21501C 283.468 225.19145 280.24445 228.415 276.268 228.415C 272.29153 228.415 269.068 225.19144 269.068 221.215C 269.06857 217.23895 272.29196 214.016 276.268 214.016zM276.268 248.677C 270.49344 248.65054 265.10437 245.7745 261.868 240.992C 261.983 236.192 271.46802 233.55 276.268 233.55C 281.068 233.55 290.553 236.192 290.668 240.992C 287.4282 245.77065 282.04132 248.64551 276.268 248.677z" stroke="none" fill="#FFFFFF" fill-rule="nonzero" />
        <path transform="matrix(1 0 0 1 -336.439 -20.53)"  d="M620.7 206.815C 610.9929 206.815 602.24164 212.66241 598.5269 221.6306C 594.81213 230.59879 596.8655 240.92162 603.72943 247.78557C 610.5934 254.64952 620.9162 256.70285 629.8844 252.98811C 638.8526 249.27336 644.7 240.5221 644.7 230.815C 644.7 217.56017 633.95483 206.815 620.7 206.815zM620.7 214.015C 624.6764 214.015 627.89996 217.23856 627.89996 221.21501C 627.89996 225.19145 624.6764 228.415 620.69995 228.415C 616.7235 228.415 613.49994 225.19144 613.5 221.215C 613.49994 219.30544 614.25854 217.47409 615.60876 216.12383C 616.95905 214.77356 618.7904 214.015 620.7 214.015zM620.7 248.677C 614.9254 248.65056 609.5364 245.77452 606.3 240.992C 606.415 236.192 615.89996 233.55 620.7 233.55C 625.50006 233.55 634.985 236.192 635.10004 240.992C 631.86017 245.77065 626.4733 248.64551 620.7 248.677z" stroke="none" fill="#E6E6E6" fill-rule="nonzero" />
        <path transform="matrix(1 0 0 1 -10.892 -20.53)"  d="M620.7 206.815C 610.9929 206.815 602.24164 212.66241 598.5269 221.6306C 594.81213 230.59879 596.8655 240.92162 603.72943 247.78557C 610.5934 254.64952 620.9162 256.70285 629.8844 252.98811C 638.8526 249.27336 644.7 240.5221 644.7 230.815C 644.7 217.56017 633.95483 206.815 620.7 206.815zM620.7 214.015C 624.6764 214.015 627.89996 217.23856 627.89996 221.21501C 627.89996 225.19145 624.6764 228.415 620.69995 228.415C 616.7235 228.415 613.49994 225.19144 613.5 221.215C 613.49994 219.30544 614.25854 217.47409 615.60876 216.12383C 616.95905 214.77356 618.7904 214.015 620.7 214.015zM620.7 248.677C 614.9254 248.65056 609.5364 245.77452 606.3 240.992C 606.415 236.192 615.89996 233.55 620.7 233.55C 625.50006 233.55 634.985 236.192 635.10004 240.992C 631.86017 245.77065 626.4733 248.64551 620.7 248.677z" stroke="none" fill="#E6E6E6" fill-rule="nonzero" />
        <path transform="matrix(1 0 0 1 419.112 288.229)"  d="M0 6C 0 2.6862915 2.6862915 0 6 0L6 0L50 0C 53.31371 0 56 2.6862915 56 6L56 6L56 50C 56 53.31371 53.31371 56 50 56L50 56L6 56C 2.6862915 56 0 53.31371 0 50L0 50L0 6z" stroke="none" fill="#5CE1E6" fill-rule="nonzero" />
        <path transform="matrix(1 0 0 1 661.497 632.854)"  d="M0 18C 0 8.058874 60.190384 0 134.439 0C 208.6876 0 268.878 8.058874 268.878 18C 268.878 27.941126 208.6876 36 134.439 36C 60.190384 36 0 27.941126 0 18" stroke="none" fill="#E6E6E6" fill-rule="nonzero" />
        <path transform="matrix(1 0 0 1 581.812 288.049)"  d="M0 6C 0 2.6862915 2.6862915 0 6 0L6 0L50 0C 53.31371 0 56 2.6862915 56 6L56 6L56 50C 56 53.31371 53.31371 56 50 56L50 56L6 56C 2.6862915 56 0 53.31371 0 50L0 50L0 6z" stroke="none" fill="#E6E6E6" fill-rule="nonzero" />
        <path transform="matrix(1 0 0 1 589.812 295.83)"  d="M0 0L40.798 0L40.798 40.798L0 40.798z" stroke="none" fill="#FFFFFF" fill-rule="nonzero" />
        <path transform="matrix(1 0 0 1 191.14 106.158)"  d="M253.345 218.766L246.27 209.666L250.384 206.466L253.73401 210.77301L265.052 198.82701L268.837 202.41202L253.345 218.766z" stroke="none" fill="#FFFFFF" fill-rule="nonzero" />
        <path transform="matrix(1 0 0 1 182.106 106.158)"  d="M425.345 218.766L418.27 209.666L422.384 206.466L425.734 210.77301L437.051 198.82701L440.836 202.41202L425.345 218.766z" stroke="none" fill="#E6E6E6" fill-rule="nonzero" />
        <path transform="matrix(1 0 0 1 256.265 288.049)"  d="M0 6C 0 2.6862915 2.6862915 0 6 0L6 0L50 0C 53.31371 0 56 2.6862915 56 6L56 6L56 50C 56 53.31371 53.31371 56 50 56L50 56L6 56C 2.6862915 56 0 53.31371 0 50L0 50L0 6z" stroke="none" fill="#E6E6E6" fill-rule="nonzero" />
        <path transform="matrix(1 0 0 1 264.265 295.83)"  d="M0 0L40.798 0L40.798 40.798L0 40.798z" stroke="none" fill="#FFFFFF" fill-rule="nonzero" />
        <path transform="matrix(1 0 0 1 -143.441 106.158)"  d="M425.345 218.766L418.27 209.666L422.384 206.466L425.734 210.77301L437.051 198.82701L440.836 202.41202L425.345 218.766z" stroke="none" fill="#E6E6E6" fill-rule="nonzero" />
		<g>
            <path transform="matrix(1 0 0 1 545.904 239.259)"  d="M340.66 397.363L327.48 397.363L321.212 346.526L340.664 346.526L340.66 397.363z" stroke="none" fill="#FFB8B8" fill-rule="nonzero" />
            <path transform="matrix(1 0 0 1 543.364 245.5)"  d="M320.6 387.355L346.018 387.355L346.018 403.355L304.6 403.355C 304.6 394.51846 311.76346 387.355 320.6 387.355z" stroke="none" fill="#2F2E41" fill-rule="nonzero" />
            <path transform="matrix(1 0 0 1 528.049 239.259)"  d="M223.865 397.363L210.685 397.363L204.41699 346.526L223.86899 346.526L223.865 397.363z" stroke="none" fill="#FFB8B8" fill-rule="nonzero" />
            <path transform="matrix(1 0 0 1 525.51 245.5)"  d="M203.81 387.355L229.228 387.355L229.228 403.355L187.806 403.355C 187.806 394.51846 194.96944 387.355 203.806 387.355L203.806 387.355L203.81 387.355z" stroke="none" fill="#2F2E41" fill-rule="nonzero" />
            <path transform="matrix(1 0 0 1 308.465 9.946)"  d="M487.471 249.585L487.471 243.82C 487.471 223.28606 504.11707 206.64001 524.651 206.64001C 545.1849 206.64001 561.83093 223.28606 561.831 243.82L561.831 243.82L561.831 249.58401C 561.831 264.38522 549.8322 276.384 535.031 276.384L535.031 276.384L514.275 276.384C 499.4738 276.384 487.47504 264.38525 487.47504 249.584L487.47504 249.584L487.471 249.585z" stroke="none" fill="#2F2E41" fill-rule="nonzero" />
            <path transform="matrix(1 0 0 1 804.801 231.687)"  d="M0 28.316C 0 12.677505 12.677505 0 28.316 0C 43.954494 0 56.632 12.677505 56.632 28.316C 56.632 43.954494 43.954494 56.632 28.316 56.632C 12.677505 56.632 0 43.954494 0 28.316" stroke="none" fill="#FFB8B8" fill-rule="nonzero" />
            <path transform="matrix(1 0 0 1 292.514 28.216)"  d="M386.583 329.1C 388.90924 326.90387 392.08868 325.85074 395.266 326.224C 398.44327 326.59723 401.2921 328.35852 403.04602 331.034L403.04602 331.034L427.31903 326.443L433.70703 340.513L399.33704 346.513C 394.5423 349.2148 388.48474 347.90634 385.23273 343.46634C 381.98068 339.02634 382.5606 332.8563 386.583 329.1z" stroke="none" fill="#FFB8B8" fill-rule="nonzero" />
            <path transform="matrix(1 0 0 1 295.954 21.634)"  d="M515.087 284.516L515.404 284.99698L475.604 311.218L408.44 332.66498C 406.6039 333.2548 405.43976 335.059 405.659 336.97498L405.659 336.97498L407.124 349.59497C 407.25543 350.7244 407.8572 351.746 408.7813 352.40854C 409.7054 353.07104 410.86612 353.31305 411.978 353.07498L411.978 353.07498L475.19 339.52597C 478.24976 338.8741 481.14294 337.60043 483.69 335.78397L483.69 335.78397L528.4 303.969C 533.5056 300.33087 534.75653 293.27374 531.21246 288.10242C 527.6684 282.9311 520.6354 281.5512 515.4 285L515.4 285L515.087 284.516z" stroke="none" fill="#CCCCCC" fill-rule="nonzero" />
            <path transform="matrix(1 0 0 1 299.543 31.32)"  d="M574.076 590.876C 572.0084 590.8766 570.13617 589.6542 569.305 587.761L569.305 587.761L508.884 438.461C 508.59525 437.7976 507.924 437.38416 507.20163 437.42474C 506.47928 437.46536 505.85858 437.95142 505.646 438.643L505.646 438.643L456.351 583.993C 455.93042 585.36017 454.96408 586.49304 453.68036 587.124C 452.39664 587.755 450.9094 587.82806 449.57 587.326L449.57 587.326L433.04 581.126C 431.2103 580.44617 429.91876 578.7946 429.7 576.855C 422.263 512.073 487.113 348.555 487.769 346.909L487.769 346.909L487.95102 346.454L547.067 359.531L547.19 359.665C 570.775 385.39502 590.161 547.677 593.808 579.948C 594.0879 582.3488 592.66473 584.62256 590.383 585.42L590.383 585.42L575.792 590.57996C 575.2409 590.77515 574.6606 590.8749 574.076 590.87494L574.076 590.87494L574.076 590.876z" stroke="none" fill="#2F2E41" fill-rule="nonzero" />
            <path transform="matrix(1 0 0 1 307.138 20.219)"  d="M515.547 375.9C 501.224 375.9 485.25598 373.044 480.341 361.258L480.341 361.258L480.228 360.987L480.381 360.736C 484.26102 354.37 489.388 343.512 486.63202 341.473C 481.20303 337.45898 478.56802 330.85498 478.80203 321.845C 479.31003 302.286 492.63702 284.92 511.96503 278.633C 517.36005 276.9063 522.85 275.49268 528.408 274.399C 536.6126 272.74368 545.1274 274.8465 551.61804 280.13098C 558.1902 285.4502 562.0371 293.4313 562.10406 301.886C 562.3041 322.78598 559.08905 351.901 542.60406 371.886C 541.83136 372.8133 540.7563 373.4383 539.56805 373.651C 531.64 375.08606 523.6035 375.8385 515.547 375.9z" stroke="none" fill="#CCCCCC" fill-rule="nonzero" />
            <path transform="matrix(1 0 0 1 311.251 30.487)"  d="M506.106 364.845C 507.72833 359.02557 513.7346 355.5982 519.57 357.162C 520.14233 357.3219 520.70056 357.52863 521.239 357.78L521.239 357.78L539.669 341.007L552.487 349.642L526.13 372.966C 523.6805 377.3805 518.54047 379.56088 513.664 378.254C 510.8755 377.49084 508.50784 375.64444 507.08826 373.1259C 505.66867 370.60733 505.315 367.62576 506.106 364.845z" stroke="none" fill="#FFB8B8" fill-rule="nonzero" />
            <path transform="matrix(1 0 0 1 313.718 21.67)"  d="M534.283 373.874C 533.08575 373.87427 531.92554 373.45938 531 372.7L531 372.7L523.732 366.76102C 522.5045 365.75787 521.80304 364.2486 521.8276 362.66354C 521.8521 361.07852 522.6 359.59167 523.858 358.627L523.858 358.627L554.342 335.247C 555.0942 334.66754 555.24 333.59067 554.669 332.832L554.669 332.832L535.854 307.957C 531.3403 302.00977 531.7724 293.6745 536.877 288.226C 542.2755 282.3957 551.2426 281.67865 557.499 286.57703L557.499 286.57703L557.61804 286.70303L577.265 314.83603C 581.5719 318.21265 584.05286 323.40833 583.97144 328.88043C 583.89 334.35254 581.2555 339.47205 576.85004 342.71902L576.85004 342.71902L537.369 372.85303C 536.4748 373.51337 535.3926 373.86978 534.281 373.87003L534.281 373.87003L534.283 373.874z" stroke="none" fill="#CCCCCC" fill-rule="nonzero" />
            <path transform="matrix(1 0 0 1 310.07 11.332)"  d="M497.965 240.705L497.965 226.656L523.047 215.7L546.963 226.652L546.963 240.70099C 546.963 241.31258 546.72003 241.89912 546.28754 242.33159C 545.8551 242.76405 545.26855 243.007 544.657 243.00699L544.657 243.00699L500.271 243.00699C 498.99744 243.00699 497.965 241.97456 497.965 240.70099L497.965 240.70099L497.965 240.705z" stroke="none" fill="#2F2E41" fill-rule="nonzero" />
            <path transform="matrix(1 0 0 1 838.852 199.377)"  d="M31.444 15.722C 31.444 20.06351 29.909046 23.769222 26.839134 26.839134C 23.769222 29.909046 20.06351 31.444 15.722 31.444C 11.380489 31.444 7.674779 29.909046 4.604867 26.839134C 1.5349557 23.769222 0 20.06351 0 15.722C 0 11.380489 1.5349557 7.674779 4.604867 4.604867C 7.674779 1.5349557 11.380489 0 15.722 0C 20.06351 0 23.769222 1.5349557 26.839134 4.604867C 29.909046 7.674779 31.444 11.380489 31.444 15.722C 31.444 15.904953 31.44081 16.087849 31.434423 16.27069" stroke="none" fill="#2F2E41" fill-rule="nonzero" />
            <path transform="matrix(1 0 0 1 -56.438 -12.141)"  d="M896.5 218.806C 896.4977 214.096 898.6081 209.63329 902.25006 206.64665C 905.8921 203.66 910.68164 202.4644 915.3 203.389C 909.80566 200.80011 903.3114 201.60907 898.6202 205.46672C 893.9289 209.32437 891.8806 215.54 893.3593 221.43091C 894.838 227.32181 899.579 231.83322 905.536 233.018C 900.02606 230.4307 896.50684 224.89313 896.504 218.806L896.504 218.806L896.5 218.806z" stroke="none" fill="#2F2E41" fill-rule="nonzero" />
		</g>
	</g>
</g>
</svg>