<?xml version="1.0" standalone="no"?>
<!DOCTYPE svg PUBLIC "-//W3C//DTD SVG 1.0//EN" "http://www.w3.org/TR/2001/REC-SVG-20010904/DTD/svg10.dtd">
<svg xmlns="http://www.w3.org/2000/svg" xmlns:xlink="http://www.w3.org/1999/xlink" id="body_1" width="959" height="573">

<g transform="matrix(1.1016296 0 0 1.1016296 0.29117474 -0)">
    <path transform="matrix(1 0 0 1 -165.00003 -189.93073)"  d="M831.0924 704.1874C 819.9541 694.7756 813.1885 679.9077 814.96277 665.4337C 816.73706 650.9597 827.7263 637.6537 841.9811 634.5801C 856.23584 631.5065 872.4852 640.0147 876.8149 653.93945C 879.1977 627.0931 881.9434 599.1219 896.2167 576.2597C 909.14075 555.55853 931.52545 540.7461 955.78546 538.0961C 980.0455 535.44617 1005.58813 545.4547 1020.7182 564.60284C 1035.8483 583.751 1039.5529 611.5883 1028.956 633.57196C 1021.14984 649.76654 1006.76807 661.8187 991.69946 671.6238C 943.0075 703.0405 884.6079 715.81647 827.2457 707.6009L827.2457 707.6009L831.0924 704.1874z" stroke="none" fill="#F2F2F2" fill-rule="nonzero" />
    <path transform="matrix(1 0 0 1 -165.00003 -189.93073)"  d="M996.7279 546.0095C 976.7106 562.31384 958.34625 580.54956 941.9017 600.4518C 916.1655 631.49243 895.3398 666.2943 880.14966 703.64575C 879.03766 706.3706 883.4624 707.55676 884.56195 704.8622C 909.4158 644.15845 949.09247 590.655 999.96344 549.24506C 1002.2478 547.3849 998.99347 544.16473 996.7279 546.0095z" stroke="none" fill="#FFFFFF" fill-rule="nonzero" />
    <path transform="matrix(1 0 0 1 -165.00003 -189.93073)"  d="M445.0671 701.6301C 460.3656 688.703 469.6581 668.282 467.2212 648.402C 464.78427 628.522 449.6904 610.2461 430.11154 606.0245C 410.53268 601.80286 388.21408 613.48895 382.26733 632.6146C 378.99457 595.74115 375.22327 557.3227 355.61896 525.92145C 337.86774 497.48843 307.1223 477.14343 273.80118 473.50378C 240.48004 469.86414 205.39722 483.61078 184.61606 509.9108C 163.8349 536.2108 158.74672 574.4454 173.3013 604.6399C 184.02315 626.8831 203.77658 643.4368 224.47325 656.9041C 290.5028 699.8694 372.41235 717.7886 450.35056 706.31866" stroke="none" fill="#F2F2F2" fill-rule="nonzero" />
    <path transform="matrix(1 0 0 1 -165.00003 -189.93073)"  d="M217.56676 484.3728C 245.06085 506.76712 270.28366 531.81335 292.8706 559.1493C 315.46112 586.4573 335.34946 615.8918 352.25665 647.04C 361.707 664.5127 370.19635 682.48804 377.68707 700.8863C 379.21432 704.62885 373.1371 706.258 371.62677 702.55707C 358.35898 670.1213 341.94412 639.0638 322.61777 609.8301C 303.38538 580.7024 281.3725 553.50867 256.889 528.63165C 243.041 514.5679 228.43022 501.27625 213.12274 488.8168C 209.98515 486.26187 214.45506 481.83893 217.56674 484.3728L217.56674 484.3728L217.56676 484.3728z" stroke="none" fill="#FFFFFF" fill-rule="nonzero" />
    <path transform="matrix(1 0 0 1 -165.00003 -189.93073)"  d="M789.5 708.9307L424.5 708.9307L424.5 334.43073C 424.5 254.75299 489.32227 189.93073 568.99976 189.93073L568.99976 189.93073L645.00024 189.93073C 724.67773 189.93073 789.5 254.75299 789.5 334.43073L789.5 334.43073L789.5 708.9307z" stroke="none" fill="#F2F2F2" fill-rule="nonzero" />
    <path transform="matrix(1 0 0 1 -165.00003 -189.93073)"  d="M713.5 708.9307L424.5 708.9307L424.5 334.43073C 424.42023 303.90005 434.088 274.14102 452.0957 249.48639C 452.75952 248.5816 453.42163 247.68854 454.1045 246.80524C 462.81473 235.38126 473.18008 225.32043 484.85864 216.95465C 485.5183 216.47466 486.18063 216.00299 486.85278 215.53131C 496.62506 208.76869 507.1959 203.24045 518.32495 199.07231C 518.98584 198.82182 519.6587 198.57085 520.33154 198.33012C 530.3967 194.7382 540.8304 192.27776 551.43994 190.9942C 552.09766 190.90436 552.77295 190.83405 553.44824 190.76373C 563.7872 189.65826 574.2148 189.65826 584.5537 190.76373C 585.22705 190.83405 585.90234 190.90436 586.5679 190.99518C 597.1746 192.27881 607.6057 194.73898 617.6682 198.33018C 618.3413 198.5709 619.0142 198.82188 619.677 199.07286C 630.66876 203.18842 641.11523 208.63419 650.78345 215.28868C 651.4551 215.7501 652.12744 216.22179 652.7898 216.69347C 659.33594 221.36624 665.4846 226.57188 671.17334 232.25746C 675.7353 236.81792 679.9862 241.67899 683.8977 246.80824C 684.57837 247.68861 685.2405 248.58168 685.9031 249.485C 703.9115 274.13986 713.5797 303.89948 713.5 334.43073L713.5 334.43073L713.5 708.9307z" stroke="none" fill="#CCCCCC" fill-rule="nonzero" />
    <path d="M540.99994 335.5C 540.99994 339.91827 539.43787 343.6895 536.31366 346.81372C 533.1895 349.93793 529.4183 351.5 524.99994 351.5C 520.58167 351.5 516.8104 349.93793 513.6862 346.81372C 510.56207 343.6895 508.99997 339.91827 508.99994 335.5C 508.99997 331.08173 510.56207 327.3105 513.6862 324.18628C 516.8104 321.0621 520.58167 319.5 524.99994 319.5C 529.4183 319.5 533.1895 321.0621 536.31366 324.18628C 539.43787 327.3105 540.99994 331.08173 540.99994 335.5C 540.99994 335.6862 540.9967 335.8723 540.9902 336.05838" stroke="none" fill="#5CE1E6" fill-rule="nonzero" />
    <path d="M594.599 507.783L582.339 507.783L576.506 460.495L594.601 460.496L594.599 507.783L594.599 507.783" stroke="none" fill="#FFB8B8" fill-rule="nonzero" />
    <path d="M573.58167 504.27982L597.2255 504.27982L597.2255 504.27982L597.2255 504.27982L597.2255 504.27982L597.2255 519.1667L597.2255 519.1667L597.2255 519.1667L597.2255 519.1667L558.69476 519.1667L558.69476 519.1667L558.69476 519.1667C 558.6947 515.21844 560.2632 511.4319 563.055 508.64008C 565.84686 505.84824 569.63336 504.27982 573.58167 504.27982z" stroke="none" fill="#2F2E41" fill-rule="nonzero" />
    <path d="M655.599 507.783L643.339 507.783L637.506 460.495L655.601 460.496L655.599 507.783L655.599 507.783" stroke="none" fill="#FFB8B8" fill-rule="nonzero" />
    <path d="M634.58167 504.27982L658.2255 504.27982L658.2255 504.27982L658.2255 504.27982L658.2255 504.27982L658.2255 519.1667L658.2255 519.1667L658.2255 519.1667L658.2255 519.1667L619.69476 519.1667L619.69476 519.1667L619.69476 519.1667C 619.6947 515.21844 621.2632 511.4319 624.055 508.64008C 626.84686 505.84824 630.63336 504.27982 634.58167 504.27982z" stroke="none" fill="#2F2E41" fill-rule="nonzero" />
    <path transform="matrix(1 0 0 1 -165.00003 -189.93073)"  d="M698.0976 528.60034C 696.31213 525.96985 695.78357 522.6836 696.6541 519.62585C 697.52466 516.5681 699.70483 514.05304 702.6081 512.75726L702.6081 512.75726L744.2839 397.8906L764.791 409.082L717.20624 518.8527C 719.10114 523.987 716.85657 529.7271 711.98145 532.214C 707.1063 534.70087 701.14166 533.1484 698.0976 528.60034z" stroke="none" fill="#FFB8B8" fill-rule="nonzero" />
    <path transform="matrix(1 0 0 1 -165.00003 -189.93073)"  d="M814.3364 550.1843C 811.57837 548.603 809.66235 545.8813 809.104 542.75146C 808.5456 539.62164 809.4022 536.4052 811.44336 533.9677L811.44336 533.9677L798.53265 412.4583L821.8704 413.52454L827.2361 533.045C 831.1904 536.82837 831.69 542.9715 828.399 547.3442C 825.108 551.71686 819.0665 552.937 814.3365 550.1843L814.3365 550.1843L814.3364 550.1843z" stroke="none" fill="#FFB8B8" fill-rule="nonzero" />
    <path d="M636.6668 162.12254C 636.6668 168.90488 634.2689 174.69397 629.473 179.4898C 624.67725 184.28566 618.8881 186.68358 612.1058 186.68358C 605.3234 186.68358 599.53436 184.28566 594.7385 179.4898C 589.9427 174.69397 587.54474 168.90488 587.54474 162.12254C 587.54474 155.34021 589.9427 149.55112 594.7385 144.75528C 599.53436 139.95944 605.3234 137.56151 612.1058 137.56151C 618.8881 137.56151 624.67725 139.95944 629.473 144.75528C 634.2689 149.55112 636.6668 155.34021 636.6668 162.12254C 636.6668 162.40836 636.66187 162.69408 636.65186 162.9797" stroke="none" fill="#FFB8B8" fill-rule="nonzero" />
    <path transform="matrix(1 0 0 1 -165.00003 -189.93073)"  d="M814.17957 522.5494L740.1327 522.5494L740.2218 521.9732C 740.35486 521.1119 753.4186 435.5342 743.78357 407.5372C 741.78125 401.8393 744.3993 395.54865 749.8529 392.9537L749.8529 392.9537L749.85315 392.9537C 763.6249 386.46835 790.06067 378.4825 812.37317 397.86288C 819.03 403.74008 822.53406 412.4066 821.83264 421.25888L821.83264 421.25888L814.17957 522.5494z" stroke="none" fill="#5CE1E6" fill-rule="nonzero" />
    <path transform="matrix(1 0 0 1 -165.00003 -189.93073)"  d="M754.3544 448.1812L721.0177 441.418L736.6439 404.3882C 738.5904 396.91992 746.21466 392.43634 753.68744 394.3655C 761.1603 396.29468 765.6615 403.90854 763.74963 411.38577L763.74963 411.38577L754.3544 448.1812z" stroke="none" fill="#5CE1E6" fill-rule="nonzero" />
    <path transform="matrix(1 0 0 1 -165.00003 -189.93073)"  d="M797.0504 460.73883L795.04626 414.79742C 793.5265 406.1612 798.47034 397.99713 806.0736 396.66266C 813.6791 395.33307 821.10535 401.3228 822.63196 410.02252L822.63196 410.02252L830.165 452.95026L797.0504 460.73883z" stroke="none" fill="#5CE1E6" fill-rule="nonzero" />
    <path transform="matrix(1 0 0 1 -165.00003 -189.93073)"  d="M811.71606 517.0493C 823.6306 562.426 824.9304 620.1187 821.71606 683.0493L821.71606 683.0493L805.71606 681.0493L776.71606 561.0493L760.71606 683.0493L742.71606 682.0493C 737.3386 616.0196 732.1028 559.33405 740.71606 522.0493L740.71606 522.0493L811.71606 517.0493z" stroke="none" fill="#2F2E41" fill-rule="nonzero" />
    <path transform="matrix(1 0 0 1 -165.00003 -189.93073)"  d="M793.2891 371.03473C 788.70715 375.91553 780.1978 373.2954 779.60077 366.62756C 779.55396 366.1099 779.5573 365.58893 779.6109 365.07187C 779.9192 362.1183 781.6255 359.4368 781.2168 356.31827C 781.12427 355.5421 780.8351 354.80243 780.3767 354.16934C 776.72546 349.28 768.1544 356.3562 764.7085 351.93005C 762.5955 349.21606 765.0793 344.94293 763.4578 341.90955C 761.31775 337.90598 754.979 339.88095 751.00397 337.6884C 746.58124 335.2489 746.84576 328.46313 749.7571 324.3357C 753.3076 319.3021 759.5328 316.61618 765.6804 316.2291C 771.82806 315.842 777.93335 317.50385 783.6727 319.74054C 790.19385 322.2819 796.6604 325.79404 800.6734 331.52808C 805.5536 338.50125 806.02325 347.876 803.5826 356.02982C 802.09784 360.98987 797.03076 367.04907 793.2891 371.03473z" stroke="none" fill="#2F2E41" fill-rule="nonzero" />
    <path transform="matrix(1 0 0 1 -165.00003 -189.93073)"  d="M1004.9816 709.57416L266.68762 709.57416C 266.03244 709.57074 265.5031 709.03864 265.5031 708.3835C 265.5031 707.72833 266.03244 707.1962 266.68762 707.1928L266.68762 707.1928L1004.9816 707.1928C 1005.6368 707.1962 1006.1661 707.72833 1006.1661 708.3835C 1006.1661 709.03864 1005.6368 709.57074 1004.9816 709.57416z" stroke="none" fill="#3F3D56" fill-rule="nonzero" />
    <path transform="matrix(1 0 0 1 -165.00003 -189.93073)"  d="M634 600.4307L504 600.4307C 500.43527 600.44995 497.5276 597.58014 497.5 594.01544L497.5 594.01544L497.5 303.846C 497.52756 300.2813 500.43524 297.4115 504 297.4307L504 297.4307L634 297.4307C 637.56476 297.4115 640.4724 300.2813 640.5 303.846L640.5 303.846L640.5 594.01544C 640.4724 597.58014 637.56476 600.44995 634 600.4307z" stroke="none" fill="#FFFFFF" fill-rule="nonzero" />
    <path d="M332.49994 201.38965L475.49994 201.38965L475.49994 203.38965L332.49994 203.38965z" stroke="none" fill="#CCCCCC" fill-rule="nonzero" />
    <path d="M332.99994 315.5L475.99994 315.5L475.99994 317.5L332.99994 317.5z" stroke="none" fill="#CCCCCC" fill-rule="nonzero" />
    <path d="M377.49994 107.5L379.49994 107.5L379.49994 411.5L377.49994 411.5z" stroke="none" fill="#CCCCCC" fill-rule="nonzero" />
    <path d="M427.49994 107.5L429.49994 107.5L429.49994 411.5L427.49994 411.5z" stroke="none" fill="#CCCCCC" fill-rule="nonzero" />
</g>
</svg>