<?xml version="1.0" standalone="no"?>
<!DOCTYPE svg PUBLIC "-//W3C//DTD SVG 1.0//EN" "http://www.w3.org/TR/2001/REC-SVG-20010904/DTD/svg10.dtd">
<svg xmlns="http://www.w3.org/2000/svg" xmlns:xlink="http://www.w3.org/1999/xlink" id="body_1" width="608" height="573">

<g transform="matrix(1.1624165 0 0 1.1624165 -0 0.21170965)">
	<g>
        <path d="M246.34712 214.19614C 243.70781 208.3656 244.70094 202.26135 248.56491 200.56218C 252.42888 198.863 257.69955 202.21219 260.33902 208.04517C 261.42664 210.36057 261.9209 212.90547 261.78043 215.46696L261.78043 215.46696L272.6385 240.31407L260.3923 245.22977L250.98833 220.21303C 248.96011 218.60469 247.36862 216.54149 246.34712 214.19615L246.34712 214.19615L246.34712 214.19614z" stroke="none" fill="#FFAFAF" fill-rule="nonzero" />
        <path d="M321.38705 224.74626L321.3871 224.74628C 328.00684 230.98839 327.59222 241.63834 320.5072 247.3469L320.5072 247.3469L285.81155 275.30188C 282.02493 278.35284 276.4052 277.27487 274.0163 273.0393C 264.89844 258.27792 263.17963 257.46838 257.8803 242.33958L257.8803 242.33958L272.82462 237.11217L281.25073 247.66306L299.64752 225.96063C 305.2075 219.40161 315.1312 218.84727 321.3871 224.74625L321.3871 224.74625L321.38705 224.74626z" stroke="none" fill="#5CE1E6" fill-rule="nonzero" />
	</g>
    <path transform="matrix(7.5497894E-08 0.99999994 -0.99999994 7.5497894E-08 314.4292 48.57081)"  d="M127.42919 127L138.4292 127L138.4292 236L127.42919 236z" stroke="none" fill="#DFDFDF" fill-rule="nonzero" />
    <path transform="matrix(7.5497894E-08 0.99999994 -0.99999994 7.5497894E-08 590.4292 -227.42918)"  d="M403.4292 127L414.4292 127L414.4292 236L403.4292 236z" stroke="none" fill="#DFDFDF" fill-rule="nonzero" />
	<g>
        <path d="M107.08952 151.09389C 107.08952 143.86658 112.94841 138.00769 120.17571 138.00769L120.17571 138.00769L138.81102 138.00769C 146.03833 138.00769 151.89722 143.86658 151.89722 151.09389L151.89722 151.09389L151.89722 219.9138C 151.89722 227.14111 146.03833 233 138.81102 233L138.81102 233L120.17571 233C 112.94841 233 107.08952 227.14111 107.08952 219.9138L107.08952 219.9138L107.08952 151.09389z" stroke="none" fill="#3F3D56" fill-rule="nonzero" />
        <path d="M401.02798 151.09389C 401.02798 143.86658 406.88687 138.00769 414.11417 138.00769L414.11417 138.00769L432.74948 138.00769C 439.97678 138.00769 445.83566 143.86658 445.83566 151.09389L445.83566 151.09389L445.83566 219.9138C 445.83566 227.14111 439.97678 233 432.74948 233L432.74948 233L414.11417 233C 406.88687 233 401.02798 227.14111 401.02798 219.9138L401.02798 219.9138L401.02798 151.09389z" stroke="none" fill="#3F3D56" fill-rule="nonzero" />
        <path d="M420.93787 209.7L136.33792 209.7C 126.443474 209.7 117.97705 202.63403 116.20706 192.89973L116.20706 192.89973L105.32325 133.03859C 100.59 107.0055 110.39737 80.482315 130.92293 63.792328L130.92293 63.792328L152.38402 17.618526C 157.35858 6.9154367 168.1993 5.722046E-06 180.00179 5.722046E-06L180.00179 5.722046E-06L340.31793 5.722046E-06C 348.84058 5.722046E-06 357.02893 3.6056256 362.7839 9.892706L362.7839 9.892706L402.21863 52.978973C 431.06927 72.42043 447.43677 106.044586 444.9404 140.74692L444.9404 140.74692L441.34595 190.70749C 440.57974 201.3572 431.6156 209.7 420.93787 209.7z" stroke="none" fill="#DFDFDF" fill-rule="nonzero" />
        <path d="M372.36682 59.59423L157.3481 59.59423C 153.61383 59.59423 150.16792 57.72578 148.13036 54.597122C 146.09279 51.467583 145.77795 47.560043 147.28847 44.145203L147.28847 44.145203L158.62187 18.521683C 160.34679 14.622013 164.2156 12.051693 168.47781 11.973812L168.47781 11.973812L351.77496 12.196972C 355.26508 12.174222 358.59784 13.745111 360.71396 16.509712L360.71396 16.509712L381.1021 41.910072C 383.66434 45.258392 384.096 49.685783 382.22888 53.46643C 380.36176 57.2462 376.58286 59.59423 372.36682 59.59423z" stroke="none" fill="#FFFFFF" fill-rule="nonzero" />
        <path d="M423.43182 108.43462C 423.43185 113.63142 421.5945 118.067154 417.9198 121.74183C 414.24515 125.41652 409.80942 127.25386 404.6126 127.25385C 399.41586 127.25386 394.98013 125.41652 391.30542 121.74183C 387.63077 118.067154 385.79343 113.63142 385.7934 108.43462C 385.79343 103.23784 387.63077 98.80211 391.30542 95.12742C 394.98013 91.45274 399.41586 89.6154 404.6126 89.615395C 409.80942 89.6154 414.24515 91.45274 417.9198 95.12742C 421.5945 98.80211 423.43185 103.23784 423.43182 108.43462C 423.43185 108.65362 423.42804 108.87254 423.42038 109.09141" stroke="none" fill="#FFFFFF" fill-rule="nonzero" />
        <path d="M176.09337 108.43462C 176.09338 113.63142 174.25604 118.067154 170.58134 121.74183C 166.90668 125.41652 162.47093 127.25386 157.27414 127.25385C 152.07736 127.25386 147.64162 125.41652 143.96693 121.74183C 140.29225 118.067154 138.45491 113.63142 138.45491 108.43462C 138.45491 103.23784 140.29225 98.80211 143.96693 95.12742C 147.64162 91.45274 152.07736 89.6154 157.27414 89.615395C 162.47093 89.6154 166.90668 91.45274 170.58134 95.12742C 174.25604 98.80211 176.09338 103.23784 176.09337 108.43462C 176.09338 108.65362 176.08955 108.87254 176.08191 109.09141" stroke="none" fill="#FFFFFF" fill-rule="nonzero" />
        <path d="M386.24146 178.78268L181.02223 178.78268L181.02223 178.33461C 181.02223 167.7103 189.66544 159.0673 200.28954 159.0673L200.28954 159.0673L366.97415 159.0673C 377.59827 159.0673 386.24146 167.71028 386.24146 178.33461L386.24146 178.33461L386.24146 178.78268z" stroke="none" fill="#3F3D56" fill-rule="nonzero" />
        <path d="M133.93913 67.73925C 132.82857 67.73925 131.71582 67.38569 130.78159 66.67157L130.78159 66.67157L123.26777 60.92708C 122.5217 60.35648 121.59339 60.042297 120.6537 60.042297L120.6537 60.042297L104.24485 60.042297C 102.36743 60.042297 100.68496 59.072628 99.74439 57.44748C 98.803825 55.8232 98.80032 53.88124 99.734985 52.25346L99.734985 52.25346L103.74077 45.27501C 104.54088 43.880898 105.96978 42.92173 107.56343 42.70907L107.56343 42.70907L128.09314 39.9716C 130.65186 39.63204 133.03403 41.17843 133.7663 43.64986L133.7663 43.64986L138.92596 61.0636C 139.49416 62.98105 138.89839 65.081406 137.40802 66.416016C 136.42587 67.29466 135.18404 67.73924 133.93913 67.73924L133.93913 67.73924L133.93913 67.73925z" stroke="none" fill="#DFDFDF" fill-rule="nonzero" />
        <path d="M400.16684 64.15464C 398.92194 64.15464 397.68033 63.71006 396.69797 62.83141C 395.2078 61.49681 394.61206 59.39645 395.18002 57.47899L395.18002 57.47899L400.3397 40.065247C 401.07196 37.592075 403.45807 36.04043 406.01285 36.387867L406.01285 36.387867L426.5428 39.12446C 428.13623 39.33712 429.56512 40.296288 430.36523 41.6904L430.36523 41.6904L434.371 48.66885C 435.30566 50.29663 435.30215 52.23859 434.3616 53.86287C 433.42102 55.488018 431.73856 56.457687 429.86115 56.457687L429.86115 56.457687L413.4523 56.457687C 412.5126 56.457687 411.5843 56.771866 410.83823 57.34247L410.83823 57.34247L403.3244 63.08696C 402.3904 63.80108 401.2772 64.15464 400.16687 64.15464L400.16687 64.15464L400.16684 64.15464z" stroke="none" fill="#DFDFDF" fill-rule="nonzero" />
	</g>
    <path d="M78.42919 34L89.42919 34L89.42919 485L78.42919 485z" stroke="none" fill="#DFDFDF" fill-rule="nonzero" />
    <path d="M458.4292 34L469.4292 34L469.4292 485L458.4292 485z" stroke="none" fill="#DFDFDF" fill-rule="nonzero" />
    <path d="M0 485.4387C 0 485.78152 0.27531 486.05682 0.61815 486.05682L0.61815 486.05682L522.43024 486.05682C 522.7731 486.05682 523.04834 485.78156 523.04834 485.4387C 523.04834 485.0959 522.773 484.82056 522.43024 484.82056L522.43024 484.82056L0.61815 484.82056C 0.27531 484.82056 0 485.09586 0 485.4387z" stroke="none" fill="#3F3D56" fill-rule="nonzero" />
    <path d="M344.54034 451.32355L344.54034 471.75165L359.98596 472.2499L359.3424 451.32355L344.54034 451.32355L344.54034 451.32355" stroke="none" fill="#FFAFAF" fill-rule="nonzero" />
    <path d="M341.4837 462.69028C 341.27496 462.69028 341.07062 462.71704 340.87207 462.77347C 338.08453 463.56998 321.9489 477.97583 317.0701 482.37198C 316.46722 482.91498 316.14706 483.69058 316.19135 484.49976C 316.23514 485.3055 316.63608 486.03778 317.2905 486.5088C 320.99084 489.17374 328.5711 493.38937 337.7687 491.68588C 341.99942 490.902 346.26907 490.40912 350.03607 489.9746C 358.10046 489.0433 364.47012 488.3081 364.47012 485.4534C 364.47012 480.60962 363.13788 467.8435 361.46603 467.3073C 361.3142 467.26108 361.13858 467.37836 360.93616 467.66153C 358.37827 471.2422 349.5923 469.3368 349.21957 469.25455L349.21957 469.25455L349.12177 469.23264L349.06628 469.14944C 349.02054 469.08084 344.71878 462.69025 341.48358 462.69025L341.48358 462.69025L341.4837 462.69028z" stroke="none" fill="#2F2E41" fill-rule="nonzero" />
    <path d="M315.64203 451.32355L315.64203 471.75165L331.08768 472.2499L330.44412 451.32355L315.64203 451.32355L315.64203 451.32355" stroke="none" fill="#FFAFAF" fill-rule="nonzero" />
    <path d="M309.41394 305.08823L301.1929 311.3163L299.69815 381.56906L313.64905 458.299L331.83505 459.0464L332.33328 385.80414L355.7509 319.03912L351.01755 303.34436L309.41394 305.08823L309.41394 305.08823" stroke="none" fill="#2F2E41" fill-rule="nonzero" />
    <path d="M347.77893 317.04614L355.7509 319.03912L361.4807 458.299L340.80347 456.55515L327.1017 358.15146L347.77893 317.04614L347.77893 317.04614" stroke="none" fill="#2F2E41" fill-rule="nonzero" />
    <path d="M304.61444 492.57437C 297.52658 492.57437 291.76755 489.44135 288.69196 487.32916C 287.7626 486.6908 287.1875 485.67776 287.114 484.54938C 287.03955 483.4108 287.48334 482.3209 288.33142 481.55795C 295.9652 474.69052 309.1707 463.05618 311.83658 462.29468C 315.29172 461.3045 319.9287 467.9121 320.52524 468.78842C 321.4906 468.98596 329.40027 470.49725 331.63214 467.37152C 332.0579 466.77597 332.45737 466.7492 332.71964 466.8329C 335.1048 467.5973 336.07016 482.95193 336.07016 485.4534C 336.07016 488.75235 329.8309 489.47247 321.19525 490.46945C 317.43604 490.90347 313.17514 491.3954 308.96097 492.17535C 307.4672 492.4522 306.0148 492.57434 304.61444 492.57434L304.61444 492.57434L304.61444 492.57437z" stroke="none" fill="#2F2E41" fill-rule="nonzero" />
    <path d="M326.4968 214.09425L332.17178 225.52724L310.72266 235.8863L310.98544 217.55788L326.4968 214.09425L326.4968 214.09425" stroke="none" fill="#FFAFAF" fill-rule="nonzero" />
    <path d="M330.09976 203.44273C 330.09976 208.77234 328.21545 213.32146 324.44684 217.09006C 320.67825 220.85866 316.12915 222.74295 310.79953 222.74295C 305.46994 222.74295 300.92084 220.85866 297.15222 217.09006C 293.3836 213.32146 291.4993 208.77234 291.4993 203.44273C 291.4993 198.11313 293.3836 193.56403 297.15222 189.79541C 300.92084 186.02682 305.46994 184.14252 310.79953 184.14252C 316.12915 184.14252 320.67825 186.02682 324.44684 189.79541C 328.21545 193.56403 330.09976 198.11313 330.09976 203.44273C 330.09976 203.66733 330.09583 203.89186 330.08798 204.1163" stroke="none" fill="#FFAFAF" fill-rule="nonzero" />
    <path d="M310.66888 231.42912L330.45856 219.73523L330.4586 219.73524C 344.97305 229.91423 357.05997 232.29561 357.4445 250.01942L357.4445 250.01942L354.7695 292.29736L354.92627 310.5054C 354.99207 318.14908 348.81396 324.3806 341.17 324.3806L341.17 324.3806L312.91132 324.3806C 305.433 324.3806 299.86136 317.48114 301.43597 310.1705L301.43597 310.1705L306.77097 285.40097L301.07394 237.12616L310.66895 231.42912L310.66888 231.42912z" stroke="none" fill="#5CE1E6" fill-rule="nonzero" />
    <path d="M330.64673 213.15366L327.0784 215.71008C 327.0784 215.71008 326.02832 204.56822 324.57953 204.07378C 323.13074 203.57933 321.17603 206.14728 321.17603 206.14728L321.17603 206.14728L319.7485 210.33011L315.02826 208.36256C 315.02826 208.36256 309.56274 205.41896 307.63104 204.7597C 305.69934 204.10045 305.99213 198.50296 305.99213 198.50296C 305.99213 198.50296 282.80243 201.67795 286.28653 188.3093C 286.28653 188.3093 287.48627 178.47443 290.0542 180.42915C 292.62213 182.38388 292.65668 177.5431 292.65668 177.5431L292.65668 177.5431L298.47482 176.29367C 298.47482 176.29367 306.4586 165.539 322.20734 174.68794C 337.9561 183.8369 330.64676 213.15366 330.64676 213.15366L330.64676 213.15366L330.64673 213.15366z" stroke="none" fill="#2F2E41" fill-rule="nonzero" />
    <path d="M290.3681 255.87454L285.1543 255.08023C 283.6985 254.85844 282.68872 253.48576 282.9105 252.02989L282.9105 252.02989L283.54767 247.84743C 281.6553 249.01683 280.2665 250.97415 279.9052 253.34561C 279.34778 257.00446 281.41495 260.4501 284.69556 261.79193L284.69556 261.79193L280.13348 291.737C 280.12204 291.81213 280.1245 291.8857 280.12234 291.9599C 276.58105 292.2542 273.5696 294.93204 273.01096 298.5989C 272.6835 300.7483 273.26077 302.82632 274.45728 304.4475L274.45728 304.4475L275.03122 300.68024C 275.25302 299.22437 276.62573 298.21466 278.08157 298.43643L278.08157 298.43643L283.29538 299.23074C 284.7512 299.45255 285.76096 300.8252 285.53918 302.2811L285.53918 302.2811L284.902 306.46356C 286.79437 305.29416 288.18317 303.33682 288.54446 300.9654C 289.10312 297.29852 287.02567 293.84543 283.7327 292.50995C 283.75272 292.43848 283.777 292.36896 283.78845 292.29385L283.78845 292.29385L288.35052 262.3488C 291.88187 262.04474 294.88132 259.37097 295.43872 255.71213C 295.76617 253.56276 295.1889 251.4847 293.9924 249.86353L293.9924 249.86353L293.41846 253.63078C 293.19666 255.08665 291.82394 256.09637 290.3681 255.87457L290.3681 255.87457L290.3681 255.87454z" stroke="none" fill="#3F3D56" fill-rule="nonzero" />
	<g>
        <path d="M280.65662 281.92953C 274.3999 280.5824 270.08417 276.15268 271.01706 272.03598C 271.94995 267.91928 277.77756 265.67517 284.03632 267.02365C 286.54446 267.52686 288.8841 268.64355 290.85944 270.2803L290.85944 270.2803L317.291 276.33426L313.9569 289.10208L288.25406 281.7784C 285.7547 282.45187 283.1495 282.5037 280.65662 281.92953z" stroke="none" fill="#FFAFAF" fill-rule="nonzero" />
        <path d="M333.77832 227.88899L333.77835 227.88899C 342.73386 226.2815 351.0476 232.95047 351.4212 242.04143L351.4212 242.04143L353.25076 286.5602C 353.45044 291.4189 349.24078 295.29474 344.41507 294.6952C 327.12567 293.2425 328.34024 295.0133 313.02716 290.2727L313.02716 290.2727L314.05267 274L328.32153 273.78375L321.8215 246.08562C 319.85703 237.71455 325.3151 229.40813 333.77832 227.88899z" stroke="none" fill="#5CE1E6" fill-rule="nonzero" />
	</g>
</g>
</svg>