<?xml version="1.0" standalone="no"?>
<!DOCTYPE svg PUBLIC "-//W3C//DTD SVG 1.0//EN" "http://www.w3.org/TR/2001/REC-SVG-20010904/DTD/svg10.dtd">
<svg xmlns="http://www.w3.org/2000/svg" xmlns:xlink="http://www.w3.org/1999/xlink" id="body_1" width="1137" height="573">

<g transform="matrix(1.5733266 0 0 1.5733266 0.17352304 -0)">
    <path transform="matrix(1 0 0 1 -238.77402 -267.90176)"  d="M891.4571 564.1329L342.1484 564.1329C 327.52707 564.11646 315.67825 552.26764 315.66183 537.6463L315.66183 537.6463L315.66183 329.2084C 315.67847 314.58716 327.52716 302.73846 342.1484 302.72183L342.1484 302.72183L891.45715 302.72183C 906.07837 302.73846 917.9271 314.58716 917.9437 329.2084L917.9437 329.2084L917.9437 537.6463C 917.9273 552.26764 906.0784 564.11646 891.4571 564.1329z" stroke="none" fill="#FFFFFF" fill-rule="nonzero" />
    <path transform="matrix(1 0 0 1 -238.77402 -267.90176)"  d="M891.4571 564.1329L342.1484 564.1329C 327.52707 564.11646 315.67825 552.26764 315.66183 537.6463L315.66183 537.6463L315.66183 329.2084C 315.67847 314.58716 327.52716 302.73846 342.1484 302.72183L342.1484 302.72183L891.45715 302.72183C 906.07837 302.73846 917.9271 314.58716 917.9437 329.2084L917.9437 329.2084L917.9437 537.6463C 917.9273 552.26764 906.0784 564.11646 891.4571 564.1329zM342.1484 305.025C 335.7346 305.025 329.58344 307.57288 325.04816 312.10815C 320.51288 316.64343 317.965 322.7946 317.965 329.2084L317.965 329.2084L317.965 537.6463C 317.965 544.0602 320.51288 550.21136 325.04816 554.7466C 329.58344 559.28186 335.7346 561.8298 342.1484 561.8297L342.1484 561.8297L891.45715 561.8297C 897.871 561.8298 904.02216 559.28186 908.5574 554.7466C 913.09265 550.21136 915.64056 544.0602 915.64056 537.6463L915.64056 537.6463L915.64056 459.054C 915.64056 373.98615 846.67944 305.02502 761.6116 305.025z" stroke="none" fill="#E6E6E6" fill-rule="nonzero" />
    <path transform="matrix(0.14398064 -0.9895805 0.9895805 0.14398064 -588.1214 544.08624)"  d="M291.8408 607.92126C 291.8408 605.6784 293.10562 603.86017 294.6659 603.86017C 296.22617 603.86017 297.491 605.6784 297.491 607.92126C 297.491 610.1641 296.22617 611.98236 294.6659 611.98236C 293.10562 611.98236 291.8408 610.1641 291.8408 607.92126" stroke="none" fill="#FFFFFF" fill-rule="nonzero" />
    <path transform="matrix(0.14398064 -0.9895805 0.9895805 0.14398064 -562.9488 568.0293)"  d="M318.26648 605.3427C 318.26648 603.09985 319.5313 601.2816 321.09158 601.2816C 322.65186 601.2816 323.9167 603.09985 323.9167 605.3427C 323.9167 607.5856 322.65186 609.4038 321.09158 609.4038C 319.5313 609.4038 318.26648 607.5856 318.26648 605.3427" stroke="none" fill="#3F3D56" fill-rule="nonzero" />
    <path transform="matrix(0.14398064 -0.9895805 0.9895805 0.14398064 -573.1449 518.6121)"  d="M284.60464 586.52765C 284.60464 584.2848 285.86948 582.46655 287.42975 582.46655C 288.99002 582.46655 290.25485 584.2848 290.25485 586.52765C 290.25485 588.7705 288.99002 590.58875 287.42975 590.58875C 285.86948 590.58875 284.60464 588.7705 284.60464 586.52765" stroke="none" fill="#FF6584" fill-rule="nonzero" />
    <path transform="matrix(0.0075615677 -0.99997145 0.99997145 0.0075615677 -541.0162 584.2334)"  d="M275.61386 578.3357C 275.61386 577.3496 276.76297 576.55023 278.18048 576.55023C 279.598 576.55023 280.7471 577.3496 280.7471 578.3357C 280.7471 579.3218 279.598 580.12115 278.18048 580.12115C 276.76297 580.12115 275.61386 579.3218 275.61386 578.3357" stroke="none" fill="#E6E6E6" fill-rule="nonzero" />
    <path transform="matrix(0.0075615677 -0.99997145 0.99997145 0.0075615677 -528.55896 564.1406)"  d="M271.71988 562.0134C 271.71988 561.02734 272.869 560.22797 274.2865 560.22797C 275.704 560.22797 276.85312 561.02734 276.85312 562.0134C 276.85312 562.9995 275.704 563.7989 274.2865 563.7989C 272.869 563.7989 271.71988 562.9995 271.71988 562.0134" stroke="none" fill="#3F3D56" fill-rule="nonzero" />
    <path transform="matrix(0.0075615677 -0.99997145 0.99997145 0.0075615677 -527.2322 622.92957)"  d="M302.00082 590.7395C 302.00082 589.7534 303.14993 588.95404 304.56744 588.95404C 305.98495 588.95404 307.13406 589.7534 307.13406 590.7395C 307.13406 591.7256 305.98495 592.52496 304.56744 592.52496C 303.14993 592.52496 302.00082 591.7256 302.00082 590.7395" stroke="none" fill="#E6E6E6" fill-rule="nonzero" />
    <path transform="matrix(0.0075615677 -0.99997145 0.99997145 0.0075615677 -546.28143 616.4876)"  d="M289.23077 597.1154C 289.23077 596.12933 290.37988 595.32996 291.7974 595.32996C 293.2149 595.32996 294.364 596.12933 294.364 597.1154C 294.364 598.1015 293.2149 598.9009 291.7974 598.9009C 290.37988 598.9009 289.23077 598.1015 289.23077 597.1154" stroke="none" fill="#FF6584" fill-rule="nonzero" />
    <path transform="matrix(0.0075615677 -0.99997145 0.99997145 0.0075615677 -540.4235 645.95874)"  d="M307.0071 608.8998C 307.0071 607.9137 308.15622 607.1143 309.57373 607.1143C 310.99124 607.1143 312.14035 607.9137 312.14035 608.8998C 312.14035 609.88586 310.99124 610.68524 309.57373 610.68524C 308.15622 610.68524 307.0071 609.88586 307.0071 608.8998" stroke="none" fill="#3F3D56" fill-rule="nonzero" />
    <path transform="matrix(0.24565722 -0.9693568 0.9693568 0.24565722 198.37253 842.589)"  d="M928.4819 274.37106C 928.4819 271.51212 930.0942 269.19446 932.083 269.19446C 934.07184 269.19446 935.68414 271.51212 935.68414 274.37106C 935.68414 277.23 934.07184 279.54767 932.083 279.54767C 930.0942 279.54767 928.4819 277.23 928.4819 274.37106" stroke="none" fill="#FFFFFF" fill-rule="nonzero" />
    <path transform="matrix(0.24565722 -0.9693568 0.9693568 0.24565722 173.05426 809.61786)"  d="M894.6382 274.15295C 894.6382 271.294 896.2505 268.97635 898.2393 268.97635C 900.22815 268.97635 901.84045 271.294 901.84045 274.15295C 901.84045 277.0119 900.22815 279.32956 898.2393 279.32956C 896.2505 279.32956 894.6382 277.0119 894.6382 274.15295" stroke="none" fill="#3F3D56" fill-rule="nonzero" />
    <path transform="matrix(0.24565722 -0.9693568 0.9693568 0.24565722 175.94525 869.92615)"  d="M934.8328 302.44955C 934.8328 299.5906 936.4451 297.27295 938.43396 297.27295C 940.4228 297.27295 942.0351 299.5906 942.0351 302.44955C 942.0351 305.3085 940.4228 307.62616 938.43396 307.62616C 936.4451 307.62616 934.8328 305.3085 934.8328 302.44955" stroke="none" fill="#FF6584" fill-rule="nonzero" />
    <path transform="matrix(0.111046955 -0.9938152 0.9938152 0.111046955 292.79922 954.4889)"  d="M945.8078 314.05615C 945.8078 312.7992 947.2725 311.78024 949.0794 311.78024C 950.8863 311.78024 952.351 312.7992 952.351 314.05615C 952.351 315.3131 950.8863 316.33206 949.0794 316.33206C 947.2725 316.33206 945.8078 315.3131 945.8078 314.05615" stroke="none" fill="#E6E6E6" fill-rule="nonzero" />
    <path transform="matrix(0.11105 -0.99382 0.99382 0.11105 274.1965 976.10736)"  d="M948.59076 335.26392C 948.59076 334.00696 950.0555 332.988 951.86237 332.988C 953.66925 332.988 955.134 334.00696 955.134 335.26392C 955.134 336.52087 953.66925 337.53983 951.86237 337.53983C 950.0555 337.53983 948.59076 336.52087 948.59076 335.26392" stroke="none" fill="#3F3D56" fill-rule="nonzero" />
    <path transform="matrix(0.111046955 -0.9938152 0.9938152 0.111046955 283.60443 905.7932)"  d="M913.9905 294.84802C 913.9905 293.59106 915.4552 292.5721 917.2621 292.5721C 919.069 292.5721 920.5337 293.59106 920.5337 294.84802C 920.5337 296.10498 919.069 297.12393 917.2621 297.12393C 915.4552 297.12393 913.9905 296.10498 913.9905 294.84802" stroke="none" fill="#E6E6E6" fill-rule="nonzero" />
    <path transform="matrix(0.111046955 -0.9938152 0.9938152 0.111046955 305.1036 917.0317)"  d="M931.02216 288.44962C 931.02216 287.19266 932.4869 286.1737 934.29376 286.1737C 936.10065 286.1737 937.56537 287.19266 937.56537 288.44962C 937.56537 289.70657 936.10065 290.72552 934.29376 290.72552C 932.4869 290.72552 931.02216 289.70657 931.02216 288.44962" stroke="none" fill="#FF6584" fill-rule="nonzero" />
    <path transform="matrix(0.111046955 -0.9938152 0.9938152 0.111046955 303.63095 880.81226)"  d="M910.03986 271.16312C 910.03986 269.90616 911.5046 268.8872 913.31146 268.8872C 915.11835 268.8872 916.58307 269.90616 916.58307 271.16312C 916.58307 272.42007 915.11835 273.43903 913.31146 273.43903C 911.5046 273.43903 910.03986 272.42007 910.03986 271.16312" stroke="none" fill="#3F3D56" fill-rule="nonzero" />
    <path transform="matrix(1 0 0 1 -238.77402 -267.90176)"  d="M535.3747 429.18555C 535.4048 450.04517 527.69916 470.17502 513.7478 485.68256L513.7478 485.68256L513.7478 485.6941C 511.77536 487.8873 509.69214 489.9782 507.5062 491.95874C 505.26944 493.9846 502.9245 495.88745 500.4815 497.65912C 498.77713 498.9028 497.0267 500.07742 495.23026 501.18298C 493.0998 502.5073 490.90793 503.7318 488.65466 504.85657C 486.98486 505.69724 485.28052 506.48032 483.5416 507.20578C 473.1619 511.56793 462.01495 513.8114 450.75586 513.8044C 444.397 513.8114 438.05762 513.1006 431.85822 511.68552C 428.99127 511.03363 426.1618 510.22626 423.38254 509.26712C 422.31152 508.91013 421.2406 508.51862 420.1811 508.10413C 413.75705 505.6209 407.6649 502.35242 402.04355 498.37314C 369.24667 475.2819 357.1676 432.3372 373.11816 395.5347C 389.06873 358.7322 428.66602 338.18457 467.94067 346.32983C 507.21533 354.47513 535.3754 389.07516 535.37476 429.18555L535.37476 429.18555L535.3747 429.18555z" stroke="none" fill="#F2F2F2" fill-rule="nonzero" />
    <path transform="matrix(1 0 0 1 -238.77402 -267.90176)"  d="M788.63257 366.28378L642.38055 366.28378C 639.8376 366.2823 637.7769 364.22037 637.7769 361.67743C 637.7769 359.1345 639.8376 357.07257 642.38055 357.07104L642.38055 357.07104L788.63257 357.07104C 791.1766 357.07108 793.23895 359.1334 793.23895 361.67743C 793.23895 364.22147 791.1766 366.28378 788.63257 366.28378z" stroke="none" fill="#5CE1E6" fill-rule="nonzero" />
    <path transform="matrix(1 0 0 1 -238.77402 -267.90176)"  d="M788.63257 428.46967L642.38055 428.46967C 639.8376 428.46814 637.7769 426.40622 637.7769 423.86328C 637.7769 421.32034 639.8376 419.25842 642.38055 419.25693L642.38055 419.25693L788.63257 419.25693C 791.17554 419.25842 793.2362 421.32034 793.2362 423.86328C 793.2362 426.40622 791.17554 428.46814 788.63257 428.46967z" stroke="none" fill="#E6E6E6" fill-rule="nonzero" />
    <path transform="matrix(1 0 0 1 -238.77402 -267.90176)"  d="M788.63257 490.65555L642.38055 490.65555C 639.8376 490.65405 637.7769 488.59213 637.7769 486.0492C 637.7769 483.50626 639.8376 481.44434 642.38055 481.4428L642.38055 481.4428L788.63257 481.4428C 791.1766 481.44284 793.23895 483.50516 793.23895 486.0492C 793.23895 488.59323 791.1766 490.65555 788.63257 490.65555z" stroke="none" fill="#E6E6E6" fill-rule="nonzero" />
    <path transform="matrix(1 0 0 1 -238.77402 -267.90176)"  d="M422.99457 628.0763C 406.4838 606.11505 396.94086 581.5569 396.62817 553.55853C 395.5206 550.41693 397.16507 546.97156 400.30417 545.8569L400.30417 545.8569L456.58163 525.9444C 459.72327 524.8368 463.16858 526.48126 464.28323 529.6204L464.28323 529.6204L490.64963 604.1382C 491.75726 607.2798 490.11282 610.72516 486.97372 611.83984L486.97372 611.83984L430.6962 631.75226C 427.5546 632.85986 424.10925 631.2154 422.99457 628.0763z" stroke="none" fill="#E6E6E6" fill-rule="nonzero" />
    <path transform="matrix(1 0 0 1 -238.77402 -267.90176)"  d="M419.34763 604.0414C 409.41742 594.00104 405.16672 576.0935 402.3969 556.1346C 401.35953 553.19244 402.89963 549.9657 405.83954 548.92175L405.83954 548.92175L454.2053 531.80865C 457.14752 530.77124 460.3743 532.3112 461.41837 535.25116L461.41837 535.25116L484.88086 601.5618C 485.91812 604.50415 484.37793 607.73083 481.43796 608.7747L481.43796 608.7747L451.4764 619.376C 438.37067 623.9966 423.99786 617.13666 419.34763 604.0414z" stroke="none" fill="#FFFFFF" fill-rule="nonzero" />
    <path transform="matrix(1 0 0 1 -238.77402 -267.90176)"  d="M462.06577 570.9731L424.3902 584.4214C 423.58206 584.71185 422.68033 584.54846 422.0255 583.99286C 421.37073 583.43726 421.06262 582.57416 421.21762 581.7295C 421.3726 580.8848 421.967 580.1873 422.7764 579.9003L422.7764 579.9003L460.452 566.452C 461.26016 566.16156 462.1619 566.32495 462.8167 566.88055C 463.4715 567.43616 463.7796 568.29926 463.6246 569.1439C 463.46964 569.9886 462.8752 570.6861 462.0658 570.9731L462.0658 570.9731L462.06577 570.9731z" stroke="none" fill="#5CE1E6" fill-rule="nonzero" />
    <path transform="matrix(1 0 0 1 -238.77402 -267.90176)"  d="M428.25375 569.0658L419.96512 572.0244C 419.15695 572.3149 418.25522 572.1515 417.6004 571.5959C 416.94562 571.0403 416.6375 570.1772 416.7925 569.3325C 416.94748 568.48785 417.5419 567.79034 418.35132 567.50336L418.35132 567.50336L426.63995 564.54474C 427.4481 564.25433 428.34982 564.4177 429.00464 564.9733C 429.65942 565.52893 429.96753 566.392 429.81253 567.2367C 429.65756 568.08136 429.06314 568.7789 428.25375 569.0658z" stroke="none" fill="#5CE1E6" fill-rule="nonzero" />
    <path transform="matrix(1 0 0 1 -238.77402 -267.90176)"  d="M469.16043 590.8489L431.48486 604.2972C 430.23737 604.7394 428.86728 604.0883 428.42233 602.84174C 427.97736 601.5952 428.6255 600.2237 429.87106 599.7761L429.87106 599.7761L467.54663 586.3278C 468.79413 585.8856 470.1642 586.5367 470.60916 587.78326C 471.05414 589.0298 470.406 590.4013 469.16043 590.8489z" stroke="none" fill="#5CE1E6" fill-rule="nonzero" />
    <path transform="matrix(1 0 0 1 -238.77402 -267.90176)"  d="M465.6131 580.911L427.93753 594.3593C 426.69 594.8015 425.31992 594.15045 424.87497 592.9039C 424.43 591.65735 425.07812 590.2858 426.32373 589.83826L426.32373 589.83826L463.99933 576.38995C 464.80746 576.09955 465.7092 576.26294 466.364 576.81854C 467.0188 577.37415 467.3269 578.23724 467.1719 579.0819C 467.01694 579.9266 466.42252 580.6241 465.61313 580.911L465.61313 580.911L465.6131 580.911z" stroke="none" fill="#5CE1E6" fill-rule="nonzero" />
    <path transform="matrix(1 0 0 1 -238.77402 -267.90176)"  d="M431.40164 390.9023C 432.62854 400.80115 439.48764 408.96286 449.4622 408.96286C 459.43677 408.96286 467.52274 400.8769 467.52274 390.9023C 467.52274 380.92773 459.39398 373.76395 449.4622 372.84177C 438.92395 371.86325 429.82648 378.19348 431.40164 390.9023z" stroke="none" fill="#2F2E41" fill-rule="nonzero" />
    <path transform="matrix(1 0 0 1 -238.77402 -267.90176)"  d="M465.1852 512.57227C 454.12616 514.4734 442.80054 514.17206 431.85822 511.68552C 437.05188 508.81805 452.80563 510.58 465.1852 512.57227z" stroke="none" fill="#2F2E41" fill-rule="nonzero" />
    <path transform="matrix(1 0 0 1 -238.77402 -267.90176)"  d="M394.8913 544.3399L403.56677 523.37415L410.40198 527.1715L406.27408 548.49896C 407.4222 552.2515 405.52277 556.26086 401.89175 557.74927C 398.26074 559.23773 394.09366 557.71515 392.27756 554.2364C 390.4615 550.7577 391.59433 546.4682 394.89127 544.33984L394.89127 544.33984L394.8913 544.3399z" stroke="none" fill="#FFB6B6" fill-rule="nonzero" />
    <path transform="matrix(1 0 0 1 -238.77402 -267.90176)"  d="M484.6356 487.6057L484.6356 487.61725C 484.3246 494.91837 483.8986 501.86243 483.5416 507.2058C 473.16187 511.568 462.01495 513.81146 450.75586 513.8044C 444.397 513.8114 438.05762 513.1006 431.85822 511.68552C 428.99127 511.03363 426.1618 510.22626 423.38254 509.26712C 423.76944 509.0175 424.18762 508.82 424.62628 508.67987C 428.77197 507.27487 424.67227 505.99664 424.7069 504.66077C 424.83356 499.77805 426.1809 493.91647 427.91983 488.2967L427.91983 488.2967L420.181 508.10406L416.15042 518.3993C 416.15042 518.3993 416.2887 527.28955 413.73212 524.5718C 411.16412 521.85406 411.34833 530.65216 411.34833 530.65216C 410.55017 531.2209 409.8632 531.9313 409.3215 532.74805C 409.0937 533.11566 409.00775 533.5538 409.0797 533.9803L409.0797 533.9803L409.0797 533.9918C 409.19547 534.3268 409.42325 534.6115 409.7246 534.798C 411.46353 535.97253 408.9645 539.08185 407.85904 540.3141C 407.55963 540.648 407.36386 540.8439 407.36386 540.8439L407.36386 540.8439L396.73462 540.0838L396.73462 539.8765C 396.78073 538.62134 397.06863 532.01117 398.7154 530.4335C 400.5234 528.69464 399.63666 525.9423 399.63666 525.9423C 399.63666 525.9423 404.35815 521.762 401.19128 518.36487C 399.92456 516.99445 400.48883 508.87576 402.04346 498.37326C 405.44064 475.20325 413.58246 440.42526 417.10626 440.92038C 418.5868 433.72803 423.97342 427.9722 431.052 426.0188L431.052 426.0188L442.5334 422.86343L444.5832 414.76773L460.7516 414.76773L463.56146 420.08807L475.34222 425.40848L475.49194 425.47757L475.86044 425.63873L475.99863 426.07635C 475.99863 426.07635 475.9871 426.0879 475.99863 426.0879L475.99863 426.0879L482.55118 446.6668C 485.4993 450.05237 485.38416 469.83667 484.6356 487.6057z" stroke="none" fill="#5CE1E6" fill-rule="nonzero" />
    <path transform="matrix(1 0 0 1 -238.77402 -267.90176)"  d="M512.16766 529.0732L501.21936 509.1996L508.45505 506.2357L522.5273 522.7848C 526.1745 524.23303 528.118 528.22125 527.0113 531.9862C 525.9046 535.75116 522.11206 538.0532 518.2613 537.29755C 514.41046 536.5418 511.76932 532.9771 512.16766 529.0732z" stroke="none" fill="#FFB6B6" fill-rule="nonzero" />
    <path transform="matrix(1 0 0 1 -238.77402 -267.90176)"  d="M475.34424 425.2497C 477.29175 428.74887 495.10217 437.7484 492.0155 446.78342C 492.0155 446.78342 508.74768 499.1314 510.9235 498.78976C 513.0993 498.44812 515.22296 503.85532 515.22296 503.85532C 515.22296 503.85532 514.76135 507.3844 516.11847 505.91785C 517.4756 504.4513 517.1509 508.29556 517.1509 508.29556C 517.1509 508.29556 516.5005 511.6886 518.2236 510.76614C 519.94666 509.8437 517.6811 516.3371 517.6811 516.3371L517.6811 516.3371L507.32587 521.213L505.35806 518.2842C 505.35806 518.2842 501.15314 517.4834 503.1317 516.84906C 505.1103 516.2147 501.27112 514.0798 501.27112 514.0798C 501.27112 514.0798 497.25464 511.3501 497.81442 506.82944C 498.3742 502.30878 487.39172 493.42184 487.39172 493.42184C 479.84198 478.5156 475.71173 463.21146 475.72617 447.42496L475.72617 447.42496L475.34424 425.2497z" stroke="none" fill="#5CE1E6" fill-rule="nonzero" />
    <path d="M228.69992 126.11822C 228.69992 130.54074 227.13632 134.31558 224.00914 137.44276C 220.88196 140.56995 217.10712 142.13354 212.68459 142.13354C 208.26208 142.13354 204.48723 140.56995 201.36003 137.44276C 198.23285 134.31558 196.66925 130.54074 196.66925 126.11822C 196.66925 121.69571 198.23285 117.92086 201.36003 114.79367C 204.48723 111.66649 208.26208 110.1029 212.68459 110.10289C 217.10712 110.1029 220.88196 111.66649 224.00914 114.79367C 227.13632 117.92086 228.69992 121.69571 228.69992 126.11822C 228.69992 126.30459 228.69667 126.4909 228.69016 126.67715" stroke="none" fill="#FFB6B6" fill-rule="nonzero" />
    <path transform="matrix(1 0 0 1 -238.77402 -267.90176)"  d="M434.87482 395.76477C 435.3819 399.2449 438.348 404.1004 437.65338 404.1004C 436.95877 404.1004 432.0199 389.75385 436.95874 388.8184C 440.54114 388.13986 441.3419 388.73505 444.69006 387.28323L444.69006 387.28323L444.2177 387.7278C 446.4336 389.3394 449.5178 388.34604 452.04623 387.29712C 454.58167 386.25516 457.6589 385.26184 459.88174 386.86646C 461.27795 387.8737 461.8684 389.62415 462.7367 391.1107C 463.60498 392.6042 465.2096 394.01428 466.86285 393.55582C 468.1846 393.04517 469.02634 391.7405 468.94678 390.32574C 468.9398 388.95038 467.14886 387.64197 467.752 386.408C 469.53946 382.75113 467.932 380.25854 464.03568 378.53778C 462.61865 378.32245 461.2016 378.10248 459.78452 377.87787C 460.52707 376.84937 461.4273 375.94446 462.45193 375.19656C 462.01907 374.0866 461.27042 373.12784 460.29852 372.43884C 459.09787 371.88074 457.75974 371.68753 456.45026 371.88315C 453.51892 372.03595 450.58987 372.18875 447.6631 372.34158C 445.48337 372.3027 443.31995 372.72403 441.31415 373.57806C 438.8968 374.82144 437.31302 377.24573 436.1599 379.71173C 433.57587 385.2549 433.9857 389.7145 434.87482 395.76477z" stroke="none" fill="#2F2E41" fill-rule="nonzero" />
    <path transform="matrix(1 0 0 1 -238.77402 -267.90176)"  d="M835.501 385.26038L594.6504 385.26038C 594.0981 385.26038 593.6504 384.81265 593.6504 384.26038C 593.6504 383.7081 594.0981 383.26038 594.6504 383.26038L594.6504 383.26038L835.501 383.26038C 836.0533 383.26038 836.501 383.7081 836.501 384.26038C 836.501 384.81265 836.0533 385.26038 835.501 385.26038z" stroke="none" fill="#E6E6E6" fill-rule="nonzero" />
    <path transform="matrix(1 0 0 1 -238.77402 -267.90176)"  d="M835.501 447.26038L594.6504 447.26038C 594.0981 447.26038 593.6504 446.81265 593.6504 446.26038C 593.6504 445.7081 594.0981 445.26038 594.6504 445.26038L594.6504 445.26038L835.501 445.26038C 836.0533 445.26038 836.501 445.7081 836.501 446.26038C 836.501 446.81265 836.0533 447.26038 835.501 447.26038z" stroke="none" fill="#E6E6E6" fill-rule="nonzero" />
    <path transform="matrix(1 0 0 1 -238.77402 -267.90176)"  d="M835.501 509.2599L594.6504 509.2599C 594.0981 509.2599 593.6504 508.81216 593.6504 508.2599C 593.6504 507.7076 594.0981 507.2599 594.6504 507.2599L594.6504 507.2599L835.501 507.2599C 836.0533 507.2599 836.501 507.7076 836.501 508.2599C 836.501 508.81216 836.0533 509.2599 835.501 509.2599z" stroke="none" fill="#E6E6E6" fill-rule="nonzero" />
    <path transform="matrix(1 0 0 1 -238.77402 -267.90176)"  d="M871.34973 505.29572C 862.5324 505.29572 854.005 502.1468 847.3039 496.41626C 845.0685 494.50275 842.6866 491.1761 840.2247 486.5294C 837.0425 480.46692 836.77875 473.28903 839.50757 467.0094C 838.209 468.33044 836.7726 469.5086 835.223 470.52374L835.223 470.52374L834.4397 471.04492L834.3945 470.10565C 834.36475 469.49472 834.34973 468.88586 834.34973 468.29602C 834.34973 464.81985 836.9789 461.29248 835.76636 458.0794C 830.65576 444.53705 814.4462 431.07864 837.9388 410.1199C 840.112 408.1811 837.2089 404.3047 837.2089 401.3713C 837.2089 372.62347 877.8394 322.88882 889.3549 349.2355C 903.5564 381.72763 928.0236 378.2522 938.8628 384.96344L938.8628 384.96344L939.02 385.43823L938.5567 385.62567C 936.18445 386.62268 933.6859 387.28723 931.1318 387.6005C 933.85474 388.15582 936.63354 388.3886 939.4109 388.2941L939.4109 388.2941L939.84155 388.27905L939.9465 388.69766C 940.9796 392.84302 941.5017 397.09918 941.50104 401.37134L941.50104 401.37134L941.49915 401.83313C 941.4797 408.3959 944.25354 414.65695 949.12756 419.05173C 956.82434 426.06937 961.2151 436.00037 961.226 446.4161C 961.226 452.51056 957.0839 460.51053 953.609 466.1486C 951.82477 469.0582 948.80695 470.99115 945.41785 471.39517C 942.2102 471.7997 938.98846 470.75894 936.6236 468.55423C 938.2683 471.86124 940.4116 474.89578 942.9785 477.55145L942.9785 477.55145L943.45264 478.03998L942.86395 478.38297C 937.2068 481.6817 930.775 483.41864 924.22644 483.41614L924.22644 483.41614L923.84296 483.41513C 914.14307 483.31506 904.81116 487.1239 897.9516 493.98285C 890.9668 501.17822 881.3776 505.25613 871.34973 505.29572z" stroke="none" fill="#E6E6E6" fill-rule="nonzero" />
    <path transform="matrix(1 0 0 1 -238.77402 -267.90176)"  d="M858.6202 563.8901C 858.28925 563.88965 858.0089 563.6461 857.9622 563.3185C 856.22217 547.80206 856.11816 532.14606 857.65186 516.6079C 859.9485 492.0962 867.324 456.79065 889.41797 427.7948C 889.5621 427.6057 889.79614 427.50787 890.0319 427.53812C 890.2677 427.56836 890.4695 427.72208 890.56116 427.94144C 890.6529 428.16077 890.6206 428.41235 890.4765 428.60144C 868.5733 457.34692 861.2573 492.39337 858.97687 516.73206C 857.4515 532.1663 857.55304 547.71796 859.2798 563.1309C 859.30676 563.32196 859.2496 563.51526 859.12305 563.6609C 858.9965 563.8066 858.81305 563.8902 858.6202 563.89014L858.6202 563.89014L858.6202 563.8901z" stroke="none" fill="#3F3D56" fill-rule="nonzero" />
    <path transform="matrix(1 0 0 1 -238.77402 -267.90176)"  d="M876.6502 468.6948C 876.3619 468.69504 876.1062 468.5095 876.01697 468.23532C 875.92773 467.96112 876.02527 467.66064 876.2585 467.49112C 882.55396 463.2298 889.35486 459.76773 896.5047 457.1847C 907.6749 453.0952 924.6608 449.38782 942.1476 454.95325C 942.3743 455.0251 942.54553 455.21255 942.59656 455.44495C 942.6475 455.67734 942.57056 455.91925 942.3946 456.07944C 942.2187 456.23962 941.97064 456.2937 941.7441 456.22125C 924.6156 450.7702 907.93756 454.41626 896.96234 458.4345C 889.9275 460.97333 883.2356 464.37717 877.04095 468.56766C 876.9275 468.65036 876.79065 468.6949 876.6502 468.6948z" stroke="none" fill="#3F3D56" fill-rule="nonzero" />
    <path transform="matrix(1 0 0 1 -238.77402 -267.90176)"  d="M846.19586 392.8445C 846.17487 392.55698 846.3415 392.2886 846.6085 392.17987C 846.87555 392.07114 847.18225 392.14673 847.36816 392.36713C 852.0718 398.33936 856.0146 404.87332 859.10583 411.81854C 863.98914 422.66522 868.9101 439.3401 864.61847 457.1822C 864.5634 457.41394 864.38873 457.59863 864.1604 457.6664C 863.93207 457.7342 863.68494 457.67474 863.5124 457.51056C 863.33984 457.34634 863.26825 457.10245 863.3247 456.87103C 867.5281 439.39447 862.6904 423.0223 857.8922 412.36493C 854.85345 405.5312 850.97656 399.10187 846.3508 393.225C 846.26013 393.1178 846.2059 392.98456 846.19586 392.8445z" stroke="none" fill="#3F3D56" fill-rule="nonzero" />
    <path transform="matrix(1 0 0 1 -238.77402 -267.90176)"  d="M302.04837 491.98386C 295.1888 485.12494 285.85693 481.3161 276.157 481.41614L276.157 481.41614L275.77353 481.41714C 269.2249 481.41965 262.79312 479.6827 257.136 476.384L257.136 476.384L256.5473 476.04102L257.02142 475.5525C 259.5883 472.89682 261.73163 469.86227 263.37634 466.55527C 261.01154 468.75998 257.78983 469.80075 254.5821 469.3962C 251.19301 468.9922 248.17522 467.05923 246.39096 464.14963C 242.91608 458.51157 238.77396 450.51163 238.77396 444.41714C 238.78488 434.0014 243.17563 424.0704 250.87247 417.05276C 255.74648 412.658 258.52032 406.39694 258.5009 399.83417L258.5009 399.83417L258.49896 399.37238C 258.49832 395.10022 259.0204 390.84406 260.05353 386.6987L260.05353 386.6987L260.15842 386.2801L260.5891 386.2951C 263.36646 386.3896 266.14526 386.1568 268.8682 385.60153C 266.3141 385.28827 263.81552 384.62372 261.44327 383.6267L261.44327 383.6267L260.97995 383.43927L261.13718 382.96448C 271.97638 376.25327 296.44357 379.72867 310.64508 347.23657C 322.16055 320.8899 362.79102 370.62457 362.79102 399.37238C 362.79102 402.30576 359.888 406.18216 362.0612 408.12097C 385.5537 429.0797 369.34418 442.53812 364.2336 456.08047C 363.02106 459.29358 365.6502 462.82092 365.6502 466.2971C 365.6502 466.88693 365.6352 467.4958 365.60547 468.10672L365.60547 468.10672L365.5602 469.046L364.7769 468.5248C 363.22736 467.50967 361.79095 466.3315 360.49234 465.01047C 363.22113 471.29007 362.95743 478.46796 359.7752 484.53046C 357.31326 489.17715 354.9314 492.5038 352.69598 494.41733C 337.83023 507.1388 315.62598 506.07196 302.04828 491.98392L302.04828 491.98392L302.04837 491.98386z" stroke="none" fill="#E6E6E6" fill-rule="nonzero" />
    <path transform="matrix(1 0 0 1 -238.77402 -267.90176)"  d="M341.37982 561.8911C 341.7108 561.89075 341.99112 561.6472 342.03775 561.3195C 343.7777 545.80316 343.88177 530.1471 342.34814 514.60895C 340.05148 490.09723 332.67603 454.7917 310.58203 425.79584C 310.43793 425.60675 310.20392 425.5089 309.9681 425.53915C 309.7323 425.5694 309.53055 425.7231 309.43884 425.94247C 309.34714 426.1618 309.3794 426.4134 309.5235 426.60248C 331.42667 455.34793 338.74268 490.3944 341.02313 514.7331C 342.54846 530.1673 342.44696 545.71893 340.7202 561.13196C 340.69324 561.32306 340.7504 561.51636 340.87692 561.662C 341.00345 561.8077 341.18692 561.8913 341.37982 561.8912L341.37982 561.8912L341.37982 561.8911z" stroke="none" fill="#3F3D56" fill-rule="nonzero" />
    <path transform="matrix(1 0 0 1 -238.77402 -267.90176)"  d="M323.34982 466.69583C 323.63818 466.69608 323.89386 466.51056 323.98312 466.23636C 324.07236 465.96216 323.97482 465.66168 323.74155 465.49216C 317.44608 461.23083 310.64514 457.76877 303.49533 455.18573C 292.32513 451.09625 275.3392 447.38885 257.85245 452.95428C 257.62592 453.02637 257.45508 453.2138 257.40427 453.446C 257.35342 453.67822 257.43033 453.9199 257.60602 454.08002C 257.7817 454.24014 258.02945 454.29437 258.25598 454.2223C 275.38446 448.7713 292.0625 452.41733 303.03775 456.43555C 310.07263 458.97433 316.76447 462.37817 322.95917 466.5687C 323.07263 466.65137 323.2094 466.6959 323.34982 466.69583z" stroke="none" fill="#3F3D56" fill-rule="nonzero" />
    <path transform="matrix(1 0 0 1 -238.77402 -267.90176)"  d="M353.8041 390.84555C 353.82513 390.55798 353.6585 390.2896 353.39145 390.18085C 353.1244 390.0721 352.8177 390.14774 352.63177 390.36816C 347.92813 396.34042 343.98535 402.87433 340.89407 409.81958C 336.0108 420.66626 331.08978 437.34113 335.38144 455.18323C 335.43643 455.41498 335.6111 455.59967 335.83945 455.66745C 336.06778 455.73523 336.31494 455.67578 336.4875 455.5116C 336.66 455.34738 336.73163 455.1035 336.6752 454.87207C 332.4718 437.3955 337.3095 421.02335 342.10767 410.36597C 345.14648 403.53217 349.0234 397.10284 353.64917 391.226C 353.7398 391.11877 353.79407 390.98557 353.8041 390.84555z" stroke="none" fill="#3F3D56" fill-rule="nonzero" />
</g>
</svg>