<?xml version="1.0" standalone="no"?>
<!DOCTYPE svg PUBLIC "-//W3C//DTD SVG 1.0//EN" "http://www.w3.org/TR/2001/REC-SVG-20010904/DTD/svg10.dtd">
<svg xmlns="http://www.w3.org/2000/svg" xmlns:xlink="http://www.w3.org/1999/xlink" id="body_1" width="1080" height="573">

<g transform="matrix(1.4571074 0 0 1.4571074 0.37819514 -0)">
    <path transform="matrix(1 0 0 1 -229.66231 -253.37758)"  d="M839.794 644.688L704.70544 644.688C 704.70544 644.688 701.96716 604.5265 718.16864 604.0701C 734.3701 603.6138 732.5446 621.86896 752.8536 596.768C 773.16254 571.66705 797.80707 573.03625 801.0017 587.8686C 804.19635 602.7009 794.8406 614.56683 811.95483 610.91583C 829.0691 607.26483 853.7136 616.84875 839.794 644.688z" stroke="none" fill="#F2F2F2" fill-rule="nonzero" />
    <path transform="matrix(1 0 0 1 -229.66231 -253.37758)"  d="M836.91516 614.3903C 816.51587 612.5468 797.2248 623.9605 789.02 642.7278C 788.25604 644.4801 790.83997 646.0092 791.6104 644.24194C 799.2614 626.3877 817.57996 615.5306 836.91516 617.3904C 838.83734 617.56384 838.8256 614.5628 836.91516 614.3904L836.91516 614.3904L836.91516 614.3903z" stroke="none" fill="#FFFFFF" fill-rule="nonzero" />
    <path transform="matrix(1 0 0 1 -229.66231 -253.37758)"  d="M717.1445 605.6869C 725.87396 615.82153 730.0794 629.0852 728.78436 642.3983C 728.59625 644.31836 731.5975 644.30536 731.78436 642.3983C 733.08466 628.28815 728.56226 614.2596 719.2658 603.56555C 717.99524 602.10724 715.8808 604.23645 717.1445 605.6869z" stroke="none" fill="#FFFFFF" fill-rule="nonzero" />
    <path transform="matrix(1 0 0 1 -229.66231 -253.37758)"  d="M790.991 579.3722C 782.11615 594.31 775.22363 610.33984 770.4874 627.0572C 769.1424 631.8131 767.9783 636.61456 766.995 641.4617C 766.61053 643.3464 769.50165 644.1525 769.8878 642.2592C 773.311 625.4129 778.9241 609.0869 786.58405 593.6973C 788.7574 589.34186 791.08984 585.0716 793.5814 580.8865C 793.96564 580.17444 793.71643 579.286 793.0179 578.8777C 792.3194 578.4694 791.423 578.6882 790.991 579.3723L790.991 579.3723L790.991 579.3722z" stroke="none" fill="#FFFFFF" fill-rule="nonzero" />
    <path transform="matrix(1 0 0 1 -229.66231 -253.37758)"  d="M898.786 396.25073L898.786 501.688L612.75934 501.688C 610.3793 501.6886 608.0965 500.7434 606.4135 499.06042C 604.7305 497.37747 603.78534 495.09467 603.78595 492.7146L603.78595 492.7146L603.78595 387.27734L889.81256 387.27734C 892.1927 387.2767 894.4755 388.2219 896.1585 389.90488C 897.8415 391.58786 898.7867 393.87064 898.786 396.25073z" stroke="none" fill="#5CE1E6" fill-rule="nonzero" />
    <path transform="matrix(1 0 0 1 -229.66231 -253.37758)"  d="M969.147 646.62244L230.853 646.62244C 230.19783 646.619 229.66852 646.0869 229.66852 645.43176C 229.66852 644.7766 230.19783 644.2445 230.853 644.2411L230.853 644.2411L969.147 644.2411C 969.80304 644.2432 970.3338 644.77563 970.3338 645.43176C 970.3338 646.0879 969.80304 646.6203 969.147 646.62244z" stroke="none" fill="#3F3D56" fill-rule="nonzero" />
    <path d="M534.62366 248.3104L536.62366 248.3104L536.62366 392.3104L534.62366 392.3104z" stroke="none" fill="#3F3D56" fill-rule="nonzero" />
    <path transform="matrix(1 0 0 1 -229.66231 -253.37758)"  d="M918.786 502.688L611.786 502.688C 606.8178 502.6823 602.7917 498.65622 602.786 493.688L602.786 493.688L602.786 364.688C 602.7917 359.7198 606.8178 355.6937 611.786 355.688L611.786 355.688L918.786 355.688C 923.7542 355.69366 927.78033 359.7198 927.786 364.688L927.786 364.688L927.786 493.688C 927.78033 498.6562 923.7542 502.68228 918.786 502.688zM611.786 357.688C 607.9218 357.69232 604.79034 360.8238 604.786 364.688L604.786 364.688L604.786 493.688C 604.79034 497.5522 607.9218 500.68365 611.786 500.688L611.786 500.688L918.786 500.688C 922.6502 500.68365 925.7817 497.5522 925.786 493.688L925.786 493.688L925.786 364.688C 925.7817 360.8238 922.6502 357.69232 918.786 357.688z" stroke="none" fill="#3F3D56" fill-rule="nonzero" />
    <path transform="matrix(1 0 0 1 -229.66231 -253.37758)"  d="M833.786 423.688L652.786 423.688C 651.12915 423.688 649.786 422.34485 649.786 420.688C 649.786 419.03113 651.12915 417.688 652.786 417.688L652.786 417.688L833.786 417.688C 835.4429 417.688 836.786 419.03113 836.786 420.688C 836.786 422.34485 835.4429 423.688 833.786 423.688z" stroke="none" fill="#FFFFFF" fill-rule="nonzero" />
    <path transform="matrix(1 0 0 1 -229.66231 -253.37758)"  d="M833.786 448.688L652.786 448.688C 651.12915 448.688 649.786 447.34485 649.786 445.688C 649.786 444.03113 651.12915 442.688 652.786 442.688L652.786 442.688L833.786 442.688C 835.4429 442.688 836.786 444.03113 836.786 445.688C 836.786 447.34485 835.4429 448.688 833.786 448.688z" stroke="none" fill="#FFFFFF" fill-rule="nonzero" />
    <path transform="matrix(1 0 0 1 -229.66231 -253.37758)"  d="M833.786 473.688L652.786 473.688C 651.12915 473.688 649.786 472.34485 649.786 470.688C 649.786 469.03113 651.12915 467.688 652.786 467.688L652.786 467.688L833.786 467.688C 835.4429 467.688 836.786 469.03113 836.786 470.688C 836.786 472.34485 835.4429 473.688 833.786 473.688z" stroke="none" fill="#FFFFFF" fill-rule="nonzero" />
    <path d="M729.70154 102.89185C 729.70154 111.96773 726.4928 119.71446 720.07513 126.132065C 713.6575 132.54967 705.91077 135.75847 696.8349 135.75847C 687.7591 135.75847 680.0123 132.54967 673.59467 126.132065C 667.17706 119.71446 663.96826 111.96773 663.96826 102.89185C 663.96826 93.815994 667.17706 86.06925 673.59467 79.65164C 680.0123 73.23404 687.7591 70.02524 696.8349 70.02524C 705.91077 70.02524 713.6575 73.23404 720.07513 79.65164C 726.4928 86.06925 729.70154 93.815994 729.70154 102.89185C 729.70154 103.27432 729.6949 103.65666 729.6815 104.03888" stroke="none" fill="#CCCCCC" fill-rule="nonzero" />
    <path transform="matrix(1 0 0 1 -229.66231 -253.37758)"  d="M926.634 366.16418L910.18634 349.71658C 909.077 348.59924 909.08026 346.79514 910.19366 345.6818C 911.307 344.56842 913.11115 344.56522 914.2284 345.6746L914.2284 345.6746L926.3605 357.80667L965.0745 313.65924C 966.1158 312.47498 967.9195 312.35788 969.1051 313.39758C 970.2907 314.4373 970.41016 316.2408 969.37195 317.42776L969.37195 317.42776L926.634 366.16418z" stroke="none" fill="#5CE1E6" fill-rule="nonzero" />
    <path transform="matrix(1 0 0 1 -229.66231 -253.37758)"  d="M376.33032 330.6801C 376.33032 330.6801 396.58392 317.88837 415.77155 332.8121L415.77155 332.8121L428.5633 466.0594C 428.5633 466.0594 380.59424 503.36865 368.86847 468.19138L368.86847 468.19138L376.33032 330.6801z" stroke="none" fill="#E6E6E6" fill-rule="nonzero" />
    <path d="M141.723 380.162L129.463 380.161L125.38 333.046L141.725 332.874L141.723 380.162L141.723 380.162" stroke="none" fill="#FFB8B8" fill-rule="nonzero" />
    <path d="M120.70626 376.6582L144.35013 376.6582L144.35013 376.6582L144.35013 376.6582L144.35013 376.6582L144.35013 391.54507L144.35013 391.54507L144.35013 391.54507L144.35013 391.54507L105.8194 391.54507L105.8194 391.54507L105.8194 391.54507C 105.8194 387.5968 107.38783 383.81027 110.17966 381.01843C 112.97149 378.22662 116.75802 376.65817 120.70626 376.6582z" stroke="none" fill="#2F2E41" fill-rule="nonzero" />
    <path d="M186.037 380.162L198.297 380.161L204.129 332.873L186.035 332.874L186.037 380.162L186.037 380.162" stroke="none" fill="#FFB8B8" fill-rule="nonzero" />
    <path transform="matrix(-1 4.592736E-05 -4.592736E-05 -1 635.04205 1021.56116)"  d="M413.07227 630.03577L451.603 630.03577L451.603 630.03577L451.603 630.03577L451.603 630.03577L451.603 644.9226L451.603 644.9226L451.603 644.9226L451.603 644.9226L427.9591 644.9226C 419.73734 644.9226 413.07227 638.25757 413.07224 630.03577L413.07224 630.03577L413.07227 630.03577z" stroke="none" fill="#2F2E41" fill-rule="nonzero" />
    <path transform="matrix(1 0 0 1 -229.66231 -253.37758)"  d="M344.884 466.59238L355.5438 625.4232L372.06647 624.8902L393.919 497.50577L414.1726 623.29126L433.36023 624.35724L438.69012 460.19653C 438.69012 460.19653 357.6757 442.0749 344.884 466.59238z" stroke="none" fill="#2F2E41" fill-rule="nonzero" />
    <path d="M190.08281 39.25824C 190.08282 46.04058 187.68489 51.829674 182.88904 56.62551C 178.0932 61.421352 172.30411 63.81927 165.52177 63.819267C 158.73944 63.81927 152.95035 61.421352 148.15451 56.62551C 143.35867 51.829674 140.96075 46.04058 140.96074 39.25824C 140.96075 32.4759 143.35867 26.68681 148.15451 21.89097C 152.95035 17.09513 158.73944 14.69721 165.52177 14.69721C 172.30411 14.69721 178.0932 17.09513 182.88904 21.89097C 187.68489 26.68681 190.08282 32.4759 190.08281 39.25824C 190.08282 39.544052 190.07782 39.829773 190.06784 40.115406" stroke="none" fill="#FFB8B8" fill-rule="nonzero" />
    <path transform="matrix(1 0 0 1 -229.66231 -253.37758)"  d="M380.06125 325.8832L373.66537 330.14713C 373.66537 330.14713 347.01593 330.14713 344.88394 346.1368C 342.75195 362.1265 336.8891 471.3893 343.28494 471.3893C 349.6808 471.3893 350.7468 462.86148 350.7468 462.86148C 350.7468 462.86148 355.0107 463.9275 363.53854 472.4553C 372.06638 480.9831 377.39627 480.98312 380.5942 468.19138C 383.79214 455.39963 405.11172 357.3296 384.85812 339.20795L384.85812 339.20795L380.06125 325.8832z" stroke="none" fill="#2F2E41" fill-rule="nonzero" />
    <path transform="matrix(1 0 0 1 -229.66231 -253.37758)"  d="M410.97464 325.8832L417.3705 330.14713C 417.3705 330.14713 444.02 330.14713 446.15195 346.1368C 448.2839 362.1265 454.1468 471.3893 447.75095 471.3893C 441.3551 471.3893 440.2891 462.86148 440.2891 462.86148C 440.2891 462.86148 436.02518 463.9275 427.49734 472.4553C 418.9695 480.9831 413.63962 480.98312 410.44168 468.19138C 407.24374 455.39963 385.92416 357.3296 406.17776 339.20795L406.17776 339.20795L410.97464 325.8832z" stroke="none" fill="#2F2E41" fill-rule="nonzero" />
    <path transform="matrix(1 0 0 1 -229.66231 -253.37758)"  d="M375.25586 307.61176C 371.52203 303.67636 370.53635 297.87485 372.76096 292.92715C 374.98557 287.97946 379.9794 284.8665 385.40118 285.0477C 388.79745 285.1612 391.99765 286.55112 395.23914 287.57114C 400.15143 289.24225 405.3922 289.71417 410.52405 288.94754C 415.6866 288.14603 420.34525 285.39526 423.54047 281.26184C 426.57925 277.08533 427.52682 271.29245 425.3801 266.59467C 422.90173 261.17123 417.11252 258.18283 411.6664 255.75473C 409.47025 254.65518 407.12436 253.88443 404.704 253.46718C 402.25287 253.0601 399.74295 253.69281 397.77768 255.21318C 396.24728 256.52948 395.3503 258.508 393.68494 259.64874C 391.81024 260.93283 389.37503 260.89914 387.11404 261.12546C 376.68658 262.16925 367.99292 269.5564 365.2795 279.67862C 362.56613 289.80084 366.3992 300.54596 374.90643 306.66547" stroke="none" fill="#2F2E41" fill-rule="nonzero" />
    <path transform="matrix(1 0 0 1 -229.66231 -253.37758)"  d="M458.9184 483.054C 461.24387 480.8861 462.4897 477.79953 462.32062 474.62482C 462.15152 471.45007 460.58493 468.51328 458.04233 466.60468L458.04233 466.60468L457.7534 438.4179L443.00284 441.216L442.45453 469.3027C 439.46573 473.88727 440.37823 479.98273 444.5786 483.49103C 448.77896 486.99933 454.93948 486.81158 458.9184 483.054z" stroke="none" fill="#FFB8B8" fill-rule="nonzero" />
    <path transform="matrix(1 0 0 1 -229.66231 -253.37758)"  d="M355.9184 478.054C 358.24387 475.8861 359.4897 472.79953 359.32062 469.62482C 359.15152 466.45007 357.58493 463.51328 355.04233 461.60468L355.04233 461.60468L354.7534 433.4179L340.00284 436.216L339.45453 464.3027C 336.46573 468.88727 337.37823 474.98273 341.5786 478.49103C 345.77896 481.99933 351.93948 481.81158 355.9184 478.054z" stroke="none" fill="#FFB8B8" fill-rule="nonzero" />
    <path transform="matrix(1 0 0 1 -229.66231 -253.37758)"  d="M442.421 344.53784L446.25616 346.96805C 446.25616 346.96805 462.04233 407.42325 462.14157 448.47076C 462.14157 448.47076 441.35498 458.59756 438.15704 451.1357C 434.9591 443.67386 442.421 344.53784 442.421 344.53784z" stroke="none" fill="#2F2E41" fill-rule="nonzero" />
    <path transform="matrix(1 0 0 1 -229.66231 -253.37758)"  d="M348.61487 344.53784L344.7797 346.96805C 344.7797 346.96805 331.04236 407.42325 334.75714 447.9378C 334.75714 447.9378 356.6097 458.0646 359.80765 450.60275C 363.00558 443.1409 348.61487 344.53784 348.61487 344.53784z" stroke="none" fill="#2F2E41" fill-rule="nonzero" />
</g>
</svg>