<?xml version="1.0" standalone="no"?>
<!DOCTYPE svg PUBLIC "-//W3C//DTD SVG 1.0//EN" "http://www.w3.org/TR/2001/REC-SVG-20010904/DTD/svg10.dtd">
<svg xmlns="http://www.w3.org/2000/svg" xmlns:xlink="http://www.w3.org/1999/xlink" id="body_1" width="1060" height="573">

<g transform="matrix(1.1993778 0 0 1.1993778 -0 0.11956078)">
    <path transform="matrix(1 0 0 1 -158.10423 -211.22583)"  d="M285.64566 625.40936L909.6456 625.40936L909.6456 587.79266C 909.6456 579.9365 900.1781 572.20355 883.6711 566.5767L883.6711 566.5767L883.50146 566.51843C 872.35645 562.5853 801.1101 534.6033 762.5728 535.44965C 742.2157 535.8954 724.78705 539.34595 710.77216 545.70575C 667.1476 565.5093 609.84247 572.8245 579.5661 567.07733C 552.884 562.0113 479.6348 553.63354 452.57 554.012C 414.6654 554.5334 414.55423 560.866 375.64566 581.30365C 360.7851 589.1032 355.22702 590.08167 285.64566 596.30365L285.64566 596.30365L285.64566 625.40936z" stroke="none" fill="#F2F2F2" fill-rule="nonzero" />
    <path transform="matrix(1 0 0 1 -158.10423 -211.22583)"  d="M185.04707 570.11884C 183.6883 549.93787 192.25577 529.55084 210.0083 522.0599C 206.41962 542.85254 210.84122 565.9579 222.24225 585.98865C 226.68277 593.7904 232.3855 602.12006 231.17184 610.27185C 230.41678 615.3441 226.96617 619.3706 222.74971 621.99286C 218.53296 624.61505 213.56436 626.0151 208.65633 627.389L208.65633 627.389L207.80896 628.27924C 196.14432 610.2131 186.40585 590.2998 185.04707 570.11884z" stroke="none" fill="#F2F2F2" fill-rule="nonzero" />
    <path transform="matrix(1 0 0 1 -158.10423 -211.22583)"  d="M210.26938 522.4295C 201.46552 535.9841 197.55408 552.1385 199.1825 568.2189C 199.45178 571.89197 200.27446 575.50323 201.62265 578.93054C 203.09702 582.3642 205.35822 585.4029 208.22365 587.8014C 210.87589 590.1113 213.81854 592.20483 215.94241 595.0399C 218.06041 597.835 218.94987 601.3716 218.40622 604.83606C 217.7871 608.89886 215.684 612.2915 213.49968 615.5216C 211.07439 619.108 208.49188 622.78674 208.05191 627.40045C 207.9986 627.9595 207.10501 627.722 207.15823 627.1638C 207.9237 619.1367 214.69351 614.2556 216.96886 606.94525C 218.22244 603.36694 217.77037 599.4118 215.7417 596.2087C 213.76276 593.2101 210.72977 591.04895 208.02696 588.7304C 205.19698 586.4188 202.89522 583.5276 201.27672 580.25146C 199.76427 576.88196 198.80588 573.2902 198.43857 569.6151C 197.52072 561.69073 197.89679 553.66986 199.5521 545.8661C 201.32266 537.2771 204.71823 529.1056 209.55609 521.79114C 209.85284 521.34546 210.56421 521.9867 210.26938 522.42944L210.26938 522.42944L210.26938 522.4295z" stroke="none" fill="#FFFFFF" fill-rule="nonzero" />
    <path transform="matrix(1 0 0 1 -158.10423 -211.22583)"  d="M198.38953 562.8165C 192.40334 561.6443 187.8179 556.8069 186.96724 550.7666C 186.90305 550.193 187.79546 550.19183 187.85974 550.7662C 188.64256 556.39264 192.92476 560.8941 198.50516 561.95667C 198.66075 561.975 198.79437 562.0758 198.8547 562.2204C 198.91505 562.36505 198.89275 562.53094 198.79634 562.6544C 198.69994 562.77795 198.54443 562.8399 198.38951 562.8165L198.38951 562.8165L198.38953 562.8165z" stroke="none" fill="#FFFFFF" fill-rule="nonzero" />
    <path transform="matrix(1 0 0 1 -158.10423 -211.22583)"  d="M206.74638 586.78546C 211.15396 583.50104 213.94682 578.4887 214.42073 573.01245C 214.47607 572.4539 215.36974 572.6912 215.3144 573.2491C 214.8098 578.9462 211.89157 584.1552 207.29654 587.5608C 206.86192 587.87866 206.31412 587.1016 206.74638 586.78546z" stroke="none" fill="#FFFFFF" fill-rule="nonzero" />
    <path transform="matrix(1 0 0 1 -158.10423 -211.22583)"  d="M202.36359 537.9386C 204.43442 538.82837 206.81824 538.5831 208.66458 537.29047C 209.0941 536.9667 209.64146 537.74414 209.21474 538.0658C 207.17 539.48376 204.54295 539.76 202.24797 538.79846C 202.00665 538.7283 201.84547 538.5011 201.85896 538.2502C 201.87564 538.137 201.94145 538.037 202.03877 537.9769C 202.1361 537.9168 202.25497 537.9028 202.36362 537.93854L202.36362 537.93854L202.36359 537.9386z" stroke="none" fill="#FFFFFF" fill-rule="nonzero" />
    <path transform="matrix(1 0 0 1 -158.10423 -211.22583)"  d="M274.77853 554.9411C 274.51727 555.15173 274.256 555.36237 273.99582 555.5805C 270.50586 558.4275 267.2896 561.5945 264.38913 565.04004C 264.1602 565.3022 263.93268 565.57184 263.7128 565.84106C 256.77368 574.3332 251.6944 584.18726 248.8035 594.76605C 247.61778 599.08014 246.78558 603.4836 246.31516 607.9328C 245.65446 614.1374 245.44925 620.9868 242.78345 626.1698C 242.51318 626.7125 242.20499 627.2354 241.86113 627.7347L241.86113 627.7347L209.12833 629.3962C 209.04675 629.36237 208.96623 629.33606 208.88432 629.3023L208.88432 629.3023L207.5889 629.4288C 207.59683 629.19305 207.61024 628.94946 207.6182 628.71375C 207.6222 628.5769 207.63351 628.43976 207.63753 628.30286C 207.64253 628.21155 207.64786 628.1201 207.647 628.0367C 207.64854 628.0063 207.65045 627.9758 207.65343 627.9529C 207.65257 627.86945 207.66078 627.7931 207.66136 627.71716C 207.73251 626.35486 207.81094 624.9922 207.9047 623.6287C 207.90326 623.6212 207.90326 623.6212 207.9091 623.6133C 208.47171 613.362 210.33292 603.2236 213.44818 593.44086C 213.54448 593.15515 213.63898 592.8619 213.75018 592.5754C 215.20316 588.3356 217.04187 584.238 219.24326 580.334C 220.4461 578.2211 221.77022 576.17957 223.20883 574.2197C 226.93396 569.1715 231.54134 564.8386 236.80855 561.4302C 247.67465 554.1926 261.04352 551.75397 273.7652 554.68884C 274.10483 554.7704 274.4375 554.8521 274.77853 554.9411z" stroke="none" fill="#F2F2F2" fill-rule="nonzero" />
    <path transform="matrix(1 0 0 1 -158.10423 -211.22583)"  d="M274.78494 555.363C 259.44165 559.22003 245.98813 568.4469 236.86331 581.371C 234.86017 584.1227 233.36177 587.2083 232.43797 590.48413C 231.63298 593.89 231.7644 597.45013 232.81833 600.7873C 233.74171 604.03186 235.05457 607.2967 235.18869 610.5981C 235.3382 613.8749 233.90988 617.0252 231.3467 619.0721C 228.304 621.59906 224.36235 622.7549 220.44884 623.7458C 216.10362 624.84595 211.56284 625.9174 208.33989 628.94543C 207.94939 629.3123 207.30605 628.6051 207.69595 628.2388C 213.30328 622.9705 222.28096 623.5606 228.78151 619.71246C 231.81479 617.9168 234.18562 615.12054 234.2935 611.31146C 234.3878 607.9806 233.03676 604.6131 232.07399 601.332C 231.00134 598.0728 230.74283 594.6007 231.32098 591.2187C 232.06064 587.8913 233.42752 584.7354 235.34854 581.9198C 239.51501 575.59827 244.79106 570.08295 250.9217 565.6404C 258.0177 560.4551 266.03537 556.667 274.54712 554.47815C 275.083 554.3387 275.31735 555.22437 274.78497 555.3629L274.78497 555.3629L274.78494 555.363z" stroke="none" fill="#FFFFFF" fill-rule="nonzero" />
    <path transform="matrix(1 0 0 1 -158.10423 -211.22583)"  d="M239.48181 577.03827C 234.9332 572.73694 233.79507 566.1125 236.79631 561.565C 237.09198 561.117 237.88087 561.65314 237.58482 562.10175C 234.7732 566.36194 235.86023 572.4733 240.1122 576.49414C 240.55966 576.9173 239.92673 577.459 239.48181 577.03827z" stroke="none" fill="#FFFFFF" fill-rule="nonzero" />
    <path transform="matrix(1 0 0 1 -158.10423 -211.22583)"  d="M232.13773 599.1734C 237.71669 599.5957 243.2248 597.7119 247.3768 593.96173C 247.7688 593.59644 248.41228 594.3035 248.02074 594.6684C 243.69052 598.56213 237.95316 600.51013 232.14732 600.0578C 231.56818 600.02313 231.56174 599.1389 232.13774 599.1734L232.13774 599.1734L232.13773 599.1734z" stroke="none" fill="#FFFFFF" fill-rule="nonzero" />
    <path transform="matrix(1 0 0 1 -158.10423 -211.22583)"  d="M258.2749 561.67444C 259.66803 563.6164 261.8539 564.8367 264.23807 565.0034C 264.81635 565.03076 264.82214 565.91504 264.24765 565.8878C 261.61484 565.6929 259.20056 564.35126 257.64453 562.2185C 257.47433 562.04584 257.47134 561.7694 257.63776 561.59314C 257.83813 561.4471 258.1176 561.4828 258.2749 561.67444z" stroke="none" fill="#FFFFFF" fill-rule="nonzero" />
    <path transform="matrix(1 0 0 1 -158.10423 -211.22583)"  d="M1004.56525 570.11884C 1005.924 549.93787 997.35657 529.55084 979.604 522.0599C 983.1927 542.85254 978.77106 565.9579 967.37006 585.98865C 962.92957 593.7904 957.2268 602.12006 958.4405 610.27185C 959.19556 615.3441 962.6462 619.3706 966.8626 621.99286C 971.07935 624.61505 976.048 626.0151 980.956 627.389L980.956 627.389L981.80334 628.27924C 993.468 610.2131 1003.2065 590.2998 1004.56525 570.11884z" stroke="none" fill="#F2F2F2" fill-rule="nonzero" />
    <path transform="matrix(1 0 0 1 -158.10423 -211.22583)"  d="M979.343 522.4295C 988.14685 535.984 992.05835 552.1384 990.42993 568.2189C 990.16064 571.89197 989.33795 575.5033 987.9898 578.93054C 986.5155 582.36414 984.2543 585.4029 981.3888 587.8014C 978.7366 590.1113 975.7939 592.20483 973.67004 595.0399C 971.552 597.835 970.66254 601.3716 971.20624 604.83606C 971.8254 608.89886 973.92847 612.2915 976.1128 615.5216C 978.5381 619.108 981.1206 622.78674 981.56055 627.40045C 981.61383 627.9595 982.50745 627.722 982.4542 627.1638C 981.6887 619.1367 974.91895 614.2556 972.6436 606.94525C 971.39 603.36694 971.8421 599.4118 973.8708 596.2087C 975.8498 593.2101 978.8827 591.04895 981.5855 588.7304C 984.4155 586.4188 986.7173 583.5276 988.33575 580.25146C 989.8482 576.8819 990.8066 573.2902 991.1739 569.6151C 992.09174 561.69073 991.71564 553.66986 990.06036 545.8661C 988.2898 537.2771 984.8942 529.1055 980.05634 521.79114C 979.7596 521.34546 979.0482 521.9867 979.343 522.42944L979.343 522.42944L979.343 522.4295z" stroke="none" fill="#FFFFFF" fill-rule="nonzero" />
    <path transform="matrix(1 0 0 1 -158.10423 -211.22583)"  d="M991.22284 562.8165C 997.20905 561.6442 1001.7945 556.8068 1002.64514 550.7666C 1002.70935 550.193 1001.81696 550.19183 1001.7526 550.7662C 1000.96985 556.39264 996.6876 560.89417 991.1072 561.95667C 990.9516 561.97504 990.818 562.07587 990.7577 562.22046C 990.6973 562.36505 990.71967 562.53094 990.81604 562.6544C 990.9124 562.77795 991.06793 562.8399 991.22284 562.8165z" stroke="none" fill="#FFFFFF" fill-rule="nonzero" />
    <path transform="matrix(1 0 0 1 -158.10423 -211.22583)"  d="M982.866 586.78546C 978.4585 583.501 975.6656 578.48865 975.1917 573.01245C 975.13635 572.4539 974.24274 572.6912 974.29803 573.2491C 974.8027 578.9462 977.7209 584.1552 982.3159 587.5608C 982.75055 587.87866 983.29834 587.1016 982.8661 586.78546L982.8661 586.78546L982.866 586.78546z" stroke="none" fill="#FFFFFF" fill-rule="nonzero" />
    <path transform="matrix(1 0 0 1 -158.10423 -211.22583)"  d="M987.2488 537.9386C 985.1779 538.82837 982.79407 538.5831 980.94775 537.29047C 980.51825 536.9667 979.9709 537.74414 980.3976 538.0658C 982.4423 539.48376 985.06934 539.76 987.3643 538.79846C 987.60565 538.7283 987.7668 538.5011 987.7533 538.2502C 987.7366 538.137 987.6708 538.037 987.5735 537.9769C 987.47614 537.9168 987.3573 537.9028 987.24866 537.93854L987.24866 537.93854L987.2488 537.9386z" stroke="none" fill="#FFFFFF" fill-rule="nonzero" />
    <path transform="matrix(1 0 0 1 -158.10423 -211.22583)"  d="M914.8338 554.9411C 915.09503 555.15173 915.3563 555.36237 915.6165 555.5805C 919.10645 558.4275 922.3227 561.5944 925.2232 565.04C 925.45215 565.3021 925.6797 565.5718 925.89954 565.841C 932.8387 574.33307 937.91797 584.18713 940.80884 594.766C 941.9945 599.08 942.82666 603.48346 943.2972 607.93274C 943.9579 614.1373 944.1631 620.98676 946.8289 626.16974C 947.0992 626.71234 947.4074 627.2353 947.7512 627.7346L947.7512 627.7346L980.484 629.3961C 980.5656 629.3623 980.6461 629.336 980.728 629.30225L980.728 629.30225L982.02344 629.4287C 982.0155 629.193 982.0021 628.9494 981.99414 628.7137C 981.9901 628.57684 981.9788 628.4397 981.9748 628.3028C 981.9698 628.2115 981.9645 628.12006 981.96533 628.0366C 981.9638 628.0062 981.96185 627.97577 981.9589 627.9528C 981.9598 627.8694 981.95154 627.793 981.951 627.7171C 981.8798 626.3548 981.8014 624.9921 981.70764 623.62866C 981.7091 623.62115 981.7091 623.62115 981.70325 623.6132C 981.1407 613.3619 979.2795 603.22345 976.1642 593.4408C 976.0679 593.1551 975.9734 592.8618 975.8621 592.5753C 974.4092 588.3355 972.57043 584.2379 970.369 580.3339C 969.1662 578.22107 967.8421 576.1795 966.40344 574.21967C 962.67834 569.1715 958.0709 564.8386 952.8037 561.4302C 941.9376 554.19257 928.5687 551.7539 915.84705 554.68884C 915.5075 554.7704 915.17487 554.8521 914.8338 554.9411z" stroke="none" fill="#F2F2F2" fill-rule="nonzero" />
    <path transform="matrix(1 0 0 1 -158.10423 -211.22583)"  d="M914.8274 555.363C 930.17065 559.22003 943.62415 568.4469 952.749 581.371C 954.7522 584.1227 956.25055 587.2083 957.1744 590.48413C 957.9794 593.88995 957.8479 597.45013 956.794 600.7873C 955.8706 604.03186 954.5578 607.2967 954.42365 610.5981C 954.2741 613.8749 955.70245 617.0252 958.2656 619.0721C 961.30835 621.59906 965.24994 622.7549 969.1635 623.7458C 973.5087 624.84595 978.0495 625.9174 981.27246 628.94543C 981.66296 629.3123 982.3063 628.6051 981.9164 628.2388C 976.3091 622.9705 967.33136 623.5606 960.8308 619.71246C 957.79755 617.9168 955.4267 615.12054 955.3188 611.31146C 955.2245 607.9806 956.5755 604.6131 957.53827 601.332C 958.6109 598.0729 958.86945 594.6007 958.29126 591.2187C 957.55164 587.89136 956.1847 584.7355 954.2637 581.9198C 950.09717 575.59827 944.8211 570.08295 938.6905 565.6404C 931.59454 560.4551 923.57684 556.667 915.06506 554.47815C 914.5292 554.3387 914.29486 555.22437 914.8272 555.3629L914.8272 555.3629L914.8274 555.363z" stroke="none" fill="#FFFFFF" fill-rule="nonzero" />
    <path transform="matrix(1 0 0 1 -158.10423 -211.22583)"  d="M950.13055 577.03827C 954.6792 572.73694 955.81726 566.1125 952.81604 561.565C 952.5204 561.117 951.73145 561.65314 952.0275 562.10175C 954.8392 566.36194 953.75214 572.4733 949.5002 576.49414C 949.05273 576.9173 949.68567 577.459 950.13055 577.03827z" stroke="none" fill="#FFFFFF" fill-rule="nonzero" />
    <path transform="matrix(1 0 0 1 -158.10423 -211.22583)"  d="M957.4746 599.1734C 951.8956 599.5957 946.3875 597.7119 942.23553 593.96173C 941.8435 593.59644 941.2001 594.3035 941.5916 594.6684C 945.9218 598.56213 951.6592 600.51013 957.465 600.0578C 958.0442 600.02313 958.0506 599.1389 957.4746 599.1734z" stroke="none" fill="#FFFFFF" fill-rule="nonzero" />
    <path transform="matrix(1 0 0 1 -158.10423 -211.22583)"  d="M931.3374 561.67444C 929.9443 563.61633 927.7584 564.8366 925.37427 565.0034C 924.796 565.03076 924.79016 565.91504 925.3647 565.8878C 927.9975 565.6929 930.4118 564.35126 931.96783 562.2185C 932.138 562.04584 932.141 561.7694 931.9746 561.59314C 931.7742 561.4471 931.4947 561.4828 931.33746 561.67444L931.33746 561.67444L931.3374 561.67444z" stroke="none" fill="#FFFFFF" fill-rule="nonzero" />
    <path d="M49.96319 258.98303L55.96319 258.98303L55.96319 260.98303L49.96319 260.98303z" stroke="none" fill="#E6E6E6" fill-rule="nonzero" />
    <path transform="matrix(1 0 0 1 -158.10423 -211.22583)"  d="M969.2017 472.20886L957.0225 472.20886L957.0225 470.20886L969.2017 470.20886L969.2017 472.20886zM944.84283 472.20886L932.66315 472.20886L932.66315 470.20886L944.84283 470.20886zM920.48346 472.20886L908.30426 472.20886L908.30426 470.20886L920.48346 470.20886zM896.1246 472.20886L883.9449 472.20886L883.9449 470.20886L896.1246 470.20886zM871.7652 472.20886L859.586 472.20886L859.586 470.20886L871.7652 470.20886zM847.4063 472.20886L835.2266 472.20886L835.2266 470.20886L847.4063 470.20886zM823.04694 472.20886L810.86774 472.20886L810.86774 470.20886L823.04694 470.20886zM798.68805 472.20886L786.50836 472.20886L786.50836 470.20886L798.688 470.20886zM774.3287 472.20886L762.1495 472.20886L762.1495 470.20886L774.3287 470.20886zM749.9698 472.20886L737.7901 472.20886L737.7901 470.20886L749.9698 470.20886zM725.6104 472.20886L713.4307 472.20886L713.4307 470.20886L725.6104 470.20886zM701.2515 472.20886L689.07184 472.20886L689.07184 470.20886L701.2515 470.20886zM676.89215 472.20886L664.71246 472.20886L664.71246 470.20886L676.89215 470.20886zM652.5328 472.20886L640.3536 472.20886L640.3536 470.20886L652.5328 470.20886zM628.1739 472.20886L615.9942 472.20886L615.9942 470.20886L628.1739 470.20886zM603.8145 472.20886L591.6348 472.20886L591.6348 470.20886L603.8145 470.20886zM579.4556 472.20886L567.27594 472.20886L567.27594 470.20886L579.4556 470.20886zM555.09625 472.20886L542.91656 472.20886L542.91656 470.20886L555.09625 470.20886zM530.7369 472.20886L518.5572 472.20886L518.5572 470.20886L530.7369 470.20886zM506.378 472.20886L494.19827 472.20886L494.19827 470.20886L506.378 470.20886zM482.01862 472.20886L469.8389 472.20886L469.8389 470.20886L482.0186 470.20886zM457.65924 472.20886L445.48 472.20886L445.48 470.20886L457.6592 470.20886zM433.30035 472.20886L421.12064 472.20886L421.12064 470.20886L433.30032 470.20886zM408.94098 472.20886L396.76126 472.20886L396.76126 470.20886L408.941 470.20886zM384.5816 472.20886L372.4024 472.20886L372.4024 470.20886L384.5816 470.20886zM360.22272 472.20886L348.043 472.20886L348.043 470.20886L360.2227 470.20886zM335.86334 472.20886L323.68362 472.20886L323.68362 470.20886L335.8633 470.20886zM311.50446 472.20886L299.32474 472.20886L299.32474 470.20886L311.50443 470.20886zM287.14508 472.20886L274.96536 472.20886L274.96536 470.20886L287.14505 470.20886zM262.7857 472.20886L250.6065 472.20886L250.6065 470.20886L262.7857 470.20886zM238.42682 472.20886L226.24712 472.20886L226.24712 470.20886L238.42679 470.20886z" stroke="none" fill="#E6E6E6" fill-rule="nonzero" />
    <path d="M823.27765 258.98303L829.27765 258.98303L829.27765 260.98303L823.27765 260.98303z" stroke="none" fill="#E6E6E6" fill-rule="nonzero" />
    <path d="M49.96319 244.98303L55.96319 244.98303L55.96319 246.98303L49.96319 246.98303z" stroke="none" fill="#E6E6E6" fill-rule="nonzero" />
    <path transform="matrix(1 0 0 1 -158.10423 -211.22583)"  d="M969.2017 458.20886L957.0225 458.20886L957.0225 456.20886L969.2017 456.20886L969.2017 458.20886zM944.84283 458.20886L932.66315 458.20886L932.66315 456.20886L944.84283 456.20886zM920.48346 458.20886L908.30426 458.20886L908.30426 456.20886L920.48346 456.20886zM896.1246 458.20886L883.9449 458.20886L883.9449 456.20886L896.1246 456.20886zM871.7652 458.20886L859.586 458.20886L859.586 456.20886L871.7652 456.20886zM847.4063 458.20886L835.2266 458.20886L835.2266 456.20886L847.4063 456.20886zM823.04694 458.20886L810.86774 458.20886L810.86774 456.20886L823.04694 456.20886zM798.68805 458.20886L786.50836 458.20886L786.50836 456.20886L798.688 456.20886zM774.3287 458.20886L762.1495 458.20886L762.1495 456.20886L774.3287 456.20886zM749.9698 458.20886L737.7901 458.20886L737.7901 456.20886L749.9698 456.20886zM725.6104 458.20886L713.4307 458.20886L713.4307 456.20886L725.6104 456.20886zM701.2515 458.20886L689.07184 458.20886L689.07184 456.20886L701.2515 456.20886zM676.89215 458.20886L664.71246 458.20886L664.71246 456.20886L676.89215 456.20886zM652.5328 458.20886L640.3536 458.20886L640.3536 456.20886L652.5328 456.20886zM628.1739 458.20886L615.9942 458.20886L615.9942 456.20886L628.1739 456.20886zM603.8145 458.20886L591.6348 458.20886L591.6348 456.20886L603.8145 456.20886zM579.4556 458.20886L567.27594 458.20886L567.27594 456.20886L579.4556 456.20886zM555.09625 458.20886L542.91656 458.20886L542.91656 456.20886L555.09625 456.20886zM530.7369 458.20886L518.5572 458.20886L518.5572 456.20886L530.7369 456.20886zM506.378 458.20886L494.19827 458.20886L494.19827 456.20886L506.378 456.20886zM482.01862 458.20886L469.8389 458.20886L469.8389 456.20886L482.0186 456.20886zM457.65924 458.20886L445.48 458.20886L445.48 456.20886L457.6592 456.20886zM433.30035 458.20886L421.12064 458.20886L421.12064 456.20886L433.30032 456.20886zM408.94098 458.20886L396.76126 458.20886L396.76126 456.20886L408.941 456.20886zM384.5816 458.20886L372.4024 458.20886L372.4024 456.20886L384.5816 456.20886zM360.22272 458.20886L348.043 458.20886L348.043 456.20886L360.2227 456.20886zM335.86334 458.20886L323.68362 458.20886L323.68362 456.20886L335.8633 456.20886zM311.50446 458.20886L299.32474 458.20886L299.32474 456.20886L311.50443 456.20886zM287.14508 458.20886L274.96536 458.20886L274.96536 456.20886L287.14505 456.20886zM262.7857 458.20886L250.6065 458.20886L250.6065 456.20886L262.7857 456.20886zM238.42682 458.20886L226.24712 458.20886L226.24712 456.20886L238.42679 456.20886z" stroke="none" fill="#E6E6E6" fill-rule="nonzero" />
    <path d="M823.27765 244.98303L829.27765 244.98303L829.27765 246.98303L823.27765 246.98303z" stroke="none" fill="#E6E6E6" fill-rule="nonzero" />
    <path d="M49.96319 215.98303L55.96319 215.98303L55.96319 217.98303L49.96319 217.98303z" stroke="none" fill="#E6E6E6" fill-rule="nonzero" />
    <path transform="matrix(1 0 0 1 -158.10423 -211.22583)"  d="M969.2017 429.20886L957.0225 429.20886L957.0225 427.20886L969.2017 427.20886L969.2017 429.20886zM944.84283 429.20886L932.66315 429.20886L932.66315 427.20886L944.84283 427.20886zM920.48346 429.20886L908.30426 429.20886L908.30426 427.20886L920.48346 427.20886zM896.1246 429.20886L883.9449 429.20886L883.9449 427.20886L896.1246 427.20886zM871.7652 429.20886L859.586 429.20886L859.586 427.20886L871.7652 427.20886zM847.4063 429.20886L835.2266 429.20886L835.2266 427.20886L847.4063 427.20886zM823.04694 429.20886L810.86774 429.20886L810.86774 427.20886L823.04694 427.20886zM798.68805 429.20886L786.50836 429.20886L786.50836 427.20886L798.688 427.20886zM774.3287 429.20886L762.1495 429.20886L762.1495 427.20886L774.3287 427.20886zM749.9698 429.20886L737.7901 429.20886L737.7901 427.20886L749.9698 427.20886zM725.6104 429.20886L713.4307 429.20886L713.4307 427.20886L725.6104 427.20886zM701.2515 429.20886L689.07184 429.20886L689.07184 427.20886L701.2515 427.20886zM676.89215 429.20886L664.71246 429.20886L664.71246 427.20886L676.89215 427.20886zM652.5328 429.20886L640.3536 429.20886L640.3536 427.20886L652.5328 427.20886zM628.1739 429.20886L615.9942 429.20886L615.9942 427.20886L628.1739 427.20886zM603.8145 429.20886L591.6348 429.20886L591.6348 427.20886L603.8145 427.20886zM579.4556 429.20886L567.27594 429.20886L567.27594 427.20886L579.4556 427.20886zM555.09625 429.20886L542.91656 429.20886L542.91656 427.20886L555.09625 427.20886zM530.7369 429.20886L518.5572 429.20886L518.5572 427.20886L530.7369 427.20886zM506.378 429.20886L494.19827 429.20886L494.19827 427.20886L506.378 427.20886zM482.01862 429.20886L469.8389 429.20886L469.8389 427.20886L482.0186 427.20886zM457.65924 429.20886L445.48 429.20886L445.48 427.20886L457.6592 427.20886zM433.30035 429.20886L421.12064 429.20886L421.12064 427.20886L433.30032 427.20886zM408.94098 429.20886L396.76126 429.20886L396.76126 427.20886L408.941 427.20886zM384.5816 429.20886L372.4024 429.20886L372.4024 427.20886L384.5816 427.20886zM360.22272 429.20886L348.043 429.20886L348.043 427.20886L360.2227 427.20886zM335.86334 429.20886L323.68362 429.20886L323.68362 427.20886L335.8633 427.20886zM311.50446 429.20886L299.32474 429.20886L299.32474 427.20886L311.50443 427.20886zM287.14508 429.20886L274.96536 429.20886L274.96536 427.20886L287.14505 427.20886zM262.7857 429.20886L250.6065 429.20886L250.6065 427.20886L262.7857 427.20886zM238.42682 429.20886L226.24712 429.20886L226.24712 427.20886L238.42679 427.20886z" stroke="none" fill="#E6E6E6" fill-rule="nonzero" />
    <path d="M823.27765 215.98303L829.27765 215.98303L829.27765 217.98303L823.27765 217.98303z" stroke="none" fill="#E6E6E6" fill-rule="nonzero" />
    <path d="M49.96319 195.98303L55.96319 195.98303L55.96319 197.98303L49.96319 197.98303z" stroke="none" fill="#E6E6E6" fill-rule="nonzero" />
    <path transform="matrix(1 0 0 1 -158.10423 -211.22583)"  d="M969.2017 409.20886L957.0225 409.20886L957.0225 407.20886L969.2017 407.20886L969.2017 409.20886zM944.84283 409.20886L932.66315 409.20886L932.66315 407.20886L944.84283 407.20886zM920.48346 409.20886L908.30426 409.20886L908.30426 407.20886L920.48346 407.20886zM896.1246 409.20886L883.9449 409.20886L883.9449 407.20886L896.1246 407.20886zM871.7652 409.20886L859.586 409.20886L859.586 407.20886L871.7652 407.20886zM847.4063 409.20886L835.2266 409.20886L835.2266 407.20886L847.4063 407.20886zM823.04694 409.20886L810.86774 409.20886L810.86774 407.20886L823.04694 407.20886zM798.68805 409.20886L786.50836 409.20886L786.50836 407.20886L798.688 407.20886zM774.3287 409.20886L762.1495 409.20886L762.1495 407.20886L774.3287 407.20886zM749.9698 409.20886L737.7901 409.20886L737.7901 407.20886L749.9698 407.20886zM725.6104 409.20886L713.4307 409.20886L713.4307 407.20886L725.6104 407.20886zM701.2515 409.20886L689.07184 409.20886L689.07184 407.20886L701.2515 407.20886zM676.89215 409.20886L664.71246 409.20886L664.71246 407.20886L676.89215 407.20886zM652.5328 409.20886L640.3536 409.20886L640.3536 407.20886L652.5328 407.20886zM628.1739 409.20886L615.9942 409.20886L615.9942 407.20886L628.1739 407.20886zM603.8145 409.20886L591.6348 409.20886L591.6348 407.20886L603.8145 407.20886zM579.4556 409.20886L567.27594 409.20886L567.27594 407.20886L579.4556 407.20886zM555.09625 409.20886L542.91656 409.20886L542.91656 407.20886L555.09625 407.20886zM530.7369 409.20886L518.5572 409.20886L518.5572 407.20886L530.7369 407.20886zM506.378 409.20886L494.19827 409.20886L494.19827 407.20886L506.378 407.20886zM482.01862 409.20886L469.8389 409.20886L469.8389 407.20886L482.0186 407.20886zM457.65924 409.20886L445.48 409.20886L445.48 407.20886L457.6592 407.20886zM433.30035 409.20886L421.12064 409.20886L421.12064 407.20886L433.30032 407.20886zM408.94098 409.20886L396.76126 409.20886L396.76126 407.20886L408.941 407.20886zM384.5816 409.20886L372.4024 409.20886L372.4024 407.20886L384.5816 407.20886zM360.22272 409.20886L348.043 409.20886L348.043 407.20886L360.2227 407.20886zM335.86334 409.20886L323.68362 409.20886L323.68362 407.20886L335.8633 407.20886zM311.50446 409.20886L299.32474 409.20886L299.32474 407.20886L311.50443 407.20886zM287.14508 409.20886L274.96536 409.20886L274.96536 407.20886L287.14505 407.20886zM262.7857 409.20886L250.6065 409.20886L250.6065 407.20886L262.7857 407.20886zM238.42682 409.20886L226.24712 409.20886L226.24712 407.20886L238.42679 407.20886z" stroke="none" fill="#E6E6E6" fill-rule="nonzero" />
    <path d="M823.27765 195.98303L829.27765 195.98303L829.27765 197.98303L823.27765 197.98303z" stroke="none" fill="#E6E6E6" fill-rule="nonzero" />
    <path d="M49.96319 152.98303L55.96319 152.98303L55.96319 154.98303L49.96319 154.98303z" stroke="none" fill="#E6E6E6" fill-rule="nonzero" />
    <path transform="matrix(1 0 0 1 -158.10423 -211.22583)"  d="M969.2017 366.20886L957.0225 366.20886L957.0225 364.20886L969.2017 364.20886L969.2017 366.20886zM944.84283 366.20886L932.66315 366.20886L932.66315 364.20886L944.84283 364.20886zM920.48346 366.20886L908.30426 366.20886L908.30426 364.20886L920.48346 364.20886zM896.1246 366.20886L883.9449 366.20886L883.9449 364.20886L896.1246 364.20886zM871.7652 366.20886L859.586 366.20886L859.586 364.20886L871.7652 364.20886zM847.4063 366.20886L835.2266 366.20886L835.2266 364.20886L847.4063 364.20886zM823.04694 366.20886L810.86774 366.20886L810.86774 364.20886L823.04694 364.20886zM798.68805 366.20886L786.50836 366.20886L786.50836 364.20886L798.688 364.20886zM774.3287 366.20886L762.1495 366.20886L762.1495 364.20886L774.3287 364.20886zM749.9698 366.20886L737.7901 366.20886L737.7901 364.20886L749.9698 364.20886zM725.6104 366.20886L713.4307 366.20886L713.4307 364.20886L725.6104 364.20886zM701.2515 366.20886L689.07184 366.20886L689.07184 364.20886L701.2515 364.20886zM676.89215 366.20886L664.71246 366.20886L664.71246 364.20886L676.89215 364.20886zM652.5328 366.20886L640.3536 366.20886L640.3536 364.20886L652.5328 364.20886zM628.1739 366.20886L615.9942 366.20886L615.9942 364.20886L628.1739 364.20886zM603.8145 366.20886L591.6348 366.20886L591.6348 364.20886L603.8145 364.20886zM579.4556 366.20886L567.27594 366.20886L567.27594 364.20886L579.4556 364.20886zM555.09625 366.20886L542.91656 366.20886L542.91656 364.20886L555.09625 364.20886zM530.7369 366.20886L518.5572 366.20886L518.5572 364.20886L530.7369 364.20886zM506.378 366.20886L494.19827 366.20886L494.19827 364.20886L506.378 364.20886zM482.01862 366.20886L469.8389 366.20886L469.8389 364.20886L482.0186 364.20886zM457.65924 366.20886L445.48 366.20886L445.48 364.20886L457.6592 364.20886zM433.30035 366.20886L421.12064 366.20886L421.12064 364.20886L433.30032 364.20886zM408.94098 366.20886L396.76126 366.20886L396.76126 364.20886L408.941 364.20886zM384.5816 366.20886L372.4024 366.20886L372.4024 364.20886L384.5816 364.20886zM360.22272 366.20886L348.043 366.20886L348.043 364.20886L360.2227 364.20886zM335.86334 366.20886L323.68362 366.20886L323.68362 364.20886L335.8633 364.20886zM311.50446 366.20886L299.32474 366.20886L299.32474 364.20886L311.50443 364.20886zM287.14508 366.20886L274.96536 366.20886L274.96536 364.20886L287.14505 364.20886zM262.7857 366.20886L250.6065 366.20886L250.6065 364.20886L262.7857 364.20886zM238.42682 366.20886L226.24712 366.20886L226.24712 364.20886L238.42679 364.20886z" stroke="none" fill="#E6E6E6" fill-rule="nonzero" />
    <path d="M823.27765 152.98303L829.27765 152.98303L829.27765 154.98303L823.27765 154.98303z" stroke="none" fill="#E6E6E6" fill-rule="nonzero" />
    <path transform="matrix(1 0 0 1 -158.10423 -211.22583)"  d="M498.5924 306.4224C 498.5924 328.43906 485.3299 348.28784 464.98914 356.71326C 444.64838 365.1387 421.23517 360.4815 405.66702 344.9134C 390.09888 329.34525 385.44168 305.932 393.86713 285.59128C 402.29254 265.25052 422.1413 251.988 444.158 251.988C 458.6145 251.92368 472.49753 257.63806 482.71994 267.86047C 492.94235 278.08286 498.65674 291.96588 498.5924 306.4224z" stroke="none" fill="#F2F2F2" fill-rule="nonzero" />
    <path transform="matrix(1 0 0 1 -158.10423 -211.22583)"  d="M466.42047 293.3979L466.15112 293.8834C 468.54846 287.9751 466.3685 280.69473 462.09183 276.23972C 457.81534 271.78473 451.87 269.748 446.01584 268.93997C 441.6704 268.1735 437.20163 268.52075 433.02682 269.94934C 427.04282 272.25458 422.47092 277.591 418.65375 283.14233C 416.90775 285.68146 415.191 288.5762 415.36493 291.7498C 415.5264 294.69492 417.27457 297.19415 418.7062 299.69287C 420.138 302.19156 421.33356 305.29163 420.30603 308.01877C 419.69373 309.64392 418.39966 310.8144 417.34967 312.14383C 416.29968 313.47327 415.4359 315.2702 415.9431 316.93826C 416.40115 318.23648 417.5079 319.19833 418.85733 319.47095C 420.14212 319.68536 421.4559 319.65424 422.7291 319.37924L422.7291 319.37924L456.09784 314.33774C 460.70007 313.64233 464.67075 310.7389 466.72876 306.56412C 468.7868 302.38937 468.67163 297.47174 466.42047 293.3979z" stroke="none" fill="#2F2E41" fill-rule="nonzero" />
    <path d="M299.81064 86.56464C 299.81064 91.06979 298.21783 94.91518 295.0322 98.1008C 291.84656 101.28642 288.0012 102.87924 283.49603 102.879234C 278.9909 102.87924 275.1455 101.28642 271.95987 98.1008C 268.77423 94.91518 267.18143 91.06979 267.18143 86.56464C 267.18143 82.05949 268.77423 78.214096 271.95987 75.02847C 275.1455 71.84285 278.9909 70.25004 283.49603 70.25004C 288.0012 70.25004 291.84656 71.84285 295.0322 75.02847C 298.21783 78.214096 299.81064 82.05949 299.81064 86.56464C 299.81064 86.754486 299.8073 86.944275 299.8007 87.13401" stroke="none" fill="#FFB9B9" fill-rule="nonzero" />
    <path transform="matrix(1 0 0 1 -158.10423 -211.22583)"  d="M485.03177 342.36328C 465.4099 364.69 431.5028 367.14047 408.87445 347.8672L408.87445 347.8672L413.54346 334.83917C 415.69354 330.1239 420.27094 326.98065 425.4438 326.6673L425.4438 326.6673L428.41406 326.48495L435.49667 320.37643C 435.49667 320.37643 454.5804 319.69504 454.29727 319.3687L454.29727 319.3687L465.85693 326.32178L465.84732 326.27377L470.3915 326.5521C 475.56482 326.8641 480.14285 330.00778 482.29187 334.72397L482.29187 334.72397L485.03177 342.36328z" stroke="none" fill="#5CE1E6" fill-rule="nonzero" />
    <path transform="matrix(1 0 0 1 -158.10423 -211.22583)"  d="M457.075 282.6486C 456.65387 280.4207 454.3816 279.4017 452.43475 278.90796C 446.78775 277.46716 440.9135 277.1446 435.1427 277.9584C 430.93588 278.55835 426.6292 279.8812 423.5768 283.16483C 421.1155 285.9297 419.72092 289.48172 419.6436 293.18262C 419.51913 295.3955 420.01355 297.59927 421.07144 299.54684C 422.0341 301.39148 423.89743 302.5924 425.97498 302.70724L425.97498 302.70724L426.17072 303.38797C 434.71674 302.01105 442.23672 296.97403 446.76257 289.59515C 445.8632 292.8066 444.0734 295.698 441.6 297.9351C 447.13007 295.72235 451.9371 292.0176 455.48557 287.23367C 456.45456 285.94748 457.39536 284.34357 457.075 282.6486z" stroke="none" fill="#2F2E41" fill-rule="nonzero" />
    <path d="M804.36456 112.45057C 804.36456 127.48222 799.05005 140.31255 788.4211 150.94151C 777.7921 161.57051 764.9618 166.88501 749.9301 166.885C 734.89844 166.88501 722.0681 161.57051 711.43915 150.94151C 700.8102 140.31255 695.49567 127.48222 695.49567 112.45057C 695.49567 97.418915 700.8102 84.58861 711.43915 73.959625C 722.0681 63.330643 734.89844 58.01615 749.9301 58.016148C 764.9618 58.01615 777.7921 63.330643 788.4211 73.959625C 799.05005 84.58861 804.36456 97.418915 804.36456 112.45057C 804.36456 113.084015 804.3535 113.717255 804.33136 114.3503" stroke="none" fill="#F2F2F2" fill-rule="nonzero" />
    <path d="M742.6675 84.3398C 742.6675 86.46201 741.9172 88.27344 740.4165 89.77407C 738.9159 91.274704 737.1045 92.025024 734.98224 92.02502C 732.86 92.025024 731.0486 91.274704 729.548 89.77407C 728.04736 88.27344 727.297 86.46201 727.297 84.3398C 727.297 82.21759 728.04736 80.40616 729.548 78.905525C 731.0486 77.40489 732.86 76.65458 734.98224 76.65458C 737.1045 76.65458 738.9159 77.40489 740.4165 78.905525C 741.9172 80.40616 742.6675 82.21759 742.6675 84.3398C 742.6675 84.42923 742.6659 84.51863 742.6628 84.60801" stroke="none" fill="#2F2E41" fill-rule="nonzero" />
    <path d="M766.7478 101.75963C 766.7478 107.13591 764.84705 111.72485 761.0454 115.52645C 757.2438 119.328064 752.65485 121.22887 747.27856 121.22886C 741.90234 121.22887 737.31335 119.328064 733.5117 115.52645C 729.71014 111.72485 727.8093 107.13591 727.8093 101.75963C 727.8093 96.38335 729.71014 91.7944 733.5117 87.992805C 737.31335 84.19121 741.90234 82.290405 747.27856 82.2904C 752.65485 82.290405 757.2438 84.19121 761.0454 87.992805C 764.84705 91.7944 766.7478 96.38335 766.7478 101.75963C 766.7478 101.98619 766.7439 102.21268 766.73596 102.439095" stroke="none" fill="#2F2E41" fill-rule="nonzero" />
    <path d="M764.7105 105.40309C 764.7105 109.77193 763.1659 113.50096 760.07666 116.590195C 756.9874 119.67943 753.2584 121.224045 748.8896 121.224045C 744.5208 121.224045 740.79175 119.67943 737.7025 116.590195C 734.6133 113.50096 733.0687 109.77193 733.06866 105.40309C 733.0687 101.034256 734.6133 97.30522 737.7025 94.21599C 740.79175 91.126755 744.5208 89.58214 748.8896 89.58214C 753.2584 89.58214 756.9874 91.126755 760.07666 94.21599C 763.1659 97.30522 764.7105 101.034256 764.7105 105.40309C 764.7105 105.587204 764.70734 105.77125 764.7009 105.95524" stroke="none" fill="#9E616A" fill-rule="nonzero" />
    <path transform="matrix(1 0 0 1 -158.10423 -211.22583)"  d="M917.73785 300.50165C 912.0913 297.05927 905.0179 296.96603 899.28253 300.25833C 893.5471 303.55066 890.06055 309.70572 890.1854 316.31772C 898.247 318.3417 906.71625 319.89066 915.31335 316.80185L915.31335 316.80185L917.3436 311.83292L918.5406 316.8055C 921.1587 317.87564 923.78357 318.78107 926.40845 316.79517C 926.6265 310.20734 923.3237 304.00085 917.73785 300.50165z" stroke="none" fill="#2F2E41" fill-rule="nonzero" />
    <path transform="matrix(1 0 0 1 -158.10423 -211.22583)"  d="M885.931 274.70312C 880.4267 272.35376 874.06586 273.33365 869.5238 277.23065C 865.1011 281.2213 862.97076 287.16168 863.8494 293.05356C 864.7209 298.95364 868.30774 304.03442 871.614 308.9982C 874.9203 313.96198 878.15045 319.40115 878.1467 325.3652C 878.14124 334.3092 870.89856 341.5618 861.9546 341.57956C 866.9962 343.75 872.25836 345.963 877.74133 345.70572C 883.2243 345.44843 888.97125 341.9236 889.86566 336.50797C 890.51013 332.60577 888.59564 328.80066 886.9989 325.18225C 884.3982 319.28622 882.51825 313.0979 881.39996 306.75153C 880.8667 303.72253 880.5195 300.53815 881.50696 297.62543C 883.12146 293.19403 887.44336 290.33908 892.15283 290.593L892.15283 290.593L893.9645 288.9631C 894.6005 282.98325 891.375 277.25775 885.931 274.70312z" stroke="none" fill="#2F2E41" fill-rule="nonzero" />
    <path transform="matrix(1 0 0 1 -158.10423 -211.22583)"  d="M948.9921 360.09717C 929.3702 382.4239 895.46313 384.87436 872.83484 365.60107L872.83484 365.60107L877.5038 352.57306C 879.6539 347.85776 884.23126 344.7145 889.4041 344.40118L889.4041 344.40118L892.3744 344.21884L899.45703 338.11035C 899.45703 338.11035 918.5408 337.42892 918.2576 337.10263L918.2576 337.10263L929.81726 344.05563L929.8077 344.00763L934.35187 344.28595C 939.52515 344.59796 944.10315 347.74164 946.2522 352.45782L946.2522 352.45782L948.9921 360.09717z" stroke="none" fill="#5CE1E6" fill-rule="nonzero" />
    <path transform="matrix(1 0 0 1 -158.10423 -211.22583)"  d="M807.5923 265.75677C 807.53894 295.82004 783.12463 320.1479 753.0614 320.09457C 722.9981 320.0413 698.6702 295.62698 698.7236 265.56372C 698.77686 235.50046 723.19116 211.1726 753.25446 211.22592C 767.7028 211.21404 781.56006 216.96161 791.75854 227.19629C 801.957 237.43097 807.65533 251.30849 807.5923 265.75677z" stroke="none" fill="#F2F2F2" fill-rule="nonzero" />
    <path transform="matrix(1 0 0 1 -158.10423 -211.22583)"  d="M727.9281 247.95277C 730.17896 240.77942 735.2974 234.20029 742.37616 231.7753C 749.4553 229.3503 759.82104 233.04436 765.14294 238.3483C 774.8778 248.0503 777.2535 281.38004 770.56525 291.91263C 769.2349 291.8422 764.64453 291.79013 763.2981 291.7397L763.2981 291.7397L761.39343 285.39142L761.39343 291.6771C 759.2484 291.6108 757.08655 291.56506 754.9079 291.5398C 739.7268 291.35156 727.4143 279.18835 727.0409 264.0107C 726.86664 257.02448 727.04114 250.77962 727.9281 247.95277z" stroke="none" fill="#2F2E41" fill-rule="nonzero" />
    <path d="M609.7598 44.9877C 609.7598 49.27162 608.24524 52.92817 605.21606 55.95735C 602.1869 58.986538 598.53033 60.50113 594.2464 60.50113C 589.96246 60.50113 586.3059 58.986538 583.27673 55.95735C 580.24756 52.92817 578.733 49.27162 578.733 44.9877C 578.733 40.70379 580.24756 37.047237 583.27673 34.01805C 586.3059 30.988865 589.96246 29.474274 594.2464 29.474272C 598.53033 29.474274 602.1869 30.988865 605.21606 34.01805C 608.24524 37.047237 609.7598 40.70379 609.7598 44.9877C 609.7598 45.16823 609.7567 45.348698 609.75037 45.529114" stroke="none" fill="#9E616A" fill-rule="nonzero" />
    <path transform="matrix(1 0 0 1 -158.10423 -211.22583)"  d="M738.96204 242.589L756.8243 233.64494C 764.2611 236.99611 769.29517 244.11722 769.9738 252.24594L769.9738 252.24594L770.419 257.57895L762.9392 255.67494L762.11975 248.85568L760.84955 255.14302L757.3977 254.26472L757.43054 243.67784L753.97656 254.25716L741.64795 251.42467L738.96204 242.589z" stroke="none" fill="#2F2E41" fill-rule="nonzero" />
    <path transform="matrix(1 0 0 1 -158.10423 -211.22583)"  d="M793.55194 301.68274C 773.93 324.00946 740.02295 326.45993 717.39465 307.18665L717.39465 307.18665L722.0636 294.15863C 724.2137 289.44336 728.7911 286.3001 733.9639 285.98676L733.9639 285.98676L736.9342 285.8044L744.01685 279.6959C 744.01685 279.6959 763.1006 279.0145 762.81744 278.68817L762.81744 278.68817L774.3771 285.64124L774.3675 285.59323L778.9117 285.87155C 784.08496 286.18356 788.66296 289.32724 790.812 294.04343L790.812 294.04343L793.55194 301.68274z" stroke="none" fill="#5CE1E6" fill-rule="nonzero" />
    <path d="M499.84308 142.45058C 499.84308 157.48224 494.5286 170.31255 483.8996 180.94153C 473.27063 191.57051 460.4403 196.88501 445.40866 196.885C 430.377 196.88501 417.54672 191.57051 406.91772 180.94153C 396.28876 170.31255 390.97424 157.48224 390.97424 142.45058C 390.97424 127.41893 396.28876 114.58861 406.91772 103.959625C 417.54672 93.33065 430.377 88.01616 445.40866 88.01616C 460.4403 88.01616 473.27063 93.33065 483.8996 103.959625C 494.5286 114.58861 499.84308 127.41893 499.84308 142.45058C 499.84308 143.08401 499.83203 143.71725 499.80994 144.35031" stroke="none" fill="#F2F2F2" fill-rule="nonzero" />
    <path d="M461.2823 131.81776C 461.28232 136.61603 459.58588 140.71161 456.19296 144.10449C 452.8001 147.49738 448.70453 149.19382 443.90625 149.19382C 439.108 149.19382 435.01245 147.49738 431.61954 144.10449C 428.22668 140.71161 426.5302 136.61603 426.5302 131.81776C 426.5302 127.0195 428.22668 122.92393 431.61954 119.531044C 435.01245 116.13816 439.108 114.44172 443.90625 114.44171C 448.70453 114.44172 452.8001 116.13816 456.19296 119.531044C 459.58588 122.92393 461.28232 127.0195 461.2823 131.81776C 461.28232 132.01996 461.2788 132.2221 461.27173 132.42418" stroke="none" fill="#FFB6B6" fill-rule="nonzero" />
    <path transform="matrix(1 0 0 1 -158.10423 -211.22583)"  d="M644.3507 390.09717C 624.7288 412.4239 590.8218 414.87436 568.1934 395.60107L568.1934 395.60107L572.86237 382.57306C 575.0124 377.8578 579.5898 374.7145 584.7627 374.40118L584.7627 374.40118L587.733 374.21884L594.8156 368.11035C 594.8156 368.11035 613.89935 367.42892 613.6162 367.10263L613.6162 367.10263L625.17584 374.05563L625.16626 374.00763L629.71045 374.28595C 634.8838 374.59796 639.4618 377.74164 641.6108 382.45782L641.6108 382.45782L644.3507 390.09717z" stroke="none" fill="#5CE1E6" fill-rule="nonzero" />
    <path transform="matrix(1 0 0 1 -158.10423 -211.22583)"  d="M620.3364 332.26733C 618.8681 327.01184 615.53204 322.47296 610.9545 319.50266C 607.3065 317.16934 602.7544 315.97818 598.6215 317.2121C 594.48865 318.446 591.067 322.5019 591.3375 326.8841C 589.77563 326.47366 588.1162 326.9861 587.0578 328.20575C 586.0209 329.42987 585.29987 330.8896 584.95807 332.45703C 583.63184 337.37024 583.7197 342.55804 585.21155 347.42352L585.21155 347.42352L585.1295 348.12186C 587.1458 347.7883 588.6752 346.0583 589.6262 344.2151C 590.5773 342.3719 591.1245 340.327 592.1553 338.52887C 593.18604 336.73074 594.8977 335.12677 596.93964 335.07065L596.93964 335.07065L596.7597 338.19186C 598.51654 337.28674 600.2733 336.38165 602.02997 335.47653C 601.61206 336.47614 601.1942 337.4757 600.77637 338.4753C 602.3106 337.83405 603.84485 337.1928 605.379 336.55157C 605.2075 337.5128 605.036 338.47397 604.8645 339.43512C 605.6775 337.74905 607.14514 336.46927 608.9262 335.8934C 610.7072 335.31754 612.64636 335.49582 614.2925 336.38678C 616.12726 337.62122 617.4497 339.48157 618.0127 341.6201C 618.56976 343.75378 618.8689 345.9466 618.90356 348.15158C 621.27423 343.20102 621.7829 337.56226 620.3364 332.26733z" stroke="none" fill="#2F2E41" fill-rule="nonzero" />
    <path d="M184.70432 167.19685C 184.70432 182.2285 179.38983 195.05882 168.76085 205.6878C 158.13187 216.31679 145.30154 221.63127 130.2699 221.63127C 115.23825 221.63127 102.40793 216.31679 91.778946 205.6878C 81.14997 195.05882 75.83548 182.2285 75.83548 167.19685C 75.83548 152.1652 81.14997 139.3349 91.778946 128.7059C 102.40793 118.07693 115.23825 112.762436 130.2699 112.762436C 145.30154 112.762436 158.13187 118.07693 168.76085 128.7059C 179.38983 139.3349 184.70432 152.1652 184.70432 167.19685C 184.70432 167.83029 184.69327 168.46353 184.67116 169.09659" stroke="none" fill="#F2F2F2" fill-rule="nonzero" />
    <path d="M145.58562 156.32912C 145.58563 160.88936 143.97334 164.78177 140.74876 168.00633C 137.52419 171.2309 133.63177 172.84319 129.07155 172.84319C 124.511314 172.84319 120.61891 171.2309 117.39434 168.00633C 114.16977 164.78177 112.55748 160.88936 112.55748 156.32912C 112.55748 151.76889 114.16977 147.87648 117.39434 144.6519C 120.61891 141.42734 124.511314 139.81506 129.07155 139.81505C 133.63177 139.81506 137.52419 141.42734 140.74876 144.6519C 143.97334 147.87648 145.58563 151.76889 145.58562 156.32912C 145.58563 156.52129 145.58228 156.71341 145.57556 156.90546" stroke="none" fill="#9E616A" fill-rule="nonzero" />
    <path transform="matrix(1 0 0 1 -158.10423 -211.22583)"  d="M328.51123 414.36328C 308.88937 436.69 274.98227 439.14047 252.35393 419.8672L252.35393 419.8672L257.02292 406.83917C 259.173 402.12387 263.7504 398.98062 268.92325 398.6673L268.92325 398.6673L271.89352 398.48495L278.97614 392.37643C 278.97614 392.37643 298.05988 391.69504 297.77673 391.3687L297.77673 391.3687L309.3364 398.32178L309.32678 398.27377L313.87097 398.5521C 319.0443 398.8641 323.62234 402.00778 325.77133 406.72397L325.77133 406.72397L328.51123 414.36328z" stroke="none" fill="#5CE1E6" fill-rule="nonzero" />
    <path transform="matrix(1 0 0 1 -158.10423 -211.22583)"  d="M272.1709 375.1898C 272.1384 375.09946 272.10883 375.0081 272.07678 374.9176C 272.0132 374.9736 271.95227 375.0314 271.88333 375.0837L271.88333 375.0837L272.1709 375.1898z" stroke="none" fill="#2F2E41" fill-rule="nonzero" />
    <path transform="matrix(1 0 0 1 -158.10423 -211.22583)"  d="M306.9579 361.68C 306.78653 358.29062 305.1729 355.13657 302.52454 353.01443C 301.48267 352.36337 300.56418 351.53308 299.81158 350.56195C 299.44818 349.81958 299.14014 349.05136 298.88998 348.26364C 297.62225 345.2462 294.00928 343.6425 290.76837 344.0994C 287.51205 344.7181 284.64755 346.63492 282.83356 349.40906C 280.93286 348.49832 278.676 348.77646 277.0533 350.12143C 275.43063 351.4664 274.7386 353.63248 275.28088 355.66913C 273.60257 354.31714 270.8878 355.3986 269.84015 357.28198C 268.7925 359.16537 268.9588 361.4699 269.27026 363.60245C 269.83453 367.45667 270.7745 371.24643 272.07675 374.91754C 273.7109 373.47855 273.61047 370.85785 273.41077 368.64255C 273.20325 366.34106 273.32758 363.53116 275.3401 362.39548C 277.2845 361.29828 279.64444 362.50287 281.78833 363.12595C 285.21878 364.09747 288.90262 363.51804 291.8691 361.54028C 292.92392 360.7009 294.0312 359.9295 295.18405 359.23087C 296.36826 358.53177 297.83255 358.5057 299.04086 359.16223C 299.98105 359.97247 300.61267 361.0825 300.829 362.3047C 301.65448 365.10397 302.47998 367.90323 303.30542 370.70248C 305.75647 368.35522 307.08588 365.0713 306.9579 361.68z" stroke="none" fill="#2F2E41" fill-rule="nonzero" />
    <path d="M125.25492 263.52563L130.45103 263.52563L130.45103 415.82806L125.25492 415.82806z" stroke="none" fill="#3F3D56" fill-rule="nonzero" />
    <path d="M280.81827 192.39484L286.01437 192.39484L286.01437 415.8281L280.81827 415.8281z" stroke="none" fill="#3F3D56" fill-rule="nonzero" />
    <path d="M436.70193 239.15993L441.89804 239.15993L441.89804 415.8281L436.70193 415.8281z" stroke="none" fill="#3F3D56" fill-rule="nonzero" />
    <path d="M592.58563 153.42392L597.78174 153.42392L597.78174 415.8281L592.58563 415.8281z" stroke="none" fill="#3F3D56" fill-rule="nonzero" />
    <path d="M748.4693 213.17932L753.6654 213.17932L753.6654 415.8281L748.4693 415.8281z" stroke="none" fill="#3F3D56" fill-rule="nonzero" />
    <path d="M299.63254 195.97627C 299.63257 200.36577 298.08063 204.11244 294.97678 207.21628C 291.87292 210.32013 288.12625 211.87204 283.73676 211.87204C 279.3473 211.87204 275.6006 210.32013 272.49673 207.21628C 269.39288 204.11244 267.84097 200.36577 267.84097 195.97627C 267.84097 191.58678 269.39288 187.84012 272.49673 184.73627C 275.6006 181.63243 279.3473 180.0805 283.73676 180.0805C 288.12625 180.0805 291.87292 181.63243 294.97678 184.73627C 298.08063 187.84012 299.63257 191.58678 299.63254 195.97627C 299.63257 196.16125 299.62933 196.34618 299.62283 196.53102" stroke="none" fill="#5CE1E6" fill-rule="nonzero" />
    <path d="M611.39984 154.4073C 611.3999 158.7968 609.84796 162.54347 606.7441 165.64731C 603.64026 168.75116 599.89355 170.30307 595.5041 170.30307C 591.1146 170.30307 587.3679 168.75116 584.2641 165.64731C 581.1603 162.54347 579.6084 158.7968 579.60834 154.4073C 579.6084 150.0178 581.1603 146.27115 584.2641 143.1673C 587.3679 140.06346 591.1146 138.51154 595.5041 138.51154C 599.89355 138.51154 603.64026 140.06346 606.7441 143.1673C 609.84796 146.27115 611.3999 150.0178 611.39984 154.4073C 611.3999 154.59229 611.39667 154.7772 611.3902 154.96205" stroke="none" fill="#5CE1E6" fill-rule="nonzero" />
    <path d="M455.5162 240.14333C 455.51624 244.53282 453.9643 248.2795 450.86044 251.38333C 447.7566 254.48718 444.00995 256.0391 439.62042 256.0391C 435.23096 256.0391 431.48425 254.48718 428.3804 251.38333C 425.27655 248.2795 423.72464 244.53282 423.72464 240.14333C 423.72464 235.75383 425.27655 232.00717 428.3804 228.90332C 431.48425 225.7995 435.23096 224.24757 439.62042 224.24756C 444.00995 224.24757 447.7566 225.7995 450.86044 228.90332C 453.9643 232.00717 455.51624 235.75383 455.5162 240.14333C 455.51624 240.32831 455.513 240.51323 455.5065 240.69807" stroke="none" fill="#5CE1E6" fill-rule="nonzero" />
    <path d="M143.74886 263.52588C 143.74886 267.91537 142.19693 271.66205 139.0931 274.7659C 135.98924 277.86975 132.24257 279.42166 127.85308 279.42166C 123.46359 279.42166 119.71692 277.86975 116.613075 274.7659C 113.50924 271.66205 111.95732 267.91537 111.95731 263.52588C 111.95732 259.1364 113.50924 255.38972 116.613075 252.28587C 119.71692 249.18204 123.46359 247.63013 127.85308 247.63011C 132.24257 247.63013 135.98924 249.18204 139.0931 252.28587C 142.19693 255.38972 143.74886 259.1364 143.74886 263.52588C 143.74886 263.71088 143.74564 263.89578 143.73917 264.08063" stroke="none" fill="#5CE1E6" fill-rule="nonzero" />
    <path d="M767.2835 211.56465C 767.2835 215.95416 765.73157 219.70082 762.62775 222.80466C 759.5239 225.90851 755.7772 227.46043 751.38776 227.46042C 746.9983 227.46043 743.25165 225.90851 740.14777 222.80466C 737.04395 219.70082 735.492 215.95416 735.492 211.56465C 735.492 207.17517 737.04395 203.4285 740.14777 200.32465C 743.25165 197.22081 746.9983 195.66888 751.38776 195.66888C 755.7772 195.66888 759.5239 197.22081 762.62775 200.32465C 765.73157 203.4285 767.2835 207.17517 767.2835 211.56465C 767.2835 211.74963 767.2803 211.93456 767.27386 212.1194" stroke="none" fill="#5CE1E6" fill-rule="nonzero" />
    <path transform="matrix(1 0 0 1 -158.10423 -211.22583)"  d="M1020.9964 625.48376L177.1022 625.48376L171.80362 628.13306C 171.80368 629.5962 172.98978 630.7823 174.45291 630.78235L174.45291 630.78235L1020.99634 630.78235C 1022.4595 630.78235 1023.6456 629.5962 1023.6456 628.13306C 1023.6456 626.6699 1022.4595 625.48376 1020.99634 625.48376L1020.99634 625.48376L1020.9964 625.48376z" stroke="none" fill="#3F3D56" fill-rule="nonzero" />
    <path d="M31.79154 415.65256C 31.791542 420.04205 30.23962 423.78876 27.135777 426.89258C 24.031937 429.99646 20.285267 431.54837 15.89577 431.54834C 11.506275 431.54837 7.759606 429.99646 4.6557636 426.89258C 1.5519212 423.78876 0 420.04205 0 415.65256C 0 411.26306 1.5519212 407.51642 4.6557636 404.41254C 7.759606 401.30872 11.506275 399.75677 15.89577 399.75677C 20.285267 399.75677 24.031937 401.30872 27.135777 404.41254C 30.23962 407.51642 31.791542 411.26306 31.79154 415.65256C 31.791542 415.83752 31.788313 416.02246 31.781857 416.2073" stroke="none" fill="#3F3D56" fill-rule="nonzero" />
    <path d="M143.79153 461.65256C 143.79153 466.04208 142.23962 469.78876 139.13577 472.89258C 136.03194 475.99643 132.28526 477.54834 127.89577 477.54834C 123.50627 477.54834 119.759605 475.99643 116.65576 472.89258C 113.551926 469.78876 112.00001 466.04208 112 461.65256C 112.00001 457.26306 113.551926 453.5164 116.65576 450.41254C 119.759605 447.30872 123.50627 445.7568 127.89577 445.75677C 132.28526 445.7568 136.03194 447.30872 139.13577 450.41254C 142.23962 453.5164 143.79153 457.26306 143.79153 461.65256C 143.79153 461.83755 143.78831 462.02246 143.78186 462.2073" stroke="none" fill="#E6E6E6" fill-rule="nonzero" />
    <path d="M299.79156 461.65256C 299.79156 466.04208 298.23965 469.78876 295.1358 472.89258C 292.03198 475.99643 288.28528 477.54834 283.89578 477.54834C 279.5063 477.54834 275.7596 475.99643 272.65576 472.89258C 269.55194 469.78876 268 466.04208 268 461.65256C 268 457.26306 269.55194 453.5164 272.65576 450.41254C 275.7596 447.30872 279.5063 445.7568 283.89578 445.75677C 288.28528 445.7568 292.03198 447.30872 295.1358 450.41254C 298.23965 453.5164 299.79156 457.26306 299.79156 461.65256C 299.79156 461.83755 299.78833 462.02246 299.78186 462.2073" stroke="none" fill="#E6E6E6" fill-rule="nonzero" />
    <path d="M455.79156 461.65256C 455.79156 466.04208 454.23965 469.78876 451.1358 472.89258C 448.03198 475.99643 444.2853 477.54834 439.89578 477.54834C 435.5063 477.54834 431.7596 475.99643 428.65576 472.89258C 425.55194 469.78876 424.00003 466.04208 424 461.65256C 424.00003 457.26306 425.55194 453.5164 428.65576 450.41254C 431.7596 447.30872 435.5063 445.7568 439.89578 445.75677C 444.2853 445.7568 448.03198 447.30872 451.1358 450.41254C 454.23965 453.5164 455.79156 457.26306 455.79156 461.65256C 455.79156 461.83755 455.78833 462.02246 455.78186 462.2073" stroke="none" fill="#E6E6E6" fill-rule="nonzero" />
    <path d="M610.7915 461.65256C 610.7915 466.04208 609.2396 469.78876 606.13574 472.89258C 603.0319 475.99643 599.2853 477.54834 594.89575 477.54834C 590.5063 477.54834 586.75964 475.99643 583.65576 472.89258C 580.55194 469.78876 579 466.04208 579 461.65256C 579 457.26306 580.55194 453.5164 583.65576 450.41254C 586.75964 447.30872 590.5063 445.7568 594.89575 445.75677C 599.2853 445.7568 603.0319 447.30872 606.13574 450.41254C 609.2396 453.5164 610.7915 457.26306 610.7915 461.65256C 610.7915 461.83755 610.7883 462.02246 610.78186 462.2073" stroke="none" fill="#E6E6E6" fill-rule="nonzero" />
    <path d="M766.7915 461.65256C 766.7915 466.04208 765.2396 469.78876 762.13574 472.89258C 759.0319 475.99643 755.2853 477.54834 750.89575 477.54834C 746.5063 477.54834 742.75964 475.99643 739.65576 472.89258C 736.55194 469.78876 735 466.04208 735 461.65256C 735 457.26306 736.55194 453.5164 739.65576 450.41254C 742.75964 447.30872 746.5063 445.7568 750.89575 445.75677C 755.2853 445.7568 759.0319 447.30872 762.13574 450.41254C 765.2396 453.5164 766.7915 457.26306 766.7915 461.65256C 766.7915 461.83755 766.7883 462.02246 766.78186 462.2073" stroke="none" fill="#E6E6E6" fill-rule="nonzero" />
    <path d="M883.7915 415.65256C 883.7915 420.04205 882.2396 423.78876 879.13574 426.89258C 876.032 429.99646 872.2853 431.54837 867.89575 431.54834C 863.5063 431.54837 859.75964 429.99646 856.65576 426.89258C 853.55194 423.78876 852 420.04205 852 415.65256C 852 411.26306 853.55194 407.51642 856.65576 404.41254C 859.75964 401.30872 863.5063 399.75677 867.89575 399.75677C 872.2853 399.75677 876.032 401.30872 879.13574 404.41254C 882.2396 407.51642 883.7915 411.26306 883.7915 415.65256C 883.7915 415.83752 883.7883 416.02246 883.78186 416.2073" stroke="none" fill="#3F3D56" fill-rule="nonzero" />
</g>
</svg>